<?xml version="1.0" encoding="utf-8"?>
<!-- Generator: Adobe Illustrator 24.3.0, SVG Export Plug-In . SVG Version: 6.00 Build 0)  -->
<svg version="1.1" id="Layer_1" xmlns="http://www.w3.org/2000/svg" xmlns:xlink="http://www.w3.org/1999/xlink" x="0px" y="0px"
	 viewBox="0 0 1044.41 794.91" style="enable-background:new 0 0 1044.41 794.91;" xml:space="preserve">
<style type="text/css">
	.st0{fill:#005CFB;stroke:#5A96FC;stroke-miterlimit:10;}
	.st1{fill:none;stroke:#5A96FC;stroke-linecap:round;stroke-linejoin:round;stroke-miterlimit:10;}
	.st2{fill:#5A96FC;}
	.st3{fill:none;stroke:#005CFB;stroke-miterlimit:10;}
	.st4{fill:none;stroke:#FFFFFF;stroke-miterlimit:10;}
	.st5{fill:none;stroke:#5A96FC;stroke-miterlimit:10;}
	.st6{fill:#FFFFFF;}
	.st7{fill:none;stroke:#B3CEFD;stroke-miterlimit:10;}
	.st8{fill:#B3CEFD;}
	.st9{fill:#F9A400;}
	.st10{fill:none;stroke:#000000;stroke-linecap:round;stroke-linejoin:round;stroke-miterlimit:10;}
	.st11{fill:#FFFFFF;stroke:#000000;stroke-linecap:round;stroke-linejoin:round;stroke-miterlimit:10;}
	.st12{fill:#FFE873;}
	.st13{fill:#FFFFFF;stroke:#000000;stroke-miterlimit:10;}
	.st14{fill:#005CFB;}
	.st15{fill:none;stroke:#FFFFFF;stroke-linecap:round;stroke-linejoin:round;stroke-miterlimit:10;}
	.st16{fill:#FFB8A0;}
	.st17{fill:#005CFB;stroke:#FFFFFF;stroke-miterlimit:10;}
	.st18{fill:#005CFB;stroke:#FFFFFF;stroke-linecap:round;stroke-linejoin:round;stroke-miterlimit:10;}
	.st19{fill:none;stroke:#5A96FC;stroke-width:2;stroke-linecap:round;stroke-linejoin:round;stroke-miterlimit:10;}
	.st20{fill:#FF7E1A;}
	.st21{fill:none;stroke:#000000;stroke-miterlimit:10;}
</style>
<g>
	<g>
		<g>
			<path class="st0" d="M173.99,449.08l45.02-0.41c5.02-0.05,9.05-4.15,9-9.17l-0.42-45.9c-0.05-5.02-4.15-9.05-9.17-9l-38.97,0.35
				c0,0,0.05,6.02,0.06,7.01c0.14,15.63,0.32,34.71,0.46,50.34C180.04,448.62,173.99,449.08,173.99,449.08z"/>
			<path class="st0" d="M179.98,442.3c0.06,6.32-5.99,6.78-5.99,6.78s-6.31,0.74-6.38-6.66l8.06-0.07
				C175.68,442.34,179.98,442.09,179.98,442.3z"/>
			<line class="st1" x1="220.59" y1="438.15" x2="188.87" y2="438.44"/>
			<line class="st1" x1="220.53" y1="431.01" x2="188.81" y2="431.3"/>
			<line class="st1" x1="220.36" y1="412.81" x2="188.64" y2="413.1"/>
			<line class="st1" x1="220.3" y1="405.68" x2="188.58" y2="405.97"/>
			<line class="st1" x1="220.44" y1="421.92" x2="188.73" y2="422.2"/>
			<path class="st2" d="M189.06,398.38l19.51-0.18c0.75-0.01,1.36-0.62,1.35-1.38l-0.03-3.07c-0.01-0.75-0.62-1.36-1.38-1.35
				l-19.51,0.18c-0.75,0.01-1.36,0.62-1.35,1.38l0.03,3.07C187.69,397.78,188.31,398.39,189.06,398.38z"/>
		</g>
		<g>
			<path class="st2" d="M758.08,591.86h-69.52c-2.1,0-3.81-1.7-3.81-3.81v-59.52c0-2.1,1.7-3.81,3.81-3.81h69.52
				c2.1,0,3.81,1.7,3.81,3.81v59.52C761.89,590.16,760.19,591.86,758.08,591.86z"/>
			<line class="st3" x1="701.7" y1="558.74" x2="701.7" y2="581.51"/>
			<line class="st3" x1="710.19" y1="558.74" x2="710.19" y2="581.51"/>
			<line class="st3" x1="717.78" y1="562.76" x2="717.78" y2="581.51"/>
			<line class="st3" x1="724.92" y1="577.05" x2="724.92" y2="581.51"/>
			<line class="st3" x1="733.41" y1="564.54" x2="733.41" y2="581.51"/>
			<line class="st3" x1="740.55" y1="538.2" x2="740.55" y2="581.51"/>
			<line class="st3" x1="748.14" y1="538.2" x2="748.14" y2="581.51"/>
			<path class="st4" d="M696.25,565.07c4.21-8.41,9.15-12.02,13.04-10.35c9.38,4.02,12.5,20.09,17.86,19.65
				c11.54-0.96,2.23-36.17,21.43-37.95"/>
		</g>
		<g>
			<line class="st5" x1="353.81" y1="649.02" x2="353.87" y2="634.84"/>
			<line class="st5" x1="372.04" y1="649.09" x2="372.16" y2="618.71"/>
			<line class="st5" x1="387.56" y1="649.15" x2="387.69" y2="616.75"/>
			<line class="st5" x1="405.11" y1="649.22" x2="405.29" y2="605.34"/>
			<line class="st5" x1="420.64" y1="649.28" x2="420.88" y2="589.13"/>
			<line class="st5" x1="434.14" y1="649.33" x2="434.44" y2="573.71"/>
			<path class="st5" d="M461.11,669.15l-142.35-0.56c-2.2-0.01-3.98-1.8-3.97-4l0.44-110.31c0.01-2.2,1.8-3.98,4-3.97l142.35,0.56
				c2.2,0.01,3.98,1.8,3.97,4l-0.44,110.31C465.1,667.38,463.31,669.15,461.11,669.15z"/>
			<g>
				<path class="st4" d="M341.66,645.3l36.17-32.58c1.56-1.41,3.95-1.35,5.44,0.13l5,4.97c1.6,1.59,4.2,1.53,5.72-0.14l39.32-43.1"
					/>
				<path class="st4" d="M333.07,562.52l-0.34,85.14c-0.02,4.05,3.25,7.34,7.3,7.36l103.89,0.41"/>
				<path class="st6" d="M435.79,576.46l-5.61-4.35c-0.51-0.4-0.43-1.2,0.16-1.48l7.16-3.44c0.65-0.31,1.38,0.25,1.24,0.96
					l-1.55,7.79C437.06,576.58,436.3,576.86,435.79,576.46z"/>
			</g>
		</g>
		<g>
			<path class="st2" d="M903.36,255.28H779.5l-19.25,14.9l-1.2-14.9h-31.05c-4.66,0-8.44-3.78-8.44-8.44v-33.85
				c0-4.66,3.78-8.44,8.44-8.44h175.37c4.66,0,8.44,3.78,8.44,8.44v33.85C911.8,251.5,908.02,255.28,903.36,255.28z"/>
			<line class="st7" x1="796.35" y1="238.29" x2="899.84" y2="238.29"/>
			<line class="st7" x1="796.35" y1="228.66" x2="899.84" y2="228.66"/>
			<line class="st7" x1="796.35" y1="218.43" x2="899.84" y2="218.43"/>
			<path class="st8" d="M782.95,247.96h-50.76c-0.98,0-1.78-0.8-1.78-1.78v-32.54c0-0.98,0.8-1.78,1.78-1.78h50.76
				c0.98,0,1.78,0.8,1.78,1.78v32.54C784.73,247.16,783.93,247.96,782.95,247.96z"/>
		</g>
		<g>
			<path d="M185.24,589.04c-6.42,2.16-6.71,10.42-3.93,20.21s22.62,47.54,31.34,46.14c8.72-1.4-4.27-46.37-4.27-46.37L185.24,589.04
				z"/>
			<path d="M320.83,542.05c-5.54,3.9-3.46,11.9,1.99,20.49c5.45,8.59,35.22,39.13,43.18,35.31c7.96-3.82-17.3-43.23-17.3-43.23
				L320.83,542.05z"/>
			<path class="st9" d="M290.89,464.98c0,0,43.98,9.38,47.1,27.79c2.61,15.43-17.81,48.77-17.81,48.77s35.07,29.2,37.81,28.98
				c3.74-2.1,15.36-14.14,24.57-31.37c9.69-18.1,16.73-41.94,9.2-65.99c-17.89-57.21-76.08-61.98-76.08-61.98L290.89,464.98z"/>
			<path class="st10" d="M357.98,570.52c3.74-2.1,15.36-14.14,24.57-31.37c9.69-18.1,16.73-41.94,9.2-65.99
				c-17.89-57.21-76.08-61.98-76.08-61.98"/>
			<path class="st10" d="M290.89,464.98c0,0,43.98,9.38,47.1,27.79c2.61,15.43-17.81,48.77-17.81,48.77"/>
			<path class="st9" d="M319.9,419.94c0.02,9.21-17.85,39.79-26.89,46.41c0,0,1.68,56.78-14.33,95.95s-52.49,60.14-60,62.15
				c0,0-16.73-2.57-26.59-16.66c-9.86-14.09-4.52-25.62-4.52-25.62s25.61-22.91,28.47-28c9.93-17.67,7.07-121.75,7.07-121.75
				s32.07,2.1,54.47-1.34C299.97,427.66,319.9,419.94,319.9,419.94z"/>
			<path class="st10" d="M187.56,582.18c0,0,25.61-22.91,28.47-28c9.93-17.67,7.07-121.75,7.07-121.75"/>
			<path class="st11" d="M293.88,282.69c13.87-5.26,37.06-11.09,52.23-32.8c13.45-19.27,21.75-49.16,30.05-73.03
				c7.46-21.44,10.42-22.75,12.46-22.3c2.05,0.45,1.93,11.99,0.58,15.86c0,0,5.22-13.26,7.49-13.27c2.27-0.01,2.85,8.96,0.72,16.12
				c0,0,5.62-10.92,8.8-10.47c1.9,0.27-1.08,13.26-1.08,13.26s6.17-11.66,7.83-7.6c1.26,3.1-3.52,21.12-3.52,21.12
				s-10.51,56.76-29.42,85.02c-14.48,21.64-31.11,35.1-58.31,43.78C320.47,318.76,293.88,282.69,293.88,282.69z"/>
			<path class="st12" d="M288.71,282.9c0,0,10.08-2.86,17.99-6.87c11.25-5.7,23.08-12.97,23.08-12.97s19.01,32.97,22.08,48.1
				c0,0-23.85,15.4-33.78,13.01L288.71,282.9z"/>
			<path class="st12" d="M286.18,283.62c5.05-2.54,7.71-0.93,7.71-0.93s23.7,25.37,31.71,42.92s21.65,63.14,21.7,84.63
				c0,0-52.22,30.06-124.31,22.81c0,0,0.84-128.77,10.67-135.21C237.61,295.25,286.18,283.62,286.18,283.62z"/>
			<path d="M228.41,369.8c-0.8,8,31.19,39.19,48.79,39.99c17.6,0.8,59.99-10.4,64.78-22.39c0,0-56.79,11.2-81.58-0.8
				S228.41,369.8,228.41,369.8z"/>
			<path class="st13" d="M206.36,332.52c0.58,12.53,15.45,46.75,50.35,60.74c21.29,8.54,50.69,10.21,90.97-6.28
				c1.3-0.53,16.32-5.76,20.28-11.35c3.75-5.32-9.59-0.74-7.95-1.51c2.2-1.04,5.6-2.47,7.71-3.87c3.19-2.11,6.51-5.9,3.1-7.03
				c-3.41-1.13-10.91,2.37-10.91,2.37s12.31-6.21,10.03-9.62c-2.28-3.4-14.76,1.99-14.76,1.99s14.32-7.48,9.94-10.12
				c-2.51-1.51-7.86,0.69-11.45,1.95c-5.38,1.88-10.93,4.83-14.84,6.49c0,0,9.07-10.72,5.32-11.73
				c-3.75-1.01-16.55,11.63-19.16,14.02c-2.61,2.39-47.68,5.8-62.6-12.67c-14.92-18.47-15.26-24.35-20.72-27.06
				C236.2,316.12,205.52,314.24,206.36,332.52z"/>
			<path class="st12" d="M220.93,371.96c0,0,24.78-17.8,41.67-25.74c0,0-17.99-28.76-18.5-51.67c0,0-22.88,4.79-31.57,17.41
				C204.71,323.31,195.34,341.97,220.93,371.96z"/>
			<path class="st13" d="M294.6,265.47c4.38-10.4-15.21-37.44-20.42-43.57c-5.21-6.13-23.15-1.67-31.64,5.91
				c-8.48,7.58-11.27,27.43-11.27,27.43l4.55,5.8c-0.79,1.02-1.26,2.38-1.1,4.02c0.32,3.41,6.15,8.65,11.85,9.7l5.81,7.41
				l-0.17,10.76c0,0,3.8,20.12,27.1,13.42c18.64-5.36,9.07-18.95,8.52-20.58l-0.83-11.8C290.39,271.45,293.29,268.57,294.6,265.47z"
				/>
			<path d="M242.32,260.2c0,0,4.66,4.72,7.12,3.94c2.1-0.67,3.18-2.91,2.83-5.69c-0.52-4.06-11.36-15.66-11.36-15.66
				s0.4-13.09,17.77-19.84c10.98-4.27,13.41-1.11,13.41-1.11s12.07-18.43,5.99-26.2s-17.59-6.79-28.12,3.1
				c-8.25,7.75-17.69,18.65-17.15,28c0,0-10.82,0.46-12.61,8.86c-1.8,8.4,6.61,11.06,6.61,11.06s-6.58-0.68-6.22,4.69
				c0.36,5.36,7.4,16.86,17.09,15.62L242.32,260.2z"/>
		</g>
		<g>
			<path class="st2" d="M487.16,390.33c-19.46,6.28-64.21,40.03-29.65,136.92c1.24,3.46,5.78,4.31,8.15,1.5
				c8.53-10.07,21.45-38.51,57.59-52.69L487.16,390.33z"/>
			<path class="st2" d="M593.61,357.17c20.32-2.19,83.07,6.77,90.99,109.34c0.28,3.67-3.52,6.29-6.84,4.69
				c-11.89-5.72-37.97-15.29-76.74-13.52L593.61,357.17z"/>
			<g>
				<path class="st14" d="M526.17,490.86c-23.19-33.63-55.78-87.62-79.29-153.87c-22.05-62.12-30.47-119.15-25.04-169.51
					c5.81-53.87,16.04-86.15,23.59-103.74c8.72-20.33,16.32-27.39,18.61-27.61c0.19-0.07,0.42-0.1,0.69-0.1
					c5.14,0,42.01,16.9,93.1,97.23c53.71,84.46,58.51,169.11,49.24,339l-0.02,0.38l-80.69,18.51L526.17,490.86z"/>
				<path class="st6" d="M464.73,36.52c5.99,0,43.34,19.42,92.68,97c54.49,85.67,58.25,172.12,49.16,338.7l-79.99,18.35
					c-60.58-87.84-115.96-214.5-104.25-323.04c10.98-101.71,37.89-130.92,41.82-130.92C464.29,36.55,464.49,36.52,464.73,36.52
					 M464.73,35.52c-0.3,0-0.57,0.04-0.8,0.11c-3.14,0.4-10.89,9.1-18.97,27.91c-7.57,17.63-17.81,49.96-23.63,103.89
					c-2.81,26.06-1.86,54.38,2.83,84.18c4.31,27.34,11.79,56.13,22.23,85.55c23.53,66.3,56.14,120.33,79.35,153.99l0.39,0.56
					l0.66-0.15l79.99-18.35l0.73-0.17l0.04-0.75c4.41-80.91,5.98-145.87-0.75-199.87c-6.75-54.22-21.73-97.22-48.57-139.42
					c-26.37-41.46-48.69-65.19-62.77-77.8C479.37,40.76,468.27,35.52,464.73,35.52L464.73,35.52z"/>
			</g>
			<path class="st4" d="M516.87,478.62c0,0,55.54-20.43,91.94-21.71"/>
			<path class="st2" d="M557.41,133.52c-51.12-80.93-89.74-98.5-93.26-96.91c-3.42,0-25.79,21.96-37.42,94.8
				c-1.74,10.87-3.23,22.88-4.39,36.11c0,0,11.81,1.04,30.15-0.62c11-0.99,24.36-2.96,38.92-6.71
				C537.66,148.3,557.41,133.52,557.41,133.52z"/>
			<path class="st2" d="M543.79,353.88c-7.09-9.21,3.13,72.36,13.69,118.28c5.05,21.95,15.66,34.8,17.59,35.01
				c1.92,0.21,4.55-14.58,0.85-37.54C571.67,443.21,557.43,371.59,543.79,353.88z"/>
			<circle class="st2" cx="508.81" cy="239.6" r="46.63"/>
			<path class="st15" d="M494.89,207.67c0,0,33.18-9.59,47.2,15.49"/>
		</g>
		<path class="st10" d="M377.87,188.35c0,0,3.14-13.2,6.29-13.83c3.14-0.63,5.56,15.69,1.79,20.72"/>
		<path class="st10" d="M329.78,263.05c0,0,20.62,36.38,22.08,48.1"/>
		<path class="st10" d="M244.36,321.36c5.08,7.63,13.98,17.16,18.24,24.86l-41.67,25.74"/>
		<path class="st10" d="M288.71,282.9c6.99,5.05,26.69,20.65,35.98,39.98"/>
		<path class="st10" d="M222.98,433.05c0,0,59.72,10.47,124.31-22.81"/>
		<path class="st10" d="M247.54,297.21c0,0,9.53,28.6,43.21,9.53"/>
		<path class="st16" d="M357.98,332.21"/>
		<path class="st10" d="M293,466.35c-0.3,0.2,8.85-13.01,8.85-13.01s13.68-9.27,12.38-28.36"/>
		<path class="st10" d="M218.67,624.45c0,0,46.71-19.12,60-62.15c13.29-43.04,14.78-80.16,14.78-80.16"/>
		<path class="st17" d="M538.4,487.15c0,0,51.2,180.86,52.68,211.1"/>
		<path class="st17" d="M595.92,475.35c0,0,28.07,96.99,39.13,116.17"/>
		<path class="st17" d="M576.8,742.65c-28.72-18.46-1.68-59.8,27.74-40.17"/>
		<path class="st17" d="M583.77,523.24c0,0,47.32,158.9,70.36,193.92"/>
		<path class="st10" d="M1057.22,663.56"/>
		<g>
			<g>
				<path class="st12" d="M861.77,470.08l28.75,40.68c12.51,17.7,32.46,29.04,54.12,29.7c5.4,0.17,10.28-0.2,13.67-1.45
					c4.13-1.53,4.44,4.57,9.33,7.98c0,0,24.63,21.04,10.27,28.65c-18.62,9.86-67.55,13.39-86.72,6.07
					c-33.58-12.82-46.8-38.74-52.83-50.12c-4.16-7.86-8.63-12.92-8.63-12.92L861.77,470.08z"/>
				<path class="st12" d="M752.23,504.6c0,0,37.34,83.54,65.7,105.41c24.32,18.76,65.79,26.41,82.05,22.38l-7.2-34.61l10.01-9.84
					c0,0-7.64-1.38-17.1-3.63c-18.46-4.39-34.33-16.15-44.04-32.45l-10.59-17.78c0,0,47.32-32.75,29.06-66.35l-62.62,26.66
					L752.23,504.6z"/>
				<path class="st11" d="M829.54,305.29l-3.65-5.54c0,0-18.95-3.37-17.69-7.16c1.26-3.79,12.21-3.37,12.21-3.37
					s-10.53-14.32-10.53-19.37c0-5.05,8.84-1.68,10.95,1.68c0,0,14.08-7.48,23.29-2.63c8,4.21,17.3,24.51,17.3,24.51L829.54,305.29z
					"/>
				<path class="st11" d="M605.89,357.78c-5.9-9.69-10.77-24.66-7.82-31.82s23.87-15.68,23.87-15.68s-2.11-8.42,0.84-13.05
					c2.95-4.63,13.35,26.82,18.04,41.41L605.89,357.78z"/>
				<path class="st11" d="M766.88,349.11l0.84-14.23c0,0-12.81-13.9-23.46-15.23c-10.65-1.33-26.96,4.85-27.71,12.4
					c-0.75,7.55-0.09,32.74,8.89,38.46c3.01,1.92,7.27,3.25,11.59,4.19c1.07,2.33,4.72,10.06,6.95,11.93
					c2.98,2.49,34.17-12.79,34.67-14.28C779.14,370.87,773.28,365.72,766.88,349.11z"/>
				<path d="M724.69,332.82c-5.36-1.86-21.65-4.42-19.09-10.48c2.56-6.05,7.99-19.38,23.59-15.89s37.88,10.3,37.65,19.85
					c0,0,1.4-4.19,5.59-0.47c4.19,3.73,6.19,34.81,3.63,40.4s-21.86,10.96-27.44,9.45c-5.57-1.51-10.18-3.05-12.74-9.8L734,350.52
					c0,0-5.82-0.23-7.22-3.96C725.39,342.83,724.69,332.82,724.69,332.82z"/>
				<path class="st9" d="M828.01,401.59l-1.64-2.68c10.36-5.98,30.71-18.77,38.24-30.89c11.93-19.18,0.23-80.67-4.55-80.25
					c-6.55,0.58-34.76,12.93-34.76,12.93c1.22,2.43,6.91,38.2,5.82,39.65c-3.8,5.06-29.23,18.63-29.23,18.63
					s-50.51,23.25-68.76,29.37c-25.17,8.44-33.29,8.6-51.21-2.34c-14.85-9.06-40.39-47.69-40.39-47.69
					c-14.32,4.91-33.82,15.51-35.64,19.45c0,0,5.71,19.42,29.69,49.17c36.54,45.34,89.3,39.29,89.3,39.29
					c8.81,19.44,39.09,86.85,39.09,86.85c30.12,1.12,104.18-52.67,104.18-52.67L828.01,401.59z"/>
				<path class="st10" d="M608.25,365.45c0,0,28,59.3,72.16,75.07c20.41,7.29,44.48,5.72,44.48,5.72"/>
				<path class="st11" d="M734,350.52c3.81-7.22,8.31-2.72,7.86,2.23c-0.45,4.95-3.15,14.39-6.75,12.59"/>
				<path class="st12" d="M896.06,587.46c-5.71,2.05-15.46,9.65-12.69,18.54c2.77,8.9,12.51,28.2,17.08,32.25
					c4.58,4.05,12.13,12.2,21.03,9.43s10.27-14.67,9.87-17.79c-1.58-12.24-13.87-32.74-21.79-39.87
					C903.68,584.73,899.29,586.3,896.06,587.46z"/>
				<path class="st12" d="M954.7,541.24c-7.31,4.05,32.72,57.87,43.57,48.48c14.77-12.78-6.22-41.49-17.96-55.36
					c-4-4.73-10.46-5.36-15.24-1.5L954.7,541.24z"/>
			</g>
			<path class="st10" d="M605.89,357.78c0,0,22.57-18.15,43.48-22.07"/>
			<path class="st10" d="M823.22,303.03c0,0,17.47-8.96,36.84-15.26"/>
			<path class="st10" d="M823.1,345.24c0,0,17.77-10.84,26.27-4.96"/>
			<path class="st10" d="M814.07,375.58c1.31,1.96,54.08,104.85,54.08,104.85"/>
			<path class="st10" d="M642.19,412.83c0,0,7.19-3.92,17.65,1.31c15.24,7.62,11.11,20.91,11.11,20.91"/>
			<path class="st10" d="M858.52,373.62c0,0-9.8-21.57,10.46-25.49"/>
			<path class="st10" d="M909.56,590.03c-7.26-1.39-19.68,9.72-15.76,16.91s16.13,39.02,27.67,40.75"/>
			<line class="st10" x1="902.96" y1="607.59" x2="918.64" y2="597.79"/>
			<line class="st10" x1="906.88" y1="614.78" x2="922.57" y2="604.98"/>
			<line class="st10" x1="912.11" y1="622.62" x2="927.79" y2="612.82"/>
			<line class="st10" x1="915.38" y1="631.12" x2="931.06" y2="621.32"/>
			<path class="st10" d="M895.77,631.77c0,0-15.03,20.26-5.23,16.99s6.54-16.34,6.54-16.34"/>
			<path class="st10" d="M965.06,532.86c-2.63,1.53,26.56,55.97,33.21,56.85"/>
			<line class="st10" x1="976.16" y1="540.27" x2="983.35" y2="534.39"/>
			<line class="st10" x1="980.73" y1="548.12" x2="987.92" y2="542.24"/>
			<line class="st10" x1="984.65" y1="555.96" x2="991.84" y2="550.08"/>
			<line class="st10" x1="988.58" y1="563.8" x2="995.77" y2="557.92"/>
			<line class="st10" x1="993.15" y1="571.65" x2="1000.34" y2="565.76"/>
			<path class="st10" d="M973.54,578.83c0,13.72,2.61,15.69,5.23,13.72s-0.65-12.42-0.65-12.42"/>
			<path class="st10" d="M732.15,382.26c0,0,2.4,4.81,20.44-0.4c18.04-5.21,28.46-13.63,29.26-19.64"/>
		</g>
		<g>
			<path class="st5" d="M602.94,163.83v-51.99c0-1.32,1.07-2.38,2.38-2.38h74.67c1.32,0,2.38,1.07,2.38,2.38v51.99
				c0,1.32-1.07,2.38-2.38,2.38h-74.67C604.01,166.21,602.94,165.15,602.94,163.83z"/>
			<path class="st2" d="M682.37,114.52c0-2.8-2.27-5.06-5.06-5.06H608c-2.8,0-5.06,2.27-5.06,5.06v3.71h79.26L682.37,114.52z"/>
			<path class="st2" d="M639.31,149.98H613.1c-0.8,0-1.45-0.65-1.45-1.45v-22.56c0-0.8,0.65-1.45,1.45-1.45h26.21
				c0.8,0,1.45,0.65,1.45,1.45v22.56C640.75,149.33,640.11,149.98,639.31,149.98z"/>
			<line class="st1" x1="646.18" y1="126.35" x2="674.73" y2="126.35"/>
			<line class="st1" x1="646.18" y1="133.76" x2="674.73" y2="133.76"/>
			<line class="st1" x1="646.18" y1="141.97" x2="674.73" y2="141.97"/>
			<line class="st1" x1="646.18" y1="149.39" x2="674.73" y2="149.39"/>
			<line class="st1" x1="612.99" y1="156.8" x2="674.73" y2="156.8"/>
		</g>
		<g>
			<path class="st5" d="M87.87,550.13V516.9c0-0.84,0.68-1.52,1.52-1.52h70.81c0.84,0,1.52,0.68,1.52,1.52v33.23
				c0,0.84-0.68,1.52-1.52,1.52H89.4C88.56,551.66,87.87,550.97,87.87,550.13z"/>
			<path class="st2" d="M161.73,518.62c0-1.79-1.45-3.24-3.24-3.24H91.11c-1.79,0-3.24,1.45-3.24,3.24v2.37h73.74L161.73,518.62z"/>
			<path class="st2" d="M111.12,541.28H94.37c-0.51,0-0.92-0.41-0.92-0.92v-14.42c0-0.51,0.41-0.92,0.92-0.92h16.75
				c0.51,0,0.92,0.41,0.92,0.92v14.42C112.04,540.87,111.63,541.28,111.12,541.28z"/>
			<line class="st1" x1="115.52" y1="526.17" x2="156.84" y2="526.17"/>
			<line class="st1" x1="115.52" y1="530.91" x2="156.84" y2="530.91"/>
			<line class="st1" x1="115.52" y1="536.16" x2="156.84" y2="536.16"/>
			<line class="st1" x1="115.52" y1="540.9" x2="156.84" y2="540.9"/>
			<line class="st1" x1="94.3" y1="545.64" x2="156.84" y2="545.64"/>
		</g>
		<g>
			<path class="st5" d="M76.05,119.24V84.41c0-0.88,0.71-1.6,1.6-1.6h50.03c0.88,0,1.6,0.71,1.6,1.6v34.84c0,0.88-0.71,1.6-1.6,1.6
				H77.64C76.76,120.84,76.05,120.12,76.05,119.24z"/>
			<path class="st2" d="M129.27,86.2c0-1.87-1.52-3.39-3.39-3.39H79.44c-1.87,0-3.39,1.52-3.39,3.39v2.48h53.11L129.27,86.2z"/>
			<path class="st2" d="M100.42,109.96H82.85c-0.54,0-0.97-0.43-0.97-0.97V93.87c0-0.54,0.43-0.97,0.97-0.97h17.56
				c0.54,0,0.97,0.43,0.97,0.97v15.12C101.38,109.53,100.95,109.96,100.42,109.96z"/>
			<line class="st1" x1="105.02" y1="94.13" x2="124.15" y2="94.13"/>
			<line class="st1" x1="105.02" y1="99.1" x2="124.15" y2="99.1"/>
			<line class="st1" x1="105.02" y1="104.6" x2="124.15" y2="104.6"/>
			<line class="st1" x1="105.02" y1="109.57" x2="124.15" y2="109.57"/>
			<line class="st1" x1="82.78" y1="114.53" x2="124.15" y2="114.53"/>
		</g>
		<circle class="st6" cx="566.77" cy="79.78" r="2.77"/>
		<circle class="st6" cx="22.94" cy="422.4" r="2.77"/>
		<circle class="st6" cx="909.58" cy="749.14" r="2.77"/>
		<circle class="st6" cx="528.21" cy="624.12" r="2.77"/>
		<circle class="st6" cx="704.95" cy="18.99" r="2.77"/>
		<circle class="st6" cx="-68.03" cy="584.18" r="2.77"/>
		<circle class="st6" cx="319.89" cy="176.21" r="2.77"/>
		<circle class="st6" cx="1017.39" cy="201.9" r="2.77"/>
		<circle class="st6" cx="1037.33" cy="447.86" r="2.77"/>
		<g>
			<line class="st18" x1="1021.22" y1="12.9" x2="1021.22" y2="0"/>
			<line class="st18" x1="1014.77" y1="6.45" x2="1027.67" y2="6.45"/>
		</g>
		<g>
			<line class="st18" x1="126.3" y1="290.14" x2="126.3" y2="277.25"/>
			<line class="st18" x1="119.85" y1="283.69" x2="132.75" y2="283.69"/>
		</g>
		<g>
			<line class="st18" x1="6.45" y1="84.94" x2="6.45" y2="72.04"/>
			<line class="st18" x1="0" y1="78.49" x2="12.9" y2="78.49"/>
		</g>
		<g>
			<circle class="st19" cx="247.86" cy="702.37" r="12.02"/>
			<line class="st19" x1="255.84" y1="713.1" x2="266.16" y2="726.32"/>
		</g>
		<path class="st17" d="M566.92,732.59c-7.14-7.14-26.5-1.02-25.48,12.23"/>
		<line class="st4" x1="1070.45" y1="529.74" x2="1082.39" y2="529.74"/>
		<line class="st4" x1="755.22" y1="639.25" x2="767.15" y2="639.25"/>
		<line class="st4" x1="169.03" y1="175.72" x2="180.96" y2="175.72"/>
		<line class="st4" x1="1008.17" y1="308.1" x2="1020.1" y2="308.1"/>
		<line class="st1" x1="943.67" y1="93.63" x2="963.35" y2="93.63"/>
		<line class="st1" x1="68.78" y1="201.81" x2="68.78" y2="212.86"/>
		<line class="st1" x1="20.76" y1="657.27" x2="20.76" y2="668.32"/>
		<line class="st1" x1="796.08" y1="693.85" x2="815.76" y2="693.85"/>
		<path class="st6" d="M156.97,680.03"/>
		<line class="st18" x1="902.23" y1="192.3" x2="902.23" y2="184.4"/>
		<line class="st18" x1="919.03" y1="206.14" x2="927.93" y2="206.14"/>
		<line class="st18" x1="913.1" y1="197.24" x2="921.01" y2="189.34"/>
		<g>
			<g>
				<path class="st18" d="M898.14,63.74c0,13.98-11.33,25.31-25.31,25.31s-25.31-11.33-25.31-25.31s11.33-25.31,25.31-25.31v25.31
					H898.14z"/>
				<path class="st2" d="M906.81,55.36c0-13.98-11.33-25.31-25.31-25.31v25.31C881.5,55.36,906.81,56.03,906.81,55.36z"/>
			</g>
			<polyline class="st1" points="864.2,74.83 846.09,92.94 811.99,92.94 			"/>
			<path class="st2" d="M948.46,28.69h-14.27c-0.5,0-0.9-0.4-0.9-0.9V16.12c0-0.5,0.4-0.9,0.9-0.9h14.27c0.5,0,0.9,0.4,0.9,0.9
				v11.66C949.36,28.29,948.96,28.69,948.46,28.69z"/>
			<path class="st2" d="M804.88,99.53h-14.27c-0.5,0-0.9-0.4-0.9-0.9V86.96c0-0.5,0.4-0.9,0.9-0.9h14.27c0.5,0,0.9,0.4,0.9,0.9
				v11.66C805.78,99.13,805.38,99.53,804.88,99.53z"/>
			<polyline class="st1" points="906.88,32.67 916.77,22.78 926.67,22.78 			"/>
		</g>
		<g>
			<path class="st5" d="M943.45,459.1h-43.26c-4.82,0-8.73-3.91-8.73-8.73v-44.11c0-4.82,3.91-8.73,8.73-8.73h37.45
				c0,0,0,5.79,0,6.74c0,15.02,0,33.36,0,48.38C937.64,458.71,943.45,459.1,943.45,459.1z"/>
			<path class="st5" d="M937.64,452.64c0,6.07,5.81,6.46,5.81,6.46s6.07,0.66,6.07-6.46h-7.74
				C941.78,452.64,937.64,452.43,937.64,452.64z"/>
			<line class="st1" x1="898.58" y1="449" x2="929.06" y2="449"/>
			<line class="st1" x1="898.58" y1="442.14" x2="929.06" y2="442.14"/>
			<line class="st1" x1="898.58" y1="424.65" x2="929.06" y2="424.65"/>
			<line class="st1" x1="898.58" y1="417.8" x2="929.06" y2="417.8"/>
			<line class="st1" x1="898.58" y1="433.4" x2="929.06" y2="433.4"/>
			<path class="st2" d="M928.53,410.51h-18.75c-0.72,0-1.31-0.59-1.31-1.31v-2.95c0-0.72,0.59-1.31,1.31-1.31h18.75
				c0.72,0,1.31,0.59,1.31,1.31v2.95C929.84,409.93,929.26,410.51,928.53,410.51z"/>
		</g>
		<g>
			<circle class="st18" cx="936.83" cy="429.1" r="6.53"/>
			<line class="st15" x1="941.17" y1="434.92" x2="946.77" y2="442.11"/>
		</g>
		<path class="st17" d="M717.23,748.69c2.26-11.28,18.1-27.25,37.22-21.43c25.94,7.89,18.04,34.96,18.04,34.96"/>
		<path class="st17" d="M757.83,771.25c0,0,12.41-15.79,28.19-12.41"/>
		<g>
			<line class="st18" x1="694.7" y1="686.15" x2="694.7" y2="673.26"/>
			<line class="st18" x1="688.25" y1="679.7" x2="701.14" y2="679.7"/>
		</g>
		<path class="st15" d="M469.69,45.26c0,0,22.68,16.27,39.44,35.99"/>
		<path class="st15" d="M516.52,91.11c0,0,10.85,12.32,16.27,19.23"/>
		<g>
			<circle class="st20" cx="380.11" cy="123.5" r="30.63"/>
			<g>
				<path class="st4" d="M378.55,137.32l9.97-3.53c0.71-0.25,1.11-1,0.9-1.73c-0.38-1.34-0.69-3.71,0.37-6.83
					c2.1-6.16,2.27-13.72-2.9-17.76c-8.41-6.57-22.67-0.53-21.68,12.02c0.63,7.96,7.57,10.77,8.7,11.44
					C376.67,132.57,378.55,137.32,378.55,137.32z"/>
				<path class="st4" d="M380.93,135.71l-4.51-12.5l1.04,0.26c1.53,0.39,3.14-0.12,4.17-1.31l0.83-0.96l4.48,12.43"/>
				<path class="st4" d="M378.55,137.32l1.31,3.84c0.48,1.42,2.6,1.95,4.71,1.19l3.81-1.37c2.09-0.75,3.38-2.5,2.88-3.9l-1.37-3.8
					L378.55,137.32z"/>
			</g>
		</g>
		<g>
			<circle class="st12" cx="648.67" cy="267.73" r="30.63"/>
			<g>
				<path class="st21" d="M648.56,282.71l9.97-3.53c0.71-0.25,1.11-1,0.9-1.73c-0.38-1.34-0.69-3.71,0.37-6.83
					c2.1-6.16,2.27-13.72-2.9-17.76c-8.41-6.57-22.67-0.53-21.68,12.02c0.63,7.96,7.57,10.77,8.7,11.44
					C646.69,277.95,648.56,282.71,648.56,282.71z"/>
				<path class="st21" d="M650.94,281.1l-4.51-12.5l1.04,0.26c1.53,0.39,3.14-0.12,4.17-1.31l0.83-0.96l4.48,12.43"/>
				<path class="st21" d="M648.56,282.71l1.31,3.84c0.48,1.42,2.6,1.95,4.71,1.19l3.81-1.37c2.09-0.75,3.38-2.5,2.88-3.9l-1.37-3.8
					L648.56,282.71z"/>
			</g>
		</g>
		<path class="st17" d="M602.74,794.75c0,0,3.39-18.09,22.61-22.61s35.04,22.61,35.04,22.61"/>
		<path class="st5" d="M261.22,129.15H237.2c-1.8,0-3.26-1.46-3.26-3.26v-24.02c0-1.8,1.46-3.26,3.26-3.26h4.86
			c0,0-1.68,10.38,6.99,10.38c7.27,0,5.87-10.38,5.87-10.38h6.31c1.8,0,3.26,1.46,3.26,3.26v6.56c0,0,9.72-1.68,9.72,6.43
			c0,7.27-9.72,6.71-9.72,6.71v4.32C264.48,127.69,263.02,129.15,261.22,129.15z"/>
		<path class="st5" d="M428.36,794.91h-24.02c-1.8,0-3.26-1.46-3.26-3.26v-24.02c0-1.8,1.46-3.26,3.26-3.26h4.86
			c0,0-1.68,10.38,6.99,10.38c7.27,0,5.87-10.38,5.87-10.38h6.31c1.8,0,3.26,1.46,3.26,3.26v6.56c0,0,9.72-1.68,9.72,6.43
			c0,7.27-9.72,6.71-9.72,6.71v4.32C431.62,793.46,430.16,794.91,428.36,794.91z"/>
		<path class="st5" d="M1017.13,623.2h24.02c1.8,0,3.26,1.46,3.26,3.26v24.02c0,1.8-1.46,3.26-3.26,3.26h-4.86
			c0,0,1.68-10.38-6.99-10.38c-7.27,0-5.87,10.38-5.87,10.38h-6.31c-1.8,0-3.26-1.46-3.26-3.26v-6.56c0,0-9.72,1.68-9.72-6.43
			c0-7.27,9.72-6.71,9.72-6.71v-4.32C1013.87,624.66,1015.33,623.2,1017.13,623.2z"/>
		<g>
			<path class="st6" d="M759.1,147.02l3.68-0.06c0.42-0.01,0.76-0.36,0.76-0.78l-0.08-5.34c-0.01-0.42-0.36-0.76-0.78-0.76
				l-3.8,0.06c-0.46-1.74-1.22-3.35-2.21-4.79l2.71-2.85c0.29-0.31,0.28-0.79-0.03-1.09l-3.87-3.68c-0.31-0.29-0.79-0.28-1.09,0.03
				l-2.81,2.96c-1.33-0.75-2.78-1.31-4.31-1.64v-4.16c0-0.42-0.34-0.77-0.77-0.77h-5.34c-0.42,0-0.77,0.34-0.77,0.77v4.26
				c-1.71,0.42-3.31,1.13-4.74,2.07l-3.16-3.03c-0.31-0.29-0.79-0.28-1.09,0.02l-3.7,3.85c-0.29,0.31-0.28,0.79,0.02,1.09l3.16,3.03
				c-0.8,1.34-1.41,2.82-1.77,4.39l-4.33,0.07c-0.42,0.01-0.76,0.36-0.76,0.78l0.08,5.34c0.01,0.42,0.36,0.76,0.78,0.76l4.21-0.07
				c0.39,1.73,1.08,3.35,2,4.8l-2.81,2.96c-0.29,0.31-0.28,0.79,0.03,1.09l3.87,3.68c0.31,0.29,0.79,0.28,1.09-0.03l2.71-2.85
				c1.35,0.83,2.83,1.47,4.41,1.85v3.84c0,0.42,0.34,0.77,0.77,0.77h5.34c0.42,0,0.77-0.34,0.77-0.77v-3.74
				c1.88-0.4,3.64-1.15,5.2-2.18l2.62,2.51c0.31,0.29,0.79,0.28,1.09-0.02l3.7-3.85c0.29-0.31,0.28-0.79-0.02-1.09l-2.62-2.51
				C758.11,150.45,758.75,148.79,759.1,147.02z M752.94,147.84c-0.92,2.18-2.62,3.95-4.76,4.97c-0.3,0.14-0.61,0.27-0.92,0.38
				c-1.01,0.36-2.09,0.55-3.22,0.55c-1.3,0-2.53-0.26-3.66-0.72c-0.12-0.05-0.24-0.1-0.36-0.16c-2.15-0.99-3.87-2.74-4.82-4.9
				c-0.08-0.18-0.16-0.37-0.23-0.56c-0.38-1.03-0.58-2.15-0.58-3.31c0-1.26,0.24-2.46,0.68-3.57c0.03-0.07,0.05-0.13,0.08-0.2
				c0.92-2.18,2.63-3.95,4.76-4.96c0.15-0.07,0.31-0.14,0.47-0.21c1.13-0.46,2.36-0.72,3.66-0.72c1.13,0,2.21,0.2,3.22,0.55
				c0.07,0.02,0.13,0.05,0.2,0.07c2.22,0.84,4.05,2.48,5.14,4.57c0.1,0.2,0.2,0.41,0.29,0.61c0.51,1.18,0.8,2.48,0.8,3.84
				c0,1.06-0.17,2.07-0.49,3.03C753.13,147.36,753.04,147.6,752.94,147.84z"/>
		</g>
		<g>
			<path class="st6" d="M128.5,621.71l3.68-0.06c0.42-0.01,0.76-0.36,0.76-0.78l-0.08-5.34c-0.01-0.42-0.36-0.76-0.78-0.76
				l-3.8,0.06c-0.46-1.74-1.22-3.35-2.21-4.79l2.71-2.85c0.29-0.31,0.28-0.79-0.03-1.09l-3.87-3.68c-0.31-0.29-0.79-0.28-1.09,0.03
				l-2.81,2.96c-1.33-0.75-2.78-1.31-4.31-1.64v-4.16c0-0.42-0.34-0.77-0.77-0.77h-5.34c-0.42,0-0.77,0.34-0.77,0.77v4.26
				c-1.71,0.42-3.31,1.13-4.74,2.07l-3.16-3.03c-0.31-0.29-0.79-0.28-1.09,0.02l-3.69,3.85c-0.29,0.31-0.28,0.79,0.02,1.09
				l3.16,3.03c-0.8,1.34-1.41,2.82-1.77,4.39l-4.33,0.07c-0.42,0.01-0.76,0.36-0.76,0.78l0.08,5.34c0.01,0.42,0.36,0.76,0.78,0.76
				l4.21-0.07c0.39,1.73,1.08,3.35,2,4.8l-2.81,2.96c-0.29,0.31-0.28,0.79,0.03,1.09l3.87,3.68c0.31,0.29,0.79,0.28,1.09-0.03
				l2.71-2.85c1.35,0.83,2.83,1.47,4.41,1.85v3.84c0,0.42,0.34,0.77,0.77,0.77h5.34c0.42,0,0.77-0.34,0.77-0.77v-3.74
				c1.88-0.4,3.64-1.15,5.2-2.18l2.62,2.51c0.31,0.29,0.79,0.28,1.09-0.02l3.69-3.85c0.29-0.31,0.28-0.79-0.02-1.09l-2.62-2.51
				C127.52,625.13,128.16,623.48,128.5,621.71z M122.34,622.53c-0.92,2.18-2.62,3.95-4.76,4.97c-0.3,0.14-0.61,0.27-0.92,0.38
				c-1.01,0.36-2.09,0.55-3.22,0.55c-1.3,0-2.53-0.26-3.66-0.72c-0.12-0.05-0.24-0.1-0.36-0.16c-2.15-0.99-3.87-2.74-4.82-4.9
				c-0.08-0.18-0.16-0.37-0.23-0.56c-0.38-1.03-0.58-2.15-0.58-3.31c0-1.26,0.24-2.46,0.68-3.57c0.03-0.07,0.05-0.13,0.08-0.2
				c0.92-2.18,2.63-3.95,4.76-4.96c0.15-0.07,0.31-0.14,0.47-0.21c1.13-0.46,2.36-0.72,3.66-0.72c1.13,0,2.21,0.2,3.22,0.55
				c0.07,0.02,0.13,0.05,0.2,0.07c2.22,0.84,4.05,2.48,5.14,4.57c0.1,0.2,0.2,0.41,0.29,0.61c0.51,1.18,0.8,2.48,0.8,3.84
				c0,1.06-0.17,2.07-0.49,3.03C122.53,622.05,122.44,622.29,122.34,622.53z"/>
		</g>
		<g>
			<path class="st6" d="M455.13,365.87l5.11-0.08c0.59-0.01,1.06-0.49,1.05-1.08l-0.12-7.42c-0.01-0.59-0.49-1.06-1.08-1.05
				l-5.28,0.08c-0.64-2.41-1.69-4.66-3.08-6.65l3.77-3.97c0.41-0.43,0.39-1.1-0.04-1.51l-5.38-5.11c-0.43-0.41-1.1-0.39-1.51,0.04
				l-3.9,4.11c-1.85-1.04-3.86-1.82-6-2.27v-5.79c0-0.59-0.48-1.07-1.07-1.07h-7.42c-0.59,0-1.07,0.48-1.07,1.07v5.93
				c-2.38,0.58-4.6,1.57-6.6,2.87l-4.4-4.21c-0.43-0.41-1.1-0.39-1.51,0.03l-5.14,5.36c-0.41,0.43-0.39,1.1,0.03,1.51l4.39,4.21
				c-1.12,1.87-1.96,3.92-2.46,6.1l-6.02,0.09c-0.59,0.01-1.06,0.49-1.05,1.08l0.12,7.42c0.01,0.59,0.49,1.06,1.08,1.05l5.85-0.09
				c0.54,2.4,1.49,4.65,2.78,6.67l-3.9,4.11c-0.41,0.43-0.39,1.1,0.04,1.51l5.38,5.11c0.43,0.41,1.1,0.39,1.51-0.04l3.77-3.96
				c1.87,1.16,3.93,2.04,6.13,2.58v5.34c0,0.59,0.48,1.07,1.07,1.07h7.42c0.59,0,1.07-0.48,1.07-1.07v-5.2
				c2.62-0.56,5.06-1.6,7.23-3.02l3.64,3.49c0.43,0.41,1.1,0.39,1.51-0.03l5.14-5.36c0.41-0.43,0.39-1.1-0.03-1.51l-3.64-3.49
				C453.76,370.63,454.65,368.32,455.13,365.87z M446.57,367c-1.28,3.03-3.65,5.49-6.61,6.9c-0.42,0.2-0.84,0.37-1.28,0.53
				c-1.4,0.49-2.9,0.77-4.47,0.77c-1.8,0-3.52-0.36-5.09-1c-0.17-0.07-0.33-0.14-0.5-0.22c-2.99-1.37-5.38-3.8-6.71-6.82
				c-0.11-0.26-0.22-0.52-0.32-0.78c-0.52-1.43-0.81-2.98-0.81-4.6c0-1.75,0.34-3.43,0.95-4.96c0.04-0.09,0.07-0.18,0.11-0.27
				c1.29-3.03,3.65-5.49,6.62-6.89c0.21-0.1,0.43-0.2,0.65-0.29c1.57-0.64,3.29-1,5.09-1c1.57,0,3.07,0.27,4.47,0.77
				c0.09,0.03,0.18,0.07,0.27,0.1c3.09,1.17,5.63,3.45,7.15,6.35c0.15,0.28,0.28,0.56,0.41,0.85c0.71,1.64,1.11,3.44,1.11,5.34
				c0,1.47-0.24,2.88-0.68,4.21C446.83,366.34,446.71,366.67,446.57,367z"/>
		</g>
	</g>
</g>
</svg>
