<svg xmlns="http://www.w3.org/2000/svg" xmlns:xlink="http://www.w3.org/1999/xlink" width="920" height="415" viewBox="0 0 920 415">
  <defs>
    <clipPath id="clip-Featured_image_920x415_6_best_backend_frameworks_for_web_app_development">
      <rect width="920" height="415"/>
    </clipPath>
  </defs>
  <g id="Featured_image_920x415_6_best_backend_frameworks_for_web_app_development" data-name="Featured image – 920x415_6 best backend frameworks for web app development" clip-path="url(#clip-Featured_image_920x415_6_best_backend_frameworks_for_web_app_development)">
    <rect width="920" height="415" fill="#fff"/>
    <g id="Group_26254" data-name="Group 26254" transform="translate(-0.393 3)">
      <g id="Group_26071" data-name="Group 26071">
        <rect id="Rectangle_4391" data-name="Rectangle 4391" width="631.214" height="0.443" transform="translate(144.393 329.869)" fill="#1d1d1b"/>
      </g>
    </g>
    <g id="Group_26342" data-name="Group 26342" transform="translate(6)">
      <g id="Group_26339" data-name="Group 26339" transform="translate(14)">
        <g id="Group_26333" data-name="Group 26333" transform="translate(216.833 42.374)">
          <g id="Group_26091" data-name="Group 26091" transform="translate(0 0)">
            <g id="Group_26089" data-name="Group 26089" transform="translate(0 0)">
              <path id="Path_12326" data-name="Path 12326" d="M361.216,0H0V181.285H361.216Z" transform="translate(0 0)" fill="#fff" stroke="#e4e4e4" stroke-width="5"/>
              <rect id="Rectangle_6917" data-name="Rectangle 6917" width="18.879" height="18.879" transform="translate(317.771 168.739)" fill="#c5d6fa"/>
              <rect id="Rectangle_6918" data-name="Rectangle 6918" width="18.879" height="18.879" transform="translate(283.472 168.739)" fill="#74e4c8"/>
              <rect id="Rectangle_6919" data-name="Rectangle 6919" width="0.506" height="87.82" transform="translate(369.593 135.352)" fill="#1d1d1b"/>
            </g>
            <rect id="Rectangle_6894" data-name="Rectangle 6894" width="22.867" height="22.867" transform="translate(205.019 61.061)" fill="#c4f3e7"/>
            <rect id="Rectangle_6937" data-name="Rectangle 6937" width="22.867" height="22.867" transform="translate(271.465 129.881)" fill="#e4e4e4"/>
            <rect id="Rectangle_6925" data-name="Rectangle 6925" width="22.867" height="22.867" transform="translate(205.019 99.318)" fill="#3f77ee"/>
            <rect id="Rectangle_6926" data-name="Rectangle 6926" width="22.867" height="22.867" transform="translate(171.796 99.318)" fill="#e4e4e4"/>
            <rect id="Rectangle_6929" data-name="Rectangle 6929" width="22.867" height="22.867" transform="translate(138.573 137.576)" fill="#e4e4e4"/>
            <rect id="Rectangle_6936" data-name="Rectangle 6936" width="22.867" height="22.867" transform="translate(304.688 91.623)" fill="#e4e4e4"/>
            <rect id="Rectangle_7417" data-name="Rectangle 7417" width="56.09" height="61.124" transform="translate(21.367 107.014)" fill="#c4f3e7"/>
            <rect id="Rectangle_6933" data-name="Rectangle 6933" width="22.867" height="22.867" transform="translate(304.687 53.366)" fill="#e4e4e4"/>
            <rect id="Rectangle_6934" data-name="Rectangle 6934" width="22.867" height="22.867" transform="translate(271.464 53.366)" fill="#e4e4e4"/>
            <rect id="Rectangle_6943" data-name="Rectangle 6943" width="22.867" height="22.867" transform="translate(205.019 22.804)" fill="#e4e4e4"/>
            <rect id="Rectangle_7490" data-name="Rectangle 7490" width="51.867" height="22.867" transform="translate(18.796 22.804)" fill="#e4e4e4"/>
          </g>
          <g id="Group_26092" data-name="Group 26092" transform="translate(26.021 -228.364)">
            <path id="Path_12328" data-name="Path 12328" d="M93.379,58.462V119.7h94.38V58.462H93.322M92.24,57.38h96.616v63.449H92.24V57.38Z" transform="translate(-88.03 -45.412)" fill="#e5e5e5"/>
            <rect id="Rectangle_6945" data-name="Rectangle 6945" width="15.069" height="15.069" transform="translate(13.987 49.577)" fill="#39d8b0"/>
            <rect id="Rectangle_6946" data-name="Rectangle 6946" width="15.069" height="15.069" transform="translate(40.333 49.577)" fill="#74e4c8"/>
            <rect id="Rectangle_6947" data-name="Rectangle 6947" width="53.629" height="2.61" transform="translate(12.401 35.864)" fill="#e5e5e5"/>
            <rect id="Rectangle_6948" data-name="Rectangle 6948" width="53.629" height="2.61" transform="translate(12.401 28.998)" fill="#e5e5e5"/>
            <rect id="Rectangle_6949" data-name="Rectangle 6949" width="53.629" height="2.61" transform="translate(12.401 22.149)" fill="#e5e5e5"/>
            <path id="Path_12342" data-name="Path 12342" d="M149.09,111h18.847v-.361H149.451V92.15h-.361Z" transform="translate(-149.09 -30.041)" fill="#1d1d1b"/>
            <path id="Path_12343" data-name="Path 12343" d="M107.162,67.927h.361V49.08H88.69v.361h18.472Z" transform="translate(-1.578 -49.08)" fill="#1d1d1b"/>
            <rect id="Rectangle_6950" data-name="Rectangle 6950" width="96.601" height="7.7" transform="translate(4.268 5.883)" fill="#3f77ee"/>
            <rect id="Rectangle_6951" data-name="Rectangle 6951" width="25.293" height="44.126" transform="translate(69.837 22.149)" fill="#e5e5e5"/>
          </g>
          <path id="Path_13473" data-name="Path 13473" d="M-18620.014-5440.8h-13.455v-43.989h-13.244" transform="translate(18884.074 5552.382)" fill="none" stroke="#1d1d1b" stroke-width="0.5"/>
          <path id="Path_13474" data-name="Path 13474" d="M38.779,43.989H13.244V0H0" transform="translate(84.556 141.036) rotate(-90)" fill="none" stroke="#1d1d1b" stroke-width="0.5"/>
        </g>
        <g id="Group_26335" data-name="Group 26335" transform="translate(253.888 75.5)">
          <rect id="Rectangle_7480" data-name="Rectangle 7480" width="56.5" height="62.15" transform="translate(233.112 57.35)" fill="#e5e5e5"/>
          <rect id="Rectangle_7481" data-name="Rectangle 7481" width="49.354" height="0.311" transform="translate(236.543 62.843)" fill="#1d1d1b"/>
          <rect id="Rectangle_7482" data-name="Rectangle 7482" width="49.354" height="0.311" transform="translate(236.543 71.268)" fill="#1d1d1b"/>
          <rect id="Rectangle_7483" data-name="Rectangle 7483" width="49.354" height="0.311" transform="translate(236.543 78.791)" fill="#1d1d1b"/>
          <rect id="Rectangle_7484" data-name="Rectangle 7484" width="49.354" height="0.311" transform="translate(236.543 82.541)" fill="#1d1d1b"/>
          <rect id="Rectangle_7485" data-name="Rectangle 7485" width="49.354" height="0.311" transform="translate(236.543 86.291)" fill="#1d1d1b"/>
          <rect id="Rectangle_7486" data-name="Rectangle 7486" width="49.354" height="0.311" transform="translate(236.543 90.041)" fill="#1d1d1b"/>
          <rect id="Rectangle_7487" data-name="Rectangle 7487" width="49.354" height="0.311" transform="translate(236.543 93.814)" fill="#1d1d1b"/>
          <rect id="Rectangle_7488" data-name="Rectangle 7488" width="49.354" height="0.311" transform="translate(236.543 97.564)" fill="#1d1d1b"/>
          <rect id="Rectangle_7489" data-name="Rectangle 7489" width="49.354" height="0.311" transform="translate(236.543 101.314)" fill="#1d1d1b"/>
        </g>
        <g id="Group_26334" data-name="Group 26334" transform="translate(161.971 77.011)">
          <g id="Group_25766" data-name="Group 25766" transform="translate(0 0)">
            <rect id="Rectangle_4343" data-name="Rectangle 4343" width="82.405" height="155.362" transform="translate(14.928 154.893)" fill="#e5e5e5"/>
            <path id="Path_7624" data-name="Path 7624" d="M1470.65,751.679h84.622V594.1H1470.65Zm82.405-2.21h-80.188V596.317h80.188Z" transform="translate(-1456.831 -440.316)" fill="#e5e5e5"/>
            <rect id="Rectangle_4353" data-name="Rectangle 4353" width="17.226" height="17.226" transform="translate(37.595 67.125)" fill="#222837"/>
            <rect id="Rectangle_4354" data-name="Rectangle 4354" width="17.226" height="17.226" transform="translate(60.807 67.125)" fill="#e5e5e5"/>
            <rect id="Rectangle_4355" data-name="Rectangle 4355" width="17.226" height="17.226" transform="translate(40.46 118.245)" fill="#e5e5e5"/>
            <rect id="Rectangle_4356" data-name="Rectangle 4356" width="17.226" height="17.226" transform="translate(60.807 91.84)" fill="#e5e5e5"/>
            <path id="Path_7626" data-name="Path 7626" d="M1273.939,754.973c-3.057-.052-10.118-6.807-10.118-6.807l-9.09-13.676,5.952-7.621,8.84,14.365c2.21,2.626,8.2,3.635,11.624,3.683l6.155.107C1288.506,745.062,1272.779,754.763,1273.939,754.973Z" transform="translate(-1109.398 -524.184)" fill="#fbd2bd"/>
            <path id="Path_7627" data-name="Path 7627" d="M1239.15,786.429l-3.889-7.271-2.6-3.9c2.066-.284,6.309,3.856,10,3.046,1.934-.424,2.972-5.716,5.072-6.162a129.923,129.923,0,0,1,14-2.372h.1a3.163,3.163,0,0,1,.652,5.978Z" transform="translate(-1078.241 -551.283)" fill="#3f77ee"/>
            <path id="Path_7633" data-name="Path 7633" d="M1323.035,538.338l28.291,11.554,30.066,7.433.074.018.486.122,6.512,1.61,36.007,44.913,7.326-8.567v-.1c-4.821-8.3-28.151-60.939-35.871-64.847-8.725-4.42-26.247-17.028-37.705-22.652-3.735-3.919-6.8-6.98-8.081-8.471l-38.015-1.311a114.54,114.54,0,0,0-5.318,10.287,21.363,21.363,0,0,0,16.228,30.011Z" transform="translate(-1272.295 -379.637)" fill="#383d4b"/>
            <path id="Path_7649" data-name="Path 7649" d="M1552.508,267.768a18.634,18.634,0,0,0,3.683,2.88c3.79,2.262,7.912,2.969,11.05,2.147.044-3.683.486-7.134.155-7.952-.84-2.085-14.958-10.792-14.936-7.889C1552.442,258.726,1552.53,263.271,1552.508,267.768Z" transform="translate(-1499.208 -226.978)" fill="#e2a191"/>
            <path id="Path_7650" data-name="Path 7650" d="M1546.4,333.762c11.945-1.473,12.854-30.644,12.854-30.644l-6.538-3.145s-2.549-3.5-2.637-5.252c-.044-.773-.044-1.573-.022-2.372-5.922,1.691-13.672-3.963-14.733-5.028,0,5.23-.132,10.368-.641,11.1l-6.136,1.683C1526.952,302.075,1532.712,335.471,1546.4,333.762Z" transform="translate(-1482.045 -246.53)" fill="#fbd2bd"/>
            <path id="Path_7651" data-name="Path 7651" d="M1537.771,217.876s11.127,13.179,11.558,13.554a18.307,18.307,0,0,0,9.363,3.348c4.63.269,6.328-.512,8.354-4.011,2.946-5.109,3.539-8.376,1.422-14.586-.427-1.245-1.974-10.169-2.578-11.554-1.528-3.543-7.635-.9-8.4-2.527C1556.305,199.577,1537.771,217.876,1537.771,217.876Z" transform="translate(-1496.011 -192.548)" fill="#fbd2bd"/>
            <ellipse id="Ellipse_344" data-name="Ellipse 344" cx="0.711" cy="0.711" rx="0.711" ry="0.711" transform="translate(68.42 23.626)" fill="#1d1e1c"/>
            <ellipse id="Ellipse_345" data-name="Ellipse 345" cx="0.711" cy="0.711" rx="0.711" ry="0.711" transform="translate(60.523 25.777)" fill="#1d1e1c"/>
            <path id="Path_7652" data-name="Path 7652" d="M1554.808,240.148a10.648,10.648,0,0,0,1.425,3.886c.328.626.663,1.249.947,1.893a2.655,2.655,0,0,1,.324,1.945c-.276.792-1.1.961-1.842,1.017-.471.033-.471-.7,0-.737s1.131-.1,1.179-.7a3.444,3.444,0,0,0-.542-1.672c-.564-1.168-1.238-2.28-1.713-3.492a7.788,7.788,0,0,1-.519-2.136.368.368,0,0,1,.737,0Z" transform="translate(-1489.872 -216.5)" fill="#e2a191"/>
            <path id="Path_7653" data-name="Path 7653" d="M1545.853,220.505c.272-.42,8.641-7.2,9.23-8.582.737-1.716,2.519-2.383,1.842-4.052a.53.53,0,0,1,.1-.534,1,1,0,0,1,.313-.674,1.135,1.135,0,0,1,1.569.041c.32.265.46.368.807.656l.052.04c.132.055.269.1.405.147s.317.088.475.125l.254.052h.063c.343.052.689.085,1.039.122a6.861,6.861,0,0,1,4.2,1.473,1.249,1.249,0,0,1,.847.122,1.6,1.6,0,0,1,.7,1.842,1.842,1.842,0,0,1-1.562,1.263,6.894,6.894,0,0,1-3.337-.663,18.5,18.5,0,0,1-4.287-2.659,5.786,5.786,0,0,1-.206,3.853,15.738,15.738,0,0,1-3.278,4.877,12.992,12.992,0,0,1-5.086,3.193,11.082,11.082,0,0,1-3.039.567c-.42.022-.814.092-1.087-.276A.785.785,0,0,1,1545.853,220.505Z" transform="translate(-1497.017 -195.395)" fill="#e2a191"/>
            <path id="Path_7654" data-name="Path 7654" d="M1546.217,204.58a11.208,11.208,0,0,1-.07-2.832c.1-.877,1.156-2.652.98-3.418a15.621,15.621,0,0,1,9.142-8.781c7.469-2.608,20.1-.188,21.731,8.969a1.13,1.13,0,0,1-.022.3,1.046,1.046,0,0,1,.059.737,1.1,1.1,0,0,1-1.377.737,24.383,24.383,0,0,1-8.471-3.893c-.206,3.506-2.623,6.895-5.156,9.234a19,19,0,0,1-8.048,4.494c1.591,3.948,1.142,6.571,3.532,10.1.615.906,1.05,3.565.18,2.921-6.1-4.523-10.681-9.945-12.321-17.679C1546.316,205.169,1546.261,204.874,1546.217,204.58Z" transform="translate(-1507.421 -184.147)" fill="#d85f2a"/>
            <ellipse id="Ellipse_346" data-name="Ellipse 346" cx="3.971" cy="3.061" rx="3.971" ry="3.061" transform="matrix(-0.227, -0.974, 0.974, -0.227, 45.833, 33.86)" fill="#fbd2bd"/>
            <path id="Path_7655" data-name="Path 7655" d="M1590.823,219.222a6.291,6.291,0,0,1-4.685,3.842c-.368.063-.5-.471-.147-.534a5.734,5.734,0,0,0,4.3-3.455C1590.421,218.751,1590.955,218.891,1590.823,219.222Z" transform="translate(-1534.808 -203.305)" fill="#1d1d1b"/>
            <path id="Path_7656" data-name="Path 7656" d="M1499.038,404.5c10.394,2.866,32.25-15.263,32.25-15.263a18.362,18.362,0,0,1,2.552-4.42l29.024,1,1.731-6.586,2.685-4.663c1.764-3.064,5.414-8.276,5.974-11.768l2.376-28.2a10.2,10.2,0,0,0-6.541-11.226c-3.705-1.344-7.149-1.945-7.79-1.724l-14.243,24.556-12.442-27.926-8.472,1.3c-10.313.836-16.449,12.1-16.449,12.1-12.656,15.746-14.365,38.479-17.525,54.611C1488.839,403.219,1499.038,404.5,1499.038,404.5Z" transform="translate(-1485.005 -266.087)" fill="#f8f1eb"/>
            <path id="Path_7657" data-name="Path 7657" d="M1585.879,359.581a46.784,46.784,0,0,1,2.578,6.39c.107.339-.427.486-.534.147a45.5,45.5,0,0,0-2.519-6.262c-.158-.32.32-.6.479-.28Z" transform="translate(-1532.285 -292.084)" fill="#1d1d1b"/>
            <path id="Path_7658" data-name="Path 7658" d="M1592.787,336.764a46.227,46.227,0,0,1,5.411,8.446c.155.32-.32.6-.479.28a45.613,45.613,0,0,0-5.326-8.32c-.221-.273.169-.667.394-.39Z" transform="translate(-1544.603 -277.713)" fill="#1d1d1b"/>
            <path id="Path_7659" data-name="Path 7659" d="M1608.634,528.835c-.107,3.565,1.1,6.965,2.519,10.177.144.32-.332.6-.479.28-1.473-3.315-2.7-6.792-2.578-10.457a.28.28,0,0,1,.556,0Z" transform="translate(-1563.36 -398.933)" fill="#fff"/>
            <path id="Path_7660" data-name="Path 7660" d="M1541.2,478.624c.932.1,8.342-9.462,8.342-9.462.567.652,23.727,3.554,19.175-8.9-.1-.269-1.175-.343-2.556-.446-1.621-.122-17.241.026-21.51,2.91-5.937,4.007-6.836,2.5-8.191,4.464C1536.46,467.2,1533.628,477.825,1541.2,478.624Z" transform="translate(-1494.917 -355.477)" fill="#fbd2bd"/>
            <path id="Path_7661" data-name="Path 7661" d="M1497.844,517.156c1.808,4.18,4.674,6.88,9.576,9.035h.033a2.682,2.682,0,0,0,.247.258q5.226,4.7,10.556,9.289l.494-.368-1.809-1.577-5.952-5.2a37.13,37.13,0,0,1-3.123-2.722c-.777-.873-1.455-2.921-2.044-4.155q-1.381-2.9-2.766-5.808c-.151-.32-.63-.04-.475.28l3.219,6.762c.368.737.641,1.621,1.057,2.383-4.343-2.048-6.84-4.523-8.516-8.394a.272.272,0,0,0-.5.217Z" transform="translate(-1430.319 -390.834)" fill="#fff"/>
            <path id="Path_7662" data-name="Path 7662" d="M1552.224,508.37a73.766,73.766,0,0,1-27.057-.527c-.346-.07-.2-.6.147-.534a72.977,72.977,0,0,0,26.762.527c.346-.059.5.475.147.534Z" transform="translate(-1473.989 -385.488)" fill="#fff"/>
            <path id="Path_7663" data-name="Path 7663" d="M1652.608,468.21c-4.206-1.971-9-.8-13.112.829a59.724,59.724,0,0,0-11.691,6.593c-.295.2-.571-.28-.28-.479a57.935,57.935,0,0,1,12.652-6.965c4.052-1.5,8.637-2.365,12.711-.457C1653.212,467.882,1652.928,468.357,1652.608,468.21Z" transform="translate(-1612.325 -359.799)" fill="#1d1d1b"/>
            <line id="Line_465" data-name="Line 465" y1="15.54" x2="20.435" transform="translate(67.503 144.911)" fill="none"/>
            <line id="Line_466" data-name="Line 466" x2="0.114" y2="2.066" transform="translate(82.217 54.79)" fill="none"/>
            <path id="Path_7675" data-name="Path 7675" d="M1632,211.386a7.851,7.851,0,0,0-.928,3.341,14.153,14.153,0,0,0,1.75,6.854,18.882,18.882,0,0,0,7.679,8.586c3.451,1.827,7.948,1.971,11.1-.328a11.75,11.75,0,0,0,3.819-5.311,18.513,18.513,0,0,0-.88-15.245,7.3,7.3,0,0,0,3.418-10.884,7.548,7.548,0,0,0,4.752-2.556,3.125,3.125,0,0,1,1.407-1.182,24,24,0,0,1,3.683.49c1.009.236,2.019-3.632.818-6.055-3.024-6.092-7.809-7.779-10.516-9.061a17.65,17.65,0,0,0-10.125-1.746c-3.009.482-6.11,2.368-6.711,5.355a7.041,7.041,0,0,0,1.786,5.738,15.179,15.179,0,0,0-9.691,2.379,9.609,9.609,0,0,0-4.224,8.711c.42,3.363,2.91,6.077,5.4,8.383A5.893,5.893,0,0,0,1632,211.386Z" transform="translate(-1629.087 -177.55)" fill="#d85f2a"/>
            <path id="Path_7676" data-name="Path 7676" d="M1659.35,185.346c-4.3-5.624-12.829-10.825-19.889-7.112-3.226,1.7-5.366,5.525-4.081,9.134,1.175,3.315,4.788,4.788,7.926,5.587a.277.277,0,0,1-.147.534c-2.667-.7-5.5-1.775-7.249-4.026a7.373,7.373,0,0,1-.762-7.492c2.715-6.236,10.681-6.365,16.022-3.919a23.03,23.03,0,0,1,8.663,7c.217.284-.265.56-.479.28Z" transform="translate(-1621.785 -176.574)" fill="#1d1d1b"/>
            <path id="Path_7677" data-name="Path 7677" d="M1697.579,252.625c0,5.156-3.956,9.087-8.472,10.954a7.747,7.747,0,0,1-6.538.1,7.079,7.079,0,0,1-3.731-4.652c-.081-.35.453-.5.534-.147a6.541,6.541,0,0,0,3.591,4.376c2.21,1.046,4.615.468,6.74-.545,3.963-1.893,7.33-5.47,7.318-10.085a.28.28,0,0,1,.556,0Z" transform="translate(-1675.815 -224.457)" fill="#1d1d1b"/>
            <path id="Path_7678" data-name="Path 7678" d="M1723.612,290.063a4.11,4.11,0,0,1-3.768.619,10.062,10.062,0,0,1-3.783-2.516c-.261-.243.129-.634.391-.394a9.89,9.89,0,0,0,3.337,2.309,3.648,3.648,0,0,0,3.429-.412C1723.495,289.448,1723.889,289.838,1723.612,290.063Z" transform="translate(-1715.624 -246.768)" fill="#1d1d1b"/>
            <path id="Path_7679" data-name="Path 7679" d="M1363.023,233.464l-8.085,11.024a2.523,2.523,0,0,1-1.809.947,2.423,2.423,0,0,0-1.945,1.175l-18.46,34.869c-1.525,2.88-5.694,4.1-9.7,2.836-7.138-2.254-.8-15.167-.582-15.436,2.324-3.087,16.291-22.25,19.768-27.09a6.5,6.5,0,0,0,1.252-3.683l.044-2.033a5.075,5.075,0,0,1,.7-2.449c1.735-2.947,6.479-11.017,9.547-16.206.46-.777,2.03-.262,1.886.615l-1.337,8.1Z" transform="translate(-1208.961 -202.133)" fill="#fbd2bd"/>
            <path id="Path_7680" data-name="Path 7680" d="M1358,312.882l-.737,2.022a24.011,24.011,0,0,0,4.969,24.829l2.339,2.368a19,19,0,0,0,14.644,5.613l18.973-1.123c15.738-.844,27.046-38.28,27.046-38.28a12.549,12.549,0,0,0,.659-7.819,17.048,17.048,0,0,0-1.16-3.768c-1.083-.976-2.405-.3-9.51-8.018-2.538-2.755-16.751,27.506-19.768,26.563-3.842-1.2-13.429-5.591-22.287-9.1A11.6,11.6,0,0,0,1358,312.882Z" transform="translate(-1285.471 -247.293)" fill="#f8f1eb"/>
            <path id="Path_7715" data-name="Path 7715" d="M1509.326,423.669a42.464,42.464,0,0,1-14.527,24.423c-.273.225-.667-.166-.394-.39a41.99,41.99,0,0,0,14.387-24.18C1508.862,423.175,1509.4,423.323,1509.326,423.669Z" transform="translate(-1419.606 -332.441)" fill="#1d1d1b"/>
            <path id="Path_7717" data-name="Path 7717" d="M1418.236,828.091c-2.578-1.657-5.005-11.12-5.005-11.12l-.508-16.416,9.079-3.315-.059,16.877c.49,3.4,5.05,7.411,7.93,9.267l5.156,3.337C1435.838,827.354,1417.359,827.314,1418.236,828.091Z" transform="translate(-1315.091 -568.635)" fill="#fbd2bd"/>
            <path id="Path_7718" data-name="Path 7718" d="M29.046,3.254l-.531,8.228.147,4.685c-1.908-.851-3.315-6.6-6.888-7.86-1.867-.659-5.525,3.289-7.558,2.578A130.182,130.182,0,0,1,1.079,5.519l-.073-.066A3.161,3.161,0,0,1,3.583.028Z" transform="translate(125.536 266.461) rotate(-172)" fill="#3f77ee"/>
            <path id="Path_7719" data-name="Path 7719" d="M1470.284,584.6l2.07,81.819-13.864,4.324-21.282-89.775C1435.872,578.107,1457.8,555.521,1470.284,584.6Z" transform="translate(-1361.574 -425.037)" fill="#383d4b"/>
            <path id="Path_7720" data-name="Path 7720" d="M1440.23,569.368c3.864,3.352,7.735,6.685,11.591,10.048.888.777,1.783,1.547,2.667,2.331a19.919,19.919,0,0,1,6.431,11.326,48.9,48.9,0,0,1,.423,7.6c0,.493.026.991.037,1.473l.074.018.486.122c-.03-.98-.052-1.959-.077-2.947-.085-3.179-.118-6.291-1.171-9.344a20.526,20.526,0,0,0-5.911-8.729c-1.042-.917-2.092-1.842-3.138-2.74L1440.724,569Z" transform="translate(-1352.293 -424.461)" fill="#fff"/>
            <rect id="Rectangle_4361" data-name="Rectangle 4361" width="7.19" height="3.959" rx="0.89" transform="translate(42.032 11.845) rotate(102.55)" fill="#3f77ee"/>
          </g>
        </g>
        <g id="APPLOVER_ilustration_EXPORT_APPLOVER_ilu-44" transform="translate(294.65 49.84)">
          <path id="Path_13542" data-name="Path 13542" d="M65,47.93H90.79a39.48,39.48,0,0,0-10-24.45L62.52,41.71A13.87,13.87,0,0,1,65,47.93Z" fill="#9cebd7"/>
          <path id="Path_13543" data-name="Path 13543" d="M50.17,36.06V10.3A39.64,39.64,0,0,0,12.53,47.93H38.29A14,14,0,0,1,50.17,36.06Z" fill="#39d8b0"/>
          <path id="Path_13544" data-name="Path 13544" d="M59.81,38.89,78,20.69A39.48,39.48,0,0,0,53.15,10.3V36.06a13.93,13.93,0,0,1,6.66,2.83Z" fill="#9cebd7"/>
          <path id="Path_13545" data-name="Path 13545" d="M38.29,51.84H12.53A39.44,39.44,0,0,0,22.93,76.7L41.12,58.5a13.93,13.93,0,0,1-2.83-6.66Z" fill="#39d8b0"/>
          <path id="Path_13546" data-name="Path 13546" d="M43.94,61.21,25.71,79.44a39.49,39.49,0,0,0,24.46,10V63.71A13.87,13.87,0,0,1,43.94,61.21Z" fill="#c4f3e7"/>
          <path id="Path_13547" data-name="Path 13547" d="M54.07,63.71V89.48A39.65,39.65,0,0,0,91.71,51.84H66A14,14,0,0,1,54.07,63.71Z" fill="#e5e5e5"/>
          <path id="Path_13548" data-name="Path 13548" d="M49,86.84A39.67,39.67,0,1,1,88.69,47.163,39.67,39.67,0,0,1,49,86.84ZM49,7.75A39.42,39.42,0,1,0,88.44,47.177,39.42,39.42,0,0,0,49,7.75Z" fill="#1d1d1b"/>
          <path id="Path_13549" data-name="Path 13549" d="M45.87,12.92l.27,8.37.44,13.37.1,3.09a.13.13,0,0,0,.25,0l-.27-8.37L46.22,16l-.1-3.1a.13.13,0,0,0-.25,0Z" fill="#1d1d1b"/>
          <rect id="Rectangle_7444" data-name="Rectangle 7444" width="17.96" height="0.25" transform="translate(63.96 54.03)" fill="#1d1d1b"/>
        </g>
      </g>
      <g id="Group_26341" data-name="Group 26341" transform="translate(438.9 -55.6)">
        <g id="Group_26340" data-name="Group 26340" transform="translate(94.006 136.599)">
          <g id="APPLOVER_ilustration_EXPORT_APPLOVER_ilu-7" transform="translate(0 0)">
            <path id="Path_11731" data-name="Path 11731" d="M96.721,30.37h0A22.236,22.236,0,0,0,89.356,46.3L88.4,65.048l31.115-.7V37.935Z" transform="translate(-43.717 -27.266)" fill="#1d1d1b"/>
            <path id="Path_11732" data-name="Path 11732" d="M79.29,158.63v18.653l4.479,5.514,11.646-1.075-.139-4.2c-2.21-1.991-7.644-4.638-8.56-7.465l-.557-9.6Z" transform="translate(-1.482 99.802)" fill="#fbd9b2"/>
            <path id="Path_11733" data-name="Path 11733" d="M126.084,183.21c2.508-1.115,5.972-9.2,5.972-9.2L134.7,159.5l-7.6-4.181-2.23,14.99c-.9,2.946-5.474,5.972-8.281,7.167l-5.056,2.269C110.556,180.184,126.96,182.553,126.084,183.21Z" transform="translate(-104.872 96.523)" fill="#fbd9b2"/>
            <path id="Path_11734" data-name="Path 11734" d="M138.581,176.236l.637-7.386.776-4.141c-1.812.5-3.842,5.415-7.186,5.972-1.752.338-4.479-3.663-6.37-3.285a111.187,111.187,0,0,0-12.382,2.986h0a2.827,2.827,0,0,0,1.573,5.156Z" transform="translate(-112.83 105.825)" fill="#383d4b"/>
            <path id="Path_11735" data-name="Path 11735" d="M82.221,174.382,78.5,169.8v-3.6c1.254,0,5.136,4.579,5.972,3.981,5.514-3.484,7.206-1.393,9.954-.159,1.493,1,1.991,1.991,1.573,3.145a3.981,3.981,0,0,1-4.22,2.906l-7.644-.657a2.907,2.907,0,0,1-1.911-1.035Z" transform="translate(-0.63 107.301)" fill="#383d4b"/>
            <path id="Path_11736" data-name="Path 11736" d="M92.9,47.193s2.329,5.614,3.583,6.37a13.477,13.477,0,0,0,9.954,1.991,54.818,54.818,0,0,0,.139-7.147c-.756-1.871-14.811-9.954-14.791-7.366C91.742,42.575,92.917,43.152,92.9,47.193Z" transform="translate(-37.564 -17.195)" fill="#d7aa79"/>
            <path id="Path_11737" data-name="Path 11737" d="M104.07,89.387c10.73-1.334,11.546-27.531,11.546-27.531l-5.972-2.827a14.153,14.153,0,0,1-2.369-4.718c0-.7,0-1.413,0-2.13-5.335,1.513-12.561-7.346-13.5-8.3,0,4.7.159,13.1-.3,13.756l-5.514,1.513C86.592,60.92,91.768,90.92,104.07,89.387Z" transform="translate(-38.525 -13.882)" fill="#fbd9b2"/>
            <path id="Path_11738" data-name="Path 11738" d="M87.71,41.916s5.156,15.707,14.532,19.449a6.271,6.271,0,0,0,8.441-2.19c3.026-3.981,3.524-6.43,4.22-12.462,0-.816.119-4.9.179-7.8V36.024c-.338-1.752-1.991-2.309-3.743-2.628s-2.906-.5-3.066-1.234C107.677,29.713,87.71,41.916,87.71,41.916Z" transform="translate(-37.911 -25.813)" fill="#fbd9b2"/>
            <path id="Path_11739" data-name="Path 11739" d="M122.173,92.579c.219.816-4.26,16.861-4.26,16.861.776,0,9.635,17.279-1.772,20.7-.239,0-.876-.657-1.692-1.593s-3.563-14.532-3.782-19.151c-.319-6.43,1.991-17.916,1.194-19.131Z" transform="translate(-90.649 32.077)" fill="#fbd9b2"/>
            <path id="Path_11740" data-name="Path 11740" d="M81.75,123.046l13.3,115.461h11.944V115.083a57.293,57.293,0,0,0-3.782-20.4L95.824,81.4Z" transform="translate(-18.618 23.29)" fill="#383d4b"/>
            <path id="Path_11741" data-name="Path 11741" d="M97.135,114.985a57.491,57.491,0,0,1,5.972-21.161l6.331-13.218h21.9A43.4,43.4,0,0,1,144.016,82.2l-13.935,41.646L95,237.792l-4.419-2.409-3.205-1.772Z" transform="translate(-66.188 22.491)" fill="#383d4b"/>
            <path id="Path_11742" data-name="Path 11742" d="M91.373,39.448a7.963,7.963,0,0,0,1.354,4.459c.159.3.358.617.159.936a1.334,1.334,0,0,1-.677.458,3.105,3.105,0,0,1-1.513.319.5.5,0,0,1-.5-.5c0-.239.219-.537.5-.5a2.409,2.409,0,0,0,1.194-.259h.2v.159c-.159-.338-.338-.677-.518-1.015a9.955,9.955,0,0,1-.816-1.991,5.435,5.435,0,0,1-.139-2.269.5.5,0,0,1,.956.259Z" transform="translate(-20.751 -18.786)" fill="#d7aa79"/>
            <path id="Path_11743" data-name="Path 11743" d="M89.125,44.257q.657.119,1.314.179a18.673,18.673,0,0,0,9.954-1.115,27.093,27.093,0,0,0,9.774-7.445c.2.219,1.991,1.851,2.568,1.851h0a9.613,9.613,0,0,0,0-1.871v-.319a8.759,8.759,0,0,0-1.135-2.986h-.1a1.991,1.991,0,0,0-2.508.438.657.657,0,0,0-.2.279c-1.493,3.145-4.678,4.539-7.824,5.594a21.321,21.321,0,0,1-10.71,1.593C87.672,39.937,86.6,43.779,89.125,44.257Z" transform="translate(-35.564 -25.367)" fill="#d7aa79"/>
            <path id="Path_11744" data-name="Path 11744" d="M77.664,106.536l3.981-.717-1.991,7.764a5.278,5.278,0,0,1-.259,1.075,13.417,13.417,0,0,0,4.18,4.419l.338-.677,3.285-6.549c1.214-2.349,8.64-16.682,10.869-18.115L90.444,80c-.617.717-2.548,18.1-3.185,18.713l-10.431,5.972a1.016,1.016,0,1,0,.836,1.851Z" transform="translate(1.956 21.903)" fill="#fbd9b2"/>
            <path id="Path_11745" data-name="Path 11745" d="M80.911,95.453a10.312,10.312,0,0,0,1.354,4.28,13.418,13.418,0,0,0,4.181,4.419,20.844,20.844,0,0,0,4.738,2.409c.458.179.657-.537.2-.717a19.389,19.389,0,0,1-4.6-2.369,12.1,12.1,0,0,1-4.26-4.818,9.416,9.416,0,0,1-.856-3.205C81.628,94.936,80.871,94.936,80.911,95.453Z" transform="translate(-0.933 36.828)" fill="#fff"/>
            <path id="Path_11746" data-name="Path 11746" d="M86.215,63.023c-11.367,14.154-10.73,33.842-11.387,48.633-.8,18.2-1.294,30.119-1.294,30.119,3.444,6.768,13-.876,13-.876,2.608-6.709,7.963-29.323,7.087-38.062L92.267,89.56l5.315,13.178,1.533,8.759,34.877.159,1.553-5.972,4.818-8.361.139-.259,4.658,6.092c-.816,1.035-1,14.831-.259,17.1a7.147,7.147,0,0,0,9.774,4.479,6.77,6.77,0,0,0,1.433-.975l5.455-11.029c.319-16.583-5.972-38.381-14.174-49.887-4.5-6.35-13.2-7.326-14.612-7.963l-13.1,21.141-11.168-25.1-7.624,1.175C91.729,52.851,86.215,63.023,86.215,63.023Z" transform="translate(-56.184 -6.907)" fill="#79a0f3"/>
            <path id="Path_11747" data-name="Path 11747" d="M95.485,68.72a38.2,38.2,0,0,1-13.059,21.9c-.239.2-.6-.159-.338-.358A37.823,37.823,0,0,0,95.007,68.54c0-.319.537-.179.478.119Z" transform="translate(-6.947 10.37)" fill="#1d1d1b"/>
            <path id="Path_11748" data-name="Path 11748" d="M97.639,57.85A46.262,46.262,0,0,1,99.948,63.6c.1.3-.378.438-.478.119A41.387,41.387,0,0,0,97.2,58.188c-.139-.279.279-.537.438-.259Z" transform="translate(-41.629 -0.081)" fill="#1d1d1b"/>
            <path id="Path_11749" data-name="Path 11749" d="M98.805,54.019a42.8,42.8,0,0,1,4.877,7.585c.139.3-.3.537-.438.259a40.809,40.809,0,0,0-4.857-7.445c-.2-.239.139-.6.338-.358Z" transform="translate(-47.672 -3.875)" fill="#1d1d1b"/>
            <path id="Path_11750" data-name="Path 11750" d="M92.865,85.161c.577,3.105,1.035,6.251,1.354,9.4a26.853,26.853,0,0,1,.3,4.559,1.991,1.991,0,0,1-1.593,2.11c-.3,0-.438-.418-.119-.478,1.612-.3,1.214-2.409,1.135-3.583s-.219-2.568-.358-3.842c-.3-2.687-.7-5.375-1.194-7.963,0-.3.418-.438.478-.119Z" transform="translate(-26.662 26.914)" fill="#fff"/>
            <path id="Path_11751" data-name="Path 11751" d="M95.639,93.569c-.776,5.136-1.453,10.272-1.991,15.448,0,.3-.518.319-.5,0q.9-7.823,1.991-15.587c0-.319.537-.179.478.139Z" transform="translate(-29.297 35.029)" fill="#fff"/>
            <path id="Path_11752" data-name="Path 11752" d="M93.926,84.933A38.34,38.34,0,0,1,95.8,92.657c.478,3.185,1.055,6.35,1.612,9.535,0,.3-.438.438-.5.119-.557-3.165-1.115-6.35-1.593-9.535a37.823,37.823,0,0,0-1.871-7.624c-.119-.3.378-.438.478-.139Z" transform="translate(-31.625 26.704)" fill="#fff"/>
            <path id="Path_11753" data-name="Path 11753" d="M114.525,88.223A22.814,22.814,0,0,1,111.1,99.75c-1.871,3.225-5.136,4.5-8.52,5.574-.3,0-.438-.378-.119-.478,3.364-1.075,6.549-2.329,8.361-5.574a22.475,22.475,0,0,0,3.185-11.048.259.259,0,0,1,.5,0Z" transform="translate(-66.359 29.864)" fill="#fff"/>
            <path id="Path_11754" data-name="Path 11754" d="M125.2,84.325a52.474,52.474,0,0,1-11.407,3.026,32.668,32.668,0,0,1-10.133-.4c-5.793-1.075-11.586-2.349-17.3-3.822a.259.259,0,0,1,.139-.5c5.514,1.433,11.108,2.668,16.7,3.723a34.081,34.081,0,0,0,10.153.557,51.539,51.539,0,0,0,11.705-2.966c.3-.119.438.378.139.478Z" transform="translate(-45.163 24.505)" fill="#fff"/>
            <path id="Path_11755" data-name="Path 11755" d="M102.719,56.675a.239.239,0,0,0,.239-.239V40.769a.249.249,0,1,0-.5,0V56.436a.239.239,0,0,0,.259.239Z" transform="translate(-55.149 -17.22)" fill="#fff"/>
            <path id="Path_11756" data-name="Path 11756" d="M87.68,40.833c-.159,7.087,5.594,11.944,5.315,8.8,0-.378,1.314-2.548,1.254-2.966a68.322,68.322,0,0,0,9.038-.756c3.981-.7,9.615-5.136,10.511-8.162,1.632,1.851,2.687,3.225,2.906,3.424h0a9.621,9.621,0,0,0,0-1.871v-.319A8.759,8.759,0,0,0,115.57,36c-2.966-5.036-10.451-7.684-15.926-7.107A13.935,13.935,0,0,0,89.85,34.7c0,.717-1.294,1.991-1.553,2.807A10.43,10.43,0,0,0,87.78,40,3.187,3.187,0,0,0,87.68,40.833Z" transform="translate(-39.514 -28.811)" fill="#1d1d1b"/>
            <path id="Path_11757" data-name="Path 11757" d="M97.82,41.058c0,1.991,1.274,5.514,2.807,5.514s2.687-3.543,2.687-5.514a2.847,2.847,0,1,0-5.494,0Z" transform="translate(-46.169 -20.237)" fill="#fbd9b2"/>
            <path id="Path_11758" data-name="Path 11758" d="M99.321,34.4a5.654,5.654,0,0,1-4.877,2.409c-.319,0-.319-.518,0-.5a5.216,5.216,0,0,0,4.459-2.15C99.082,33.9,99.52,34.164,99.321,34.4Z" transform="translate(-35.129 -23.614)" fill="#fff"/>
            <path id="Path_11759" data-name="Path 11759" d="M88.85,39.964a1.174,1.174,0,0,0,0,.438,2.349,2.349,0,0,1,1.015-.776,7.266,7.266,0,0,1,1.712-.358.757.757,0,0,0-.259-.6s-.3.378-.4.338a1.573,1.573,0,0,0-2.07.956Z" transform="translate(-16.636 -19.043)" fill="#1d1e1c"/>
            <path id="Path_11760" data-name="Path 11760" d="M95.74,40.151a2.885,2.885,0,0,1,.259.358,2.488,2.488,0,0,0-1.274-.119,7.525,7.525,0,0,0-1.632.617.737.737,0,0,1,0-.637s.458.159.518,0a1.613,1.613,0,0,1,2.13-.219Z" transform="translate(-29.398 -17.877)" fill="#1d1e1c"/>
          </g>
          <path id="Path_13541" data-name="Path 13541" d="M-11214.857-4740.825a5.839,5.839,0,0,0,2.068-.208,15.2,15.2,0,0,0,2.563-1.074l-1.9-3.143-5.872.579Z" transform="translate(11308.332 4860.396)" fill="#e2a191"/>
          <g id="Group_26327" data-name="Group 26327" transform="translate(66.643 4.631)">
            <path id="Path_7808" data-name="Path 7808" d="M40.211,187.764c2.458-1.6,4.993-10.29,5.012-10.328h0l.972-15.473h0l-8.423-3.392h0l-.457,15.912h0c-.553,3.2-4.993,6.86-7.775,8.518l-5.031,3.068c-.934.572,15.245,1.067,15.664,1.753Z" transform="translate(78.68 91.424)" fill="#fbd2bd"/>
            <path id="Path_7809" data-name="Path 7809" d="M52.436,180.666l-.248-7.775h0l.248-4.421c-1.906.743-1.658,3.525-5.069,4.612-1.791.572-4.516-4.554-6.517-4.307-4.516.514.991,2.287-.572,2.611a48.154,48.154,0,0,0-14.235,6.327h0a3.011,3.011,0,0,0,2.23,5.278l24.163-2.306Z" transform="translate(71.429 100.392)" fill="#484e5d"/>
            <rect id="Rectangle_5258" data-name="Rectangle 5258" width="0.476" height="27.422" transform="translate(96.531 281.303) rotate(-95.85)" fill="#fff"/>
            <path id="Path_7810" data-name="Path 7810" d="M60.859,187.763c2.458-1.6,4.993-10.271,5.012-10.309h0l.972-15.492h0l-8.423-3.411-.457,15.912h0c-.572,3.182-4.993,6.841-7.775,8.518l-5.05,3.106c-.915.572,15.245,1.067,15.683,1.734C60.821,187.744,60.84,187.782,60.859,187.763Z" transform="translate(18.72 91.406)" fill="#fbd2bd"/>
            <path id="Path_7811" data-name="Path 7811" d="M73.022,180.647l-.248-7.756h0l.286-4.421c-1.906.743-1.677,3.525-5.088,4.592-1.772.572-4.5-4.535-6.517-4.307-4.5.514,1.01,2.306-.572,2.611a48.744,48.744,0,0,0-14.216,6.346h0a2.992,2.992,0,0,0,2.23,5.259l24.125-2.287Z" transform="translate(11.53 100.389)" fill="#484e5d"/>
            <rect id="Rectangle_5259" data-name="Rectangle 5259" width="0.476" height="27.422" transform="translate(57.212 281.297) rotate(-95.85)" fill="#fff"/>
            <path id="Path_7812" data-name="Path 7812" d="M59.808,124.413,45.821,245.971H33.32V116.028c0-7.337,4.04-31.652,5.2-35.558H66.477Z" transform="translate(41.533 20.698)" fill="#383d4b"/>
            <path id="Path_7813" data-name="Path 7813" d="M57.989,120c0-11.434-1.277-30.718-1.277-30.718S27.823,82.061,22.64,83.376l5.031,45.01L42.382,244.494l11.777,1.334Z" transform="translate(70.373 23.186)" fill="#383d4b"/>
            <path id="Path_7814" data-name="Path 7814" d="M41.967,86.985c-11.11-2.458-9.395-29.918-9.395-29.918l5.107-2a44.993,44.993,0,0,1,3.7-4.173,1.715,1.715,0,0,0,.572-.915,22.107,22.107,0,0,0,.229-2.23c5.431,2.1,13.225-2.534,14.292-3.449a13.16,13.16,0,0,1-.152,1.563A10.023,10.023,0,0,0,57.9,52.494a9.68,9.68,0,0,0,3.811,3.411h0C63.043,57.83,54.715,89.787,41.967,86.985Z" transform="translate(47.768 -12.057)" fill="#fbd2bd"/>
            <path id="Path_7815" data-name="Path 7815" d="M40.4,109.968c-11.319-1.41-7.127-55.015-7.127-55.015l4.364-4.9a11.6,11.6,0,0,0,3.811-2.1l1.906,4.249a6.593,6.593,0,0,0,11.624.781l3.087-4.955a9.738,9.738,0,0,0,4.078,3.03h0c.953,1.162-.515,31.881-6.574,48.821C51.944,110.063,45.236,110.578,40.4,109.968Z" transform="translate(47.148 -8.742)" fill="#fc636b"/>
            <path id="Path_7816" data-name="Path 7816" d="M70.924,78.917l2.725,20.256H23.17l2.7-24.482,11.857,9.58Z" transform="translate(53.702 15.886)" fill="#fc636b"/>
            <path id="Path_7817" data-name="Path 7817" d="M49.364,50.943a17.97,17.97,0,0,1-3.811,2.382,14.159,14.159,0,0,1-10.6,1.067,54.67,54.67,0,0,1,.572-7.508c.972-1.906,15.016-8.842,14.749-6.117C50.2,42.444,49.726,46.713,49.364,50.943Z" transform="translate(54.606 -15.823)" fill="#e2a191"/>
            <path id="Path_7818" data-name="Path 7818" d="M60.353,42.246s-8.27,14.063-8.613,14.483a17.284,17.284,0,0,1-8.194,4.612c-4.269.991-5.984.534-8.423-2.4C31.54,54.651,30.492,51.7,31.464,45.6c.21-1.239.229-9.795.553-11.186.858-3.544,6.974-2.058,7.432-3.7C40.153,28.164,60.353,42.246,60.353,42.246Z" transform="translate(51.85 -24.639)" fill="#fbd2bd"/>
            <ellipse id="Ellipse_749" data-name="Ellipse 749" cx="0.667" cy="0.667" rx="0.667" ry="0.667" transform="translate(85.867 20.389)" fill="#1d1e1c"/>
            <ellipse id="Ellipse_750" data-name="Ellipse 750" cx="0.667" cy="0.667" rx="0.667" ry="0.667" transform="translate(93.566 21.133)" fill="#1d1e1c"/>
            <path id="Path_7819" data-name="Path 7819" d="M44.434,37.964a12.024,12.024,0,0,1-.877,4.554,11.985,11.985,0,0,0-.572,2.115c0,.267,0,.629.229.781a1.544,1.544,0,0,0,.934,0,.477.477,0,0,1,0,.953,1.791,1.791,0,0,1-1.906-.762,3.316,3.316,0,0,1,.1-2.306,16.14,16.14,0,0,0,1.181-5.412.477.477,0,0,1,.953,0Z" transform="translate(46.711 -18.279)" fill="#e2a191"/>
            <path id="Path_7820" data-name="Path 7820" d="M55.788,35.326C55.464,34.983,35,31.706,34.693,31.8c-1.41.381.21-.21,0,.438-.553,2.23,1.391,5.888,5.2,7.222,1.906.629,8.385-.267,10.29,0,.953.152,2.839,3.811,3.811,3.811.4,0,.781,0,.972-.438a47.791,47.791,0,0,0,.819-7.508Z" transform="translate(50.717 -23.378)" fill="#e2a191"/>
            <path id="Path_7821" data-name="Path 7821" d="M60.673,40a11.281,11.281,0,0,0-.4-2.649c-.229-.8-1.486-2.287-1.448-3.03A14.749,14.749,0,0,0,48.9,27.59c-7.375-1.239-18.751,3.03-18.808,11.834a1.086,1.086,0,0,0,0,.267c0,.248,1.563-3.278,1.639-3.049,1.086,3.811,5.869,8.1,15.092,5.374,2.744-.819,2.134,3.163,1.906,5.926-.133,2.058,2.115,2.82,2.706,1.353a10.709,10.709,0,0,1,1.906-2.744c-.838,3.945,0,6.308-1.677,9.985-.419.934-.4,3.487.3,2.744C56.938,54.1,60.33,48.3,60.616,40.834A4.527,4.527,0,0,0,60.673,40Z" transform="translate(53.511 -27.38)" fill="#704a39"/>
            <ellipse id="Ellipse_751" data-name="Ellipse 751" cx="2.896" cy="4.345" rx="2.896" ry="4.345" transform="translate(107.894 28.018) rotate(-155.7)" fill="#fbd2bd"/>
            <path id="Path_7822" data-name="Path 7822" d="M78.4,49.06c1.181,11.319,1.677,46.82,2.763,59.912l-9.528-.5-3.2-15.245-.152-.3L50.787,115.279l-6.727-4.916c4.554-11.872,6.727-32.224,18.9-50.4C65.727,55.863,74.931,49.918,78.4,49.06Z" transform="translate(6.381 -7.746)" fill="#fc636b"/>
            <path id="Path_7823" data-name="Path 7823" d="M31.383,31.969a8.88,8.88,0,0,1,.724,8.747c-.133.286-.553,0-.419-.229a8.385,8.385,0,0,0-.629-8.27c-.172-.248.229-.5.4-.248Z" transform="translate(79.466 -23.317)" fill="#fff"/>
            <path id="Path_7824" data-name="Path 7824" d="M103.633,92.338,52.182,89.67,50.81,87.554l49.546-2.649L117.868,82.6l-.172.9a4.764,4.764,0,0,1-1.791,2.935Z" transform="translate(-43.187 22.626)" fill="#e8e2dd"/>
            <path id="Path_7825" data-name="Path 7825" d="M102.2,91.762l-34.72-2.554-10.366-.762-6.308-.457L65.35,82.12l52.518.915-2.839,2.134Z" transform="translate(-43.187 22.192)" fill="#f1eeeb"/>
            <path id="Path_7828" data-name="Path 7828" d="M40.389,30.668a9.223,9.223,0,0,0,2.363,4.116,6.269,6.269,0,0,0,2.172,1.467,13.34,13.34,0,0,0,2.839.629c.3,0,.172.5-.114.457a11.549,11.549,0,0,1-3.106-.743,7.108,7.108,0,0,1-2.134-1.467A9.871,9.871,0,0,1,39.931,30.8c-.1-.3.381-.419.457-.133Z" transform="translate(47.498 -24.552)" fill="#fff"/>
            <g id="Group_25813" data-name="Group 25813" transform="translate(62.371 75.119)" opacity="0.3">
              <path id="Path_7830" data-name="Path 7830" d="M63.111,76.881,60.519,66.8l-9.7,25.859Z" transform="translate(-50.82 -66.8)" fill="#1d1d1b"/>
            </g>
            <path id="Path_7831" data-name="Path 7831" d="M69.315,79.669H67.848c-7.184-1.391-12.577.172-16.655,3.811a9.528,9.528,0,0,0-2.4,3.182c-.191.438,1.906,7.775,10.976,2.515.972-.553,10.4-3.468,10.4-3.468Z" transform="translate(8.377 19.517)" fill="#fbd2bd"/>
            <path id="Path_7832" data-name="Path 7832" d="M53.329,49.59c-1.906,11.224-6.574,48.821-6.574,48.821l-25.211,7.222.991,8.194,41.009-4.573a12.6,12.6,0,0,0,10.576-11.91c.648-14.635,1.181-29.651-5.812-39.465C65.449,53.859,56.74,50.638,53.329,49.59Z" transform="translate(55.976 -7.267)" fill="#fc636b"/>
            <path id="Path_7833" data-name="Path 7833" d="M116.4,104.759l-48.174-2.477a2.249,2.249,0,0,1-2.249-2.249L58.36,71.069a2.249,2.249,0,0,1,2.249-2.249L109.3,70.878a2.249,2.249,0,0,1,2.249,2.268l7.108,29.365A2.249,2.249,0,0,1,116.4,104.759Z" transform="translate(-58.36 10.148)" fill="#e5e5e5"/>
            <ellipse id="Ellipse_752" data-name="Ellipse 752" cx="5.393" cy="5.393" rx="5.393" ry="5.393" transform="translate(22.162 91.83)" fill="#fff"/>
            <path id="Path_7834" data-name="Path 7834" d="M29.925,84.4a39.4,39.4,0,0,1,4.516-1.6c2.687-.838,5.393-1.62,8.1-2.4,6.06-1.734,12.12-3.411,18.179-5.164,2.115-.61,4.23-1.181,6.308-1.906a.247.247,0,0,1,.114.476c-4.44,1.563-9.052,2.706-13.587,3.983C47.647,79.466,41.721,81.1,35.832,82.9A40.4,40.4,0,0,0,30.115,84.8c-.267.133-.515-.286-.248-.419Z" transform="translate(47.5 14.232)" fill="#1d1d1b"/>
            <path id="Path_7835" data-name="Path 7835" d="M31.027,62.282a80.035,80.035,0,0,1,3.03,17.474.238.238,0,0,1-.476,0A80.035,80.035,0,0,0,30.57,62.415c0-.3.381-.438.457-.133Z" transform="translate(79.193 4.07)" fill="#1d1d1b"/>
            <path id="Path_7836" data-name="Path 7836" d="M26.237,90.429a24.049,24.049,0,0,0,3.583,10.519,12.577,12.577,0,0,0,7.622,6.06c.3,0,.172.514-.114.457a12.9,12.9,0,0,1-7.718-6.041,24.64,24.64,0,0,1-3.811-11,.238.238,0,0,1,.476,0Z" transform="translate(84.727 29.51)" fill="#fff"/>
            <path id="Path_13539" data-name="Path 13539" d="M.172,11.071a39.4,39.4,0,0,1,4.516-1.6c2.687-.838,5.393-1.62,8.1-2.4,6.06-1.734,12.12-3.411,18.179-5.164C33.081,1.3,35.2.724,37.274,0a.247.247,0,0,1,.114.476C32.948,2.039,28.337,3.182,23.8,4.459,17.894,6.136,11.967,7.775,6.079,9.566A40.394,40.394,0,0,0,.362,11.472c-.267.133-.515-.286-.248-.419Z" transform="matrix(0.985, 0.174, -0.174, 0.985, 84.619, 94.509)" fill="#1d1d1b"/>
          </g>
          <path id="Path_13540" data-name="Path 13540" d="M3.679,5.014C.5,3.664-1.393,1.707,1.254.6S8.089.163,10.3.6s2.757,1.158,3.088,2.867.579,2.536.579,2.536S6.856,6.365,3.679,5.014Z" transform="translate(80.256 113.542)" fill="#fbd2bd"/>
        </g>
      </g>
    </g>
  </g>
</svg>
