<svg xmlns="http://www.w3.org/2000/svg" width="600" height="400" viewBox="0 0 600 400">
  <defs>
    <linearGradient id="fullstack-a" x1="49.361%" x2="50.55%" y1="-18.758%" y2="109.138%">
      <stop offset="0%" stop-color="#B0D8FF"/>
      <stop offset="2%" stop-color="#B3D9FF"/>
      <stop offset="15%" stop-color="#C4E1FF"/>
      <stop offset="30%" stop-color="#D1E7FF"/>
      <stop offset="51%" stop-color="#D8EAFF"/>
      <stop offset="100%" stop-color="#DAEBFF"/>
    </linearGradient>
    <linearGradient id="fullstack-b" x1="48.426%" x2="51.801%" y1="14.265%" y2="85.705%">
      <stop offset="37%" stop-color="#86CF94"/>
      <stop offset="99%" stop-color="#008166"/>
    </linearGradient>
    <linearGradient id="fullstack-c" x1="50%" x2="50%" y1="-20.001%" y2="112.948%">
      <stop offset="0%" stop-color="#B0D8FF"/>
      <stop offset="2%" stop-color="#B3D9FF"/>
      <stop offset="15%" stop-color="#C4E1FF"/>
      <stop offset="30%" stop-color="#D1E7FF"/>
      <stop offset="51%" stop-color="#D8EAFF"/>
      <stop offset="100%" stop-color="#DAEBFF"/>
    </linearGradient>
  </defs>
  <g fill="none" fill-rule="evenodd" transform="translate(32 20)">
    <rect width="28.103" height="35.979" x="428.735" y="56.316" fill="#B0D8FF" fill-rule="nonzero"/>
    <rect width="24.703" height="32.668" x="430.436" y="57.973" fill="#FFF" fill-rule="nonzero"/>
    <rect width="47.256" height="58.533" x="458.732" y="25.171" fill="#B0D8FF" fill-rule="nonzero"/>
    <rect width="41.783" height="53.253" x="461.468" y="27.81" fill="#FFF" fill-rule="nonzero"/>
    <rect width="186.108" height="193.438" x="7.549" y=".639" fill="#B0D8FF" fill-rule="nonzero" rx="57.96"/>
    <rect width="182.827" height="190.132" x="7.549" y="3.944" fill="url(#fullstack-a)" fill-rule="nonzero" rx="54.43"/>
    <rect width="168.171" height="35.609" x="15.472" y="12.053" fill="#D5E1F7" fill-rule="nonzero" rx="17.804"/>
    <rect width="168.171" height="35.609" x="14.54" y="11.123" fill="#FFF" fill-rule="nonzero" rx="17.804"/>
    <rect width="168.171" height="35.609" x="15.554" y="152.451" fill="#D5E1F7" fill-rule="nonzero" rx="17.804"/>
    <rect width="168.171" height="35.609" x="14.54" y="151.166" fill="#FFF" fill-rule="nonzero" rx="17.804"/>
    <rect width="52.906" height="4.94" x="20.349" y="156.125" fill="#D5E1F7" fill-rule="nonzero" rx="2.47"/>
    <rect width="158.583" height="4.94" x="20.349" y="167.786" fill="#D5E1F7" fill-rule="nonzero" rx="2.47"/>
    <rect width="158.583" height="4.94" x="20.349" y="176.875" fill="#EBF5FF" fill-rule="nonzero" rx="2.47"/>
    <rect width="93.248" height="35.609" x="-13.348" y="82.43" fill="#D5E1F7" fill-rule="nonzero" rx="13.97" transform="rotate(90 33.276 100.234)"/>
    <path fill="#FFF" fill-rule="nonzero" d="M-0.0975213675,81.2008547 L65.2103419,81.2008547 C72.9257598,81.2008547 79.1803419,87.4554367 79.1803419,95.1708547 L79.1803419,102.839402 C79.1803419,110.55482 72.9257598,116.809402 65.2103419,116.809402 L-0.0975213675,116.809402 C-7.81293932,116.809402 -14.0675214,110.55482 -14.0675214,102.839402 L-14.0675214,95.1708547 C-14.0675214,87.4554367 -7.81293932,81.2008547 -0.0975213675,81.2008547 Z" transform="rotate(90 32.556 99.005)"/>
    <path fill="#D5E1F7" fill-rule="nonzero" d="M101.072393,37.6213675 L141.900256,37.6213675 C156.37564,37.6213675 168.110256,49.3559842 168.110256,63.8313675 L168.110256,136.640427 C168.110256,151.115811 156.37564,162.850427 141.900256,162.850427 L101.072393,162.850427 C86.5970099,162.850427 74.8623932,151.115811 74.8623932,136.640427 L74.8623932,63.8313675 C74.8623932,49.3559842 86.5970099,37.6213675 101.072393,37.6213675 Z" transform="rotate(90 121.486 100.236)"/>
    <path fill="#FFF" fill-rule="nonzero" d="M99.6826496,36.3905983 L140.510513,36.3905983 C154.985896,36.3905983 166.720513,48.125215 166.720513,62.6005983 L166.720513,135.409658 C166.720513,149.885041 154.985896,161.619658 140.510513,161.619658 L99.6826496,161.619658 C85.2072663,161.619658 73.4726496,149.885041 73.4726496,135.409658 L73.4726496,62.6005983 C73.4726496,48.125215 85.2072663,36.3905983 99.6826496,36.3905983 Z" transform="rotate(90 120.097 99.005)"/>
    <rect width="38.256" height="4.94" x="62.338" y="56.263" fill="#00D967" fill-rule="nonzero" rx="2.47"/>
    <rect width="114.67" height="4.94" x="62.338" y="67.925" fill="#D5E1F7" fill-rule="nonzero" rx="2.47"/>
    <rect width="114.67" height="4.94" x="62.338" y="77.015" fill="#EBF5FF" fill-rule="nonzero" rx="2.47"/>
    <rect width="38.256" height="4.94" x="62.338" y="86.103" fill="#00D967" fill-rule="nonzero" rx="2.47"/>
    <rect width="114.67" height="4.94" x="62.338" y="97.764" fill="#D5E1F7" fill-rule="nonzero" rx="2.47"/>
    <rect width="114.67" height="4.94" x="62.338" y="106.855" fill="#EBF5FF" fill-rule="nonzero" rx="2.47"/>
    <rect width="38.256" height="4.94" x="62.338" y="115.944" fill="#00D967" fill-rule="nonzero" rx="2.47"/>
    <rect width="114.67" height="4.94" x="62.338" y="127.605" fill="#D5E1F7" fill-rule="nonzero" rx="2.47"/>
    <rect width="114.67" height="4.94" x="62.338" y="136.696" fill="#EBF5FF" fill-rule="nonzero" rx="2.47"/>
    <rect width="30.677" height="28.414" x="17.062" y="56.263" fill="#DAEBFF" fill-rule="nonzero" rx="14.207"/>
    <rect width="30.677" height="28.414" x="17.062" y="89.879" fill="#DAEBFF" fill-rule="nonzero" rx="14.207"/>
    <rect width="36.858" height="10.491" x="59.255" y="32.776" fill="#DAEBFF" fill-rule="nonzero" rx="5.245"/>
    <rect width="36.858" height="10.491" x="18.212" y="32.776" fill="#DAEBFF" fill-rule="nonzero" rx="5.245"/>
    <rect width="36.858" height="10.491" x="100.663" y="32.776" fill="#DAEBFF" fill-rule="nonzero" rx="5.245"/>
    <rect width="36.858" height="10.491" x="142.074" y="32.776" fill="#DAEBFF" fill-rule="nonzero" rx="5.245"/>
    <rect width="161.766" height="14.61" x="17.166" y="14.605" fill="#DAEBFF" fill-rule="nonzero" rx="7.305"/>
    <ellipse cx="196.667" cy="347.198" fill="#E2EEFA" fill-rule="nonzero" rx="49.573" ry="13.337"/>
    <ellipse cx="74.361" cy="326.414" fill="#E2EEFA" fill-rule="nonzero" rx="23.768" ry="7.45"/>
    <ellipse cx="242.258" cy="331.448" fill="#E2EEFA" fill-rule="nonzero" rx="40.788" ry="10.036"/>
    <ellipse cx="472.499" cy="314.65" fill="#E2EEFA" fill-rule="nonzero" rx="64.27" ry="6.997"/>
    <ellipse cx="346.294" cy="349.966" fill="#E2EEFA" fill-rule="nonzero" rx="18.556" ry="5.774"/>
    <rect width="507.315" height="3.379" x=".882" y="292.812" fill="#D3E2F9" fill-rule="nonzero"/>
    <rect width="124.838" height="205.622" x="410.978" y="109.248" fill="#D1E3FF" fill-rule="nonzero" rx="37.25"/>
    <rect width="51.015" height="43.012" x="422.381" y="260.056" fill="#E3EEFF" fill-rule="nonzero"/>
    <rect width="50.615" height="43.012" x="473.397" y="260.056" fill="#E3EEFF" fill-rule="nonzero"/>
    <rect width="101.631" height="37.185" x="422.381" y="120.238" fill="#F5FCFF" fill-rule="nonzero"/>
    <rect width="101.631" height="37.185" x="422.381" y="166.844" fill="#F5FCFF" fill-rule="nonzero"/>
    <rect width="101.631" height="37.185" x="422.381" y="213.45" fill="#F5FCFF" fill-rule="nonzero"/>
    <ellipse cx="462.326" cy="272.858" fill="#D1E3FF" fill-rule="nonzero" rx="3.602" ry="3.427"/>
    <ellipse cx="485.109" cy="272.858" fill="#D1E3FF" fill-rule="nonzero" rx="3.602" ry="3.427"/>
    <rect width="8.503" height="28.368" x="424.981" y="128.532" fill="#D1E3FF" fill-rule="nonzero" stroke="#B6D4FF"/>
    <rect width="8.503" height="28.368" x="433.484" y="128.532" fill="#D1E3FF" fill-rule="nonzero" stroke="#B6D4FF"/>
    <rect width="8.503" height="28.368" x="441.986" y="128.532" fill="#D1E3FF" fill-rule="nonzero" stroke="#B6D4FF"/>
    <rect width="8.503" height="28.368" x="450.489" y="128.532" fill="#D1E3FF" fill-rule="nonzero" stroke="#B6D4FF"/>
    <rect width="8.503" height="28.368" x="458.991" y="128.532" fill="#D1E3FF" fill-rule="nonzero" stroke="#B6D4FF"/>
    <rect width="8.503" height="28.368" x="475.219" y="175.509" fill="#D1E3FF" fill-rule="nonzero" stroke="#B6D4FF"/>
    <rect width="8.503" height="28.368" x="483.721" y="175.509" fill="#D1E3FF" fill-rule="nonzero" stroke="#B6D4FF"/>
    <rect width="8.091" height="29.809" x="443.544" y="176.835" fill="#D1E3FF" fill-rule="nonzero" stroke="#B6D4FF" transform="rotate(90 447.59 191.74)"/>
    <polygon fill="#D1E3FF" fill-rule="nonzero" stroke="#B6D4FF" points="446.444 168.743 454.534 168.743 454.534 198.551 446.444 198.551" transform="rotate(90 450.489 183.647)"/>
    <polygon fill="#D1E3FF" fill-rule="nonzero" stroke="#B6D4FF" points="446.893 184.926 454.984 184.926 454.984 214.734 446.893 214.734" transform="rotate(90 450.938 199.83)"/>
    <rect width="8.503" height="28.368" x="492.224" y="175.509" fill="#D1E3FF" fill-rule="nonzero" stroke="#B6D4FF"/>
    <rect width="8.503" height="28.368" x="500.726" y="175.509" fill="#D1E3FF" fill-rule="nonzero" stroke="#B6D4FF"/>
    <rect width="8.503" height="28.368" x="509.229" y="175.509" fill="#D1E3FF" fill-rule="nonzero" stroke="#B6D4FF"/>
    <rect width="8.503" height="28.368" x="431.034" y="222.267" fill="#D1E3FF" fill-rule="nonzero" stroke="#B6D4FF"/>
    <rect width="8.503" height="28.368" x="439.537" y="222.267" fill="#D1E3FF" fill-rule="nonzero" stroke="#B6D4FF"/>
    <rect width="8.503" height="28.368" x="448.039" y="222.267" fill="#D1E3FF" fill-rule="nonzero" stroke="#B6D4FF"/>
    <rect width="8.503" height="28.368" x="456.542" y="222.267" fill="#D1E3FF" fill-rule="nonzero" stroke="#B6D4FF"/>
    <rect width="8.503" height="28.368" x="465.044" y="222.267" fill="#D1E3FF" fill-rule="nonzero" stroke="#B6D4FF"/>
    <polygon fill="#D1E3FF" fill-rule="nonzero" stroke="#B6D4FF" points="486.002 154.617 478.026 157.422 467.694 130.814 475.668 128.009"/>
    <polygon fill="#D1E3FF" fill-rule="nonzero" stroke="#B6D4FF" points="495.156 154.617 487.179 157.422 476.848 130.814 484.822 128.009"/>
    <polygon fill="#D1E3FF" fill-rule="nonzero" stroke="#B6D4FF" points="511.985 152.022 505.2 156.899 487.234 134.262 494.019 129.386"/>
    <ellipse cx="499.732" cy="230.487" fill="#D1E3FF" fill-rule="nonzero" stroke="#B6D4FF" rx="12.752" ry="12.135"/>
    <path stroke="#B6D4FF" stroke-width="2.32" d="M499.731624,245.083761 C491.259829,245.083761 484.393162,238.548718 484.393162,230.487179 C484.393162,222.425641 491.259829,215.890598 499.731624,215.890598"/>
    <rect width="18.45" height="2.431" x="490.041" y="248.202" fill="#D1E3FF" fill-rule="nonzero" stroke="#B6D4FF"/>
    <rect width="1.202" height="6.935" x="498.53" y="241.785" fill="#D1E3FF" fill-rule="nonzero" stroke="#B6D4FF"/>
    <path fill="#00D967" fill-rule="nonzero" d="M87.4358974,295.724786 C87.4358974,295.724786 105.85641,294.726496 105.876923,290.982906 C105.894017,288.076923 94.625641,290.535043 94.625641,290.535043 C94.625641,290.535043 106.950427,286.958974 112.647863,284.039316 C113.899145,283.398291 115.174359,282.704274 116.049573,281.605128 C116.924786,280.505983 117.304274,278.892308 116.596581,277.673504 C115.635897,276.030769 113.335043,275.897436 111.446154,276.124786 C103.859829,277.041026 98.5264957,281.099145 91.6974359,284.528205 C96.6974359,282.017094 101.14359,278.805128 105.309402,275.082051 C109.14188,271.663248 113.6,268.447863 116.153846,263.871795 C117.753846,261.003419 118.388034,256.767521 115.555556,254.410256 C112.808547,252.123077 108.871795,253.191453 105.854701,254.251282 C97.7504274,257.097436 90.6410256,262.748718 85.9811966,269.950427 C87.1838303,266.582783 88.1206033,263.126039 88.782906,259.611966 C89.0495726,258.196581 89.1470085,256.451282 87.9777778,255.611966 C86.4598291,254.526496 84.434188,255.979487 83.2547009,257.42735 C80.3899091,260.943473 78.2223717,264.973956 76.8683761,269.302564 C77.7982906,259.632479 78.7196581,249.77265 76.6153846,240.288889 C76.1350427,238.123077 75.4717949,235.936752 74.1196581,234.177778 C72.7675214,232.418803 70.6017094,231.148718 68.3965812,231.389744 C66.3076923,231.617094 64.582906,233.099145 63.182906,234.666667 C53.7543136,245.215621 53.3712627,261.046703 62.2786325,272.039316 C60.0304368,269.68111 57.4995998,267.60959 54.7435897,265.871795 C54.1264957,265.480342 53.2188034,265.147009 52.7538462,265.711111 C52.5128205,266.001709 52.5179487,266.418803 52.5521368,266.794872 C52.9760684,271.393162 56.0598291,275.247863 59.0119658,278.798291 C53.0290598,271.811966 43.6102564,267.916239 34.4376068,268.632479 C33.3299145,268.719658 32.0717949,268.965812 31.5094017,269.923077 C31.182906,270.478632 31.1675214,271.160684 31.2358974,271.803419 C31.7264957,276.418803 35.7931624,279.758974 39.7948718,282.104274 C43.1606838,284.076923 46.7025641,285.726496 50.2393162,287.37265 C48.2157177,287.083932 46.1671089,287.011729 44.1282051,287.157265 C43.6632479,287.191453 43.1435897,287.264957 42.8598291,287.634188 C42.3247863,288.333333 43.0803419,289.280342 43.7931624,289.796581 C48.9677983,293.505102 55.2800587,295.27948 61.6290598,294.810256"/>
    <path fill="url(#fullstack-b)" fill-rule="nonzero" d="M108.350427,261.336752 C108.576068,261.165812 108.8,261.533333 108.581197,261.699145 C102.711116,266.105098 97.3248677,271.121185 92.5128205,276.663248 C87.6752137,282.270085 83.8153846,288.393162 80.034188,294.735043 C79.9769516,294.828451 79.8568106,294.861032 79.7602243,294.809338 C79.663638,294.757644 79.6241095,294.639606 79.6700855,294.540171 C85.9435897,281.377778 96.6222222,269.818803 108.348718,261.336752 L108.350427,261.336752 Z M81.842735,266.087179 C78.4769231,274.711111 76.4564103,285.574359 77.1333333,294.852991 C77.1371097,294.954008 77.2220608,295.032836 77.3230769,295.02919 C77.4240931,295.025283 77.5029216,294.940332 77.4991453,294.839316 C77.6495726,285.497436 79.0376068,275.052991 82.3316239,266.271795 C82.4358974,265.994872 81.9521368,265.810256 81.842735,266.087179 L81.842735,266.087179 Z M70.1794872,247.037607 C68.5931624,262.866667 69.8717949,279.74359 74.1111111,295.092308 C74.1811966,295.348718 74.5470085,295.218803 74.4957265,294.969231 C72.8854701,286.919658 71.4307692,278.880342 70.7606838,270.695726 C70.1162393,262.818803 70.1811966,254.969231 70.4564103,247.071795 C70.4564103,246.91453 70.1931624,246.88547 70.1760684,247.044444 L70.1794872,247.037607 Z M55.8717949,270.688889 C60.6273504,277.444444 65.8957265,289.940171 72.1401709,295.388034 C72.247287,295.45515 72.3871619,295.435439 72.4715594,295.341336 C72.555957,295.247233 72.5603854,295.106045 72.4820513,295.006838 C66.8410256,288.8 61.3076923,277.165812 56.242735,270.444444 C56.0717949,270.213675 55.6905983,270.444444 55.8598291,270.688889 L55.8717949,270.688889 Z M107.11453,281.157265 C97.6837607,285.410256 87.9692308,290.413675 79.9692308,297.054701 C79.7213675,297.259829 79.9692308,297.682051 80.2478632,297.490598 C89.0461538,291.649573 97.5623932,285.899145 107.237607,281.535043 C107.471795,281.42906 107.352137,281.041026 107.11453,281.148718 L107.11453,281.157265 Z M48.4717949,279.991453 C55.3384615,284.094017 62.6820513,292.849573 70.1675214,295.717949 C70.4051282,295.808547 70.6,295.478632 70.3589744,295.360684 C63.1042735,291.813675 55.6888889,283.644444 48.6700855,279.634188 C48.4324786,279.499145 48.2393162,279.868376 48.4717949,280.006838 L48.4717949,279.991453 Z" opacity=".45" style="mix-blend-mode:multiply"/>
    <rect width="40.186" height="33.609" x="57.14" y="294.627" fill="#B0D8FF" fill-rule="nonzero"/>
    <rect width="7.896" height="33.609" x="89.431" y="294.627" fill="#DAEBFF" fill-rule="nonzero"/>
    <rect width="189.788" height="149.728" x="207.708" y="23.198" fill="#B0D8FF" fill-rule="nonzero" rx="51.49"/>
    <rect width="186.39" height="146.12" x="207.708" y="26.807" fill="url(#fullstack-c)" fill-rule="nonzero" rx="50.41"/>
    <path fill="#00D967" fill-rule="nonzero" d="M261.14188,41.9059829 L240.203419,41.9059829 C239.482051,41.9059829 238.897436,41.2222222 238.897436,40.3675214 L238.897436,40.3675214 C238.897436,39.5128205 239.482051,38.8290598 240.203419,38.8290598 L261.14188,38.8290598 C261.863248,38.8290598 262.447863,39.5128205 262.447863,40.3675214 L262.447863,40.3675214 C262.447863,41.2136752 261.863248,41.9059829 261.14188,41.9059829 Z"/>
    <path fill="#006DFE" fill-rule="nonzero" d="M281.548718,55.6820513 L246.05641,55.6820513 C245.335043,55.6820513 244.750427,54.9982906 244.750427,54.1435897 L244.750427,54.1435897 C244.750427,53.2888889 245.335043,52.6051282 246.05641,52.6051282 L281.548718,52.6051282 C282.270085,52.6051282 282.854701,53.2888889 282.854701,54.1435897 L282.854701,54.1435897 C282.854701,54.9931624 282.270085,55.6820513 281.548718,55.6820513 Z"/>
    <path fill="#00D967" fill-rule="nonzero" d="M295.871795,55.6820513 L350.034188,55.6820513 C350.755556,55.6820513 351.340171,54.9982906 351.340171,54.1435897 L351.340171,54.1435897 C351.340171,53.2888889 350.755556,52.6051282 350.034188,52.6051282 L295.871795,52.6051282 C295.150427,52.6051282 294.565753,53.2888889 294.565753,54.1435897 L294.565753,54.1435897 C294.558974,54.9931624 295.14359,55.6820513 295.871795,55.6820513 Z"/>
    <path fill="#006DFE" fill-rule="nonzero" d="M281.548718,69.4581197 L246.05641,69.4581197 C245.335043,69.4581197 244.750427,68.774359 244.750427,67.9196581 L244.750427,67.9196581 C244.750427,67.0649573 245.335043,66.3811966 246.05641,66.3811966 L281.548718,66.3811966 C282.270085,66.3811966 282.854701,67.0649573 282.854701,67.9196581 L282.854701,67.9196581 C282.854701,68.7692308 282.270085,69.4581197 281.548718,69.4581197 Z"/>
    <path fill="#00D967" fill-rule="nonzero" d="M275.700855,83.234188 L240.203419,83.234188 C239.482051,83.234188 238.897436,82.5504274 238.897436,81.6957265 L238.897436,81.6957265 C238.897436,80.8410256 239.482051,80.157265 240.203419,80.157265 L275.700855,80.157265 C276.422222,80.157265 277.006838,80.8410256 277.006838,81.6957265 L277.006838,81.6957265 C277.003419,82.5452991 276.418803,83.234188 275.700855,83.234188 Z"/>
    <path fill="#006DFE" fill-rule="nonzero" d="M350.964103 83.234188L290.013675 83.234188C289.292308 83.234188 288.707692 82.5504274 288.707692 81.6957265L288.707692 81.6957265C288.707692 80.8410256 289.292308 80.157265 290.013675 80.157265L350.964103 80.157265C351.68547 80.157265 352.270085 80.8410256 352.270085 81.6957265L352.270085 81.6957265C352.270085 82.5452991 351.68547 83.234188 350.964103 83.234188zM312.237607 69.4581197L294.300855 69.4581197C293.579487 69.4581197 292.994872 68.774359 292.994872 67.9196581L292.994872 67.9196581C292.994872 67.0649573 293.579487 66.3811966 294.300855 66.3811966L312.237607 66.3811966C312.958974 66.3811966 313.54359 67.0649573 313.54359 67.9196581L313.54359 67.9196581C313.54359 68.7692308 312.965812 69.4581197 312.237607 69.4581197zM343.735043 69.4581197L325.786325 69.4581197C325.064957 69.4581197 324.480342 68.774359 324.480342 67.9196581L324.480342 67.9196581C324.480342 67.0649573 325.064957 66.3811966 325.786325 66.3811966L343.735043 66.3811966C344.45641 66.3811966 345.041026 67.0649573 345.041026 67.9196581L345.041026 67.9196581C345.032479 68.7692308 344.447863 69.4581197 343.735043 69.4581197zM263.950427 97.0102564L240.634188 97.0102564C239.912821 97.0102564 239.328205 96.3264957 239.328205 95.4717949L239.328205 95.4717949C239.328205 94.617094 239.912821 93.9333333 240.634188 93.9333333L263.950427 93.9333333C264.671795 93.9333333 265.25641 94.617094 265.25641 95.4717949L265.25641 95.4717949C265.25641 96.3213675 264.671795 97.0102564 263.950427 97.0102564z"/>
    <path fill="#00D967" fill-rule="nonzero" d="M312.305983,97.0102564 L276.811966,97.0102564 C276.090598,97.0102564 275.505983,96.3264957 275.505983,95.4717949 L275.505983,95.4717949 C275.505983,94.617094 276.090598,93.9333333 276.811966,93.9333333 L312.305983,93.9333333 C313.02735,93.9333333 313.611966,94.617094 313.611966,95.4717949 L313.611966,95.4717949 C313.611966,96.3213675 313.02735,97.0102564 312.305983,97.0102564 Z"/>
    <path fill="#006DFE" fill-rule="nonzero" d="M338.188034 97.0102564L324.931624 97.0102564C324.210256 97.0102564 323.625641 96.3264957 323.625641 95.4717949L323.625641 95.4717949C323.625641 94.617094 324.210256 93.9333333 324.931624 93.9333333L338.186325 93.9333333C338.907692 93.9333333 339.492311 94.617094 339.492311 95.4717949L339.492311 95.4717949C339.494017 96.3213675 338.909402 97.0102564 338.188034 97.0102564zM285.904274 110.786325L265.102564 110.786325C264.381197 110.786325 263.796581 110.102564 263.796581 109.247863L263.796581 109.247863C263.796581 108.393162 264.381197 107.709402 265.102564 107.709402L285.897436 107.709402C286.618803 107.709402 287.203478 108.393162 287.203478 109.247863L287.203478 109.247863C287.210256 110.102564 286.625641 110.786325 285.904274 110.786325zM335.646154 110.786325L300.145299 110.786325C299.423932 110.786325 298.839316 110.102564 298.839316 109.247863L298.839316 109.247863C298.839316 108.393162 299.423932 107.709402 300.145299 107.709402L335.639316 107.709402C336.360684 107.709402 336.945359 108.393162 336.945359 109.247863L336.945359 109.247863C336.952137 110.102564 336.367521 110.786325 335.646154 110.786325zM324.268376 124.560684L257.760684 124.560684C257.039316 124.560684 256.454701 123.876923 256.454701 123.022222L256.454701 123.022222C256.454701 122.167521 257.039316 121.483761 257.760684 121.483761L324.268376 121.483761C324.989744 121.483761 325.574359 122.167521 325.574359 123.022222L325.574359 123.022222C325.574359 123.873504 324.989744 124.560684 324.268376 124.560684zM374.010256 124.560684L333.839316 124.560684C333.117949 124.560684 332.533333 123.876923 332.533333 123.022222L332.533333 123.022222C332.533333 122.167521 333.117949 121.483761 333.839316 121.483761L374.010256 121.483761C374.731624 121.483761 375.316239 122.167521 375.316239 123.022222L375.316239 123.022222C375.316239 123.873504 374.731624 124.560684 374.010256 124.560684zM275.700855 138.336752L240.203419 138.336752C239.482051 138.336752 238.897436 137.652991 238.897436 136.798291L238.897436 136.798291C238.897436 135.94359 239.482051 135.259829 240.203419 135.259829L275.700855 135.259829C276.422222 135.259829 277.006838 135.94359 277.006838 136.798291L277.006838 136.798291C277.003419 137.647863 276.418803 138.336752 275.700855 138.336752z"/>
    <path fill="#00D967" fill-rule="nonzero" d="M318.647863,138.336752 L283.155556,138.336752 C282.434188,138.336752 281.849573,137.652991 281.849573,136.798291 L281.849573,136.798291 C281.849573,135.94359 282.434188,135.259829 283.155556,135.259829 L318.647863,135.259829 C319.369231,135.259829 319.953846,135.94359 319.953846,136.798291 L319.953846,136.798291 C319.953846,137.647863 319.369231,138.336752 318.647863,138.336752 Z"/>
    <path fill="#006DFE" fill-rule="nonzero" d="M322.064957,152.112821 L268.157265,152.112821 C267.435897,152.112821 266.851282,151.42906 266.851282,150.574359 L266.851282,150.574359 C266.851282,149.719658 267.435897,149.035897 268.157265,149.035897 L322.064957,149.035897 C322.786325,149.035897 323.37265,149.719658 323.37265,150.574359 L323.37265,150.574359 C323.37265,151.423932 322.786325,152.112821 322.064957,152.112821 Z"/>
    <rect width="2.612" height="3.075" x="221.549" y="38.832" fill="#006DFE" fill-rule="nonzero"/>
    <rect width="2.612" height="3.075" x="221.549" y="52.607" fill="#006DFE" fill-rule="nonzero"/>
    <rect width="2.612" height="3.075" x="221.549" y="66.383" fill="#006DFE" fill-rule="nonzero"/>
    <rect width="2.612" height="3.075" x="221.549" y="80.159" fill="#006DFE" fill-rule="nonzero"/>
    <rect width="2.612" height="3.075" x="221.549" y="93.935" fill="#006DFE" fill-rule="nonzero"/>
    <rect width="2.612" height="3.075" x="221.549" y="107.711" fill="#006DFE" fill-rule="nonzero"/>
    <rect width="2.612" height="3.075" x="221.549" y="114.598" fill="#006DFE" fill-rule="nonzero"/>
    <rect width="2.612" height="3.075" x="221.549" y="121.487" fill="#006DFE" fill-rule="nonzero"/>
    <rect width="2.612" height="3.075" x="221.549" y="128.374" fill="#006DFE" fill-rule="nonzero"/>
    <rect width="2.612" height="3.075" x="221.549" y="135.262" fill="#006DFE" fill-rule="nonzero"/>
    <rect width="2.612" height="3.075" x="221.549" y="142.15" fill="#006DFE" fill-rule="nonzero"/>
    <rect width="2.612" height="3.075" x="221.549" y="149.038" fill="#006DFE" fill-rule="nonzero"/>
    <rect width="2.612" height="3.075" x="221.549" y="155.926" fill="#006DFE" fill-rule="nonzero"/>
    <path fill="#006DFE" fill-rule="nonzero" d="M360.287179 158.382906L350.767521 153.623932C350.456067 153.449492 350.268085 153.115742 350.280342 152.758974L350.280342 151.733333C350.268085 151.376566 350.456067 151.042816 350.767521 150.868376L360.287179 146.109402C360.813675 145.846154 361.396581 146.300855 361.396581 146.974359L361.396581 147.338462C361.409046 147.698415 361.218054 148.034799 360.902564 148.208547L354.365812 151.376068C353.705983 151.694017 353.705983 152.793162 354.365812 153.112821L360.902564 156.280342C361.217781 156.453516 361.408791 156.789272 361.396581 157.148718L361.396581 157.51453C361.396581 158.191453 360.813675 158.649573 360.287179 158.382906zM368.917949 143.425641L364.521368 161.321368C364.454742 161.699527 364.13716 161.982451 363.753846 162.005128L363.753846 162.005128C363.222222 162.005128 362.839316 161.405128 362.986325 160.808547L367.384615 142.912821C367.451241 142.534661 367.768823 142.251737 368.152137 142.229045L368.152137 142.229045C368.682051 142.225641 369.064957 142.825641 368.917949 143.425641zM381.138462 153.623932L371.618803 158.382906C371.092308 158.646154 370.507692 158.191453 370.507692 157.517949L370.507692 157.152137C370.495482 156.79269 370.686493 156.456935 371.001709 156.283761L377.540171 153.116239C378.198291 152.796581 378.198291 151.697436 377.540171 151.379487L371.001709 148.211966C370.68622 148.038218 370.495228 147.701834 370.507692 147.34188L370.507692 146.977778C370.507692 146.304274 371.092308 145.849573 371.618803 146.112821L381.138462 150.871795C381.448971 151.046974 381.636136 151.380445 381.623932 151.736752L381.623932 152.762393C381.634845 153.11749 381.447858 153.449327 381.138462 153.623932L381.138462 153.623932z"/>
    <path fill="#B0D8FF" fill-rule="nonzero" d="M238.919658,269.316239 L238.919658,292.162393 L246.449573,292.162393 L246.449573,271.6 C244.293667,269.962383 241.622023,269.152095 238.919658,269.316239 Z"/>
    <path fill="#000" fill-rule="nonzero" d="M237.17094,273.630769 C237.17094,273.630769 243.666667,274.77094 247.382906,281.683761 C251.099145,288.596581 254.177778,280.873504 253.461538,277.711111 C252.745299,274.548718 253.119658,271.31453 251.206838,268.887179 C249.294017,266.459829 245.641026,263.003419 240.654701,264.328205 C235.668376,265.652991 235.013675,264.916239 235.292308,267.894017 C235.57094,270.871795 236.044444,274.071795 236.044444,274.071795" opacity=".34"/>
    <ellipse cx="215.256" cy="328.08" fill="#191E56" fill-rule="nonzero" rx="5.824" ry="6.434"/>
    <path fill="#191E56" fill-rule="nonzero" d="M248.863248 333.863248C248.863248 337.417094 246.25641 340.297436 243.041026 340.297436 239.825641 340.297436 237.217094 337.417094 237.217094 333.863248 237.217094 330.309402 239.823932 327.42735 243.041026 327.42735 246.25812 327.42735 248.863248 330.307692 248.863248 333.863248zM276.358974 328.080342C276.358974 331.635897 273.752137 334.516239 270.535043 334.516239 267.317949 334.516239 264.712821 331.635897 264.712821 328.080342 264.712821 324.524786 267.319658 321.646154 270.535043 321.646154 273.750427 321.646154 276.358974 324.526496 276.358974 328.080342z"/>
    <path fill="#0542BF" fill-rule="nonzero" d="M237.540171,292.049573 C237.540171,292.049573 242.622222,289.977778 248.017094,292.049573 L248.164103,299.328205 L274.605128,321.138462 L274.605128,326.319658 L266.798291,326.319658 L266.694017,322.335043 L246.449573,306.512821 L246.574359,326.317949 L245.57094,330.969231 L240.300855,330.969231 L239.328205,326.364103 L239.107692,307.064957 L218.967521,322.17265 L218.883761,326.041026 L211.647863,326.087179 L211.647863,320.606838 L237.581197,299.420513 L237.581197,295.059829 L237.540171,292.049573 Z"/>
    <path fill="#006DFE" fill-rule="nonzero" d="M256.393162,157.041026 C256.393162,157.041026 264.993162,153.989744 277.789744,157.041026 C290.586325,160.092308 298.230769,172.835897 298.654701,183.136752 C299.078632,193.437607 294.461538,256.752137 277.524786,272.758974 C260.588034,288.765812 217.847863,280.882051 209.112821,277.545299 C200.377778,274.208547 193.926496,261.05812 193.926496,261.05812 L237.709402,229.919658 L240.039316,163.099145 L256.393162,157.041026 Z"/>
    <path fill="#004EFC" fill-rule="nonzero" d="M258.037607,153.933333 C258.037607,153.933333 266.162393,155.31453 270.461538,165.376068 C274.760684,175.437607 273.846154,190.410256 272.711111,209.842735 C271.576068,229.275214 277.155556,229.752137 277.789744,243.292308 C278.423932,256.832479 275.241026,269.574359 257.401709,275.625641 C239.562393,281.676923 224.581197,284.403419 201.651282,280.731624 L184.608547,261.290598 L192.892308,223.381197 C192.892308,223.381197 208.316239,207.904274 210.239316,196.288889 C212.162393,184.673504 227.133333,155.71453 233.189744,151.487179 C239.246154,147.259829 258.037607,153.933333 258.037607,153.933333 Z"/>
    <path fill="#FFAB00" fill-rule="nonzero" d="M227.854701,153.774359 L226.811966,153.692308 C226.811966,153.692308 216.140171,154.010256 212.794872,158.152137 C209.449573,162.294017 207.153846,181.726496 207.153846,181.726496 L213.764103,231.502564 C213.764103,231.502564 217.747009,238.511111 237.976068,238.511111 C258.205128,238.511111 266.169231,230.22906 266.169231,230.22906 L264.288889,206.921368 C264.288889,206.921368 267.675214,201.637607 268.232479,195.981197 C268.789744,190.324786 263.215385,160.14188 257.162393,155.762393 C251.109402,151.382906 237.729915,153.282051 237.729915,153.282051 L227.854701,153.774359 Z"/>
    <path fill="#FE8E00" fill-rule="nonzero" d="M36.1726496.0786324786C36.1726496.0786324786 33.3846154 3.34358974 34.4205128 9.30940171 35.4564103 15.2752137 39.8358974 23.6461538 38.1623932 26.8307692 36.4888889 30.0153846 33.2786325 35.3264957 33.9692308 36.574359 34.6598291 37.8222222 36.0649573 38.5128205 36.0649573 38.5128205L45.1982906 44.2974359C45.1982906 44.2974359 47.6119658 44.9623932 49.2717949 43.8222222L49.2717949 43.8222222 50.4017094 44.1401709 23.5641026 58.6068376 20.4871795 54.1487179C20.4871795 54.1487179 30.2444444 43.5965812 31.1196581 40.0119658 31.9948718 36.4273504 31.3589744 36.165812 33.3504274 32.5931624 35.3418803 29.0205128 37.3316239 26.7111111 36.0581197 22.7692308 34.7846154 18.8273504 32.434188 12.4153846 32.9111111 8.63247863 33.3880342 4.84957265 33.6632479 2.50769231 36.1726496.0786324786zM.811965812.536752137C.811965812.536752137-.866666667 7.57264957.907692308 16.1692308L7.25811966 46.9384615 8.35042735 46.3777778C8.35042735 46.3777778.811965812 8.53504274.811965812.536752137z" transform="translate(215.017 163.094)"/>
    <path fill="#FFAB00" fill-rule="nonzero" d="M191.598291 325.815385C191.598291 325.815385 190.960684 330.94359 190.974359 335.066667 190.988034 339.189744 193.789744 342.470085 192.358974 346.338462 190.928205 350.206838 179.157265 350.323077 170.77265 351.317949 162.388034 352.312821 154.969231 350.512821 156.042735 344.215385 157.116239 337.917949 170.728205 340.396581 176.064957 332.567521 181.401709 324.738462 179.798291 323.459829 179.798291 323.459829L191.598291 325.815385zM236.519658 329.781197C236.519658 329.781197 235.882051 334.909402 235.895726 339.034188 235.909402 343.158974 238.712821 346.437607 237.282051 350.304274 235.851282 354.17094 224.076923 354.290598 215.700855 355.283761 207.324786 356.276923 199.897436 354.478632 200.97265 348.182906 202.047863 341.887179 215.65641 344.362393 220.994872 336.533333 226.333333 328.704274 224.726496 327.42735 224.726496 327.42735L236.519658 329.781197z"/>
    <path fill="#1E2889" fill-rule="nonzero" d="M214.979487,230.601709 L213.757265,231.504274 C213.757265,231.504274 177.388034,243.239316 173.989744,254.282051 C170.591453,265.324786 176.006838,328.668376 176.006838,328.668376 C176.006838,328.668376 185.883761,336.471795 194.639316,327.871795 L195.355556,268.697436 L232.107692,255.078632 L242.733333,255.398291 C242.733333,255.398291 255.476923,246.317949 256.271795,245.680342 C257.066667,245.042735 267.104274,237.876923 267.104274,237.876923 L260.892308,227.682051 L214.979487,230.601709 Z"/>
    <path fill="#1A1A7C" fill-rule="nonzero" d="M172.870085,247.699145 C172.870085,247.699145 187.635897,251.02735 190.34359,269.300855 C193.051282,287.574359 196.235897,301.054701 196.235897,301.054701 L203.757265,274.181197 L230.005128,260.095726 L246.304274,247.275214 L254.540171,228.348718 L241.473504,221.471795 L201.815385,224.817094 L180.948718,235.647863 L172.870085,247.699145 Z"/>
    <path fill="#1E2889" fill-rule="nonzero" d="M240.82906,236.442735 C240.82906,236.442735 221.603419,252.852991 219.986325,264.953846 C218.369231,277.054701 219.986325,330.423932 219.986325,330.423932 C219.986325,330.423932 232.386325,338.705983 240.82906,330.423932 C240.82906,330.423932 237.324786,281.682051 244.810256,273.4 C252.295726,265.117949 265.517949,257.630769 267.111111,245.365812 C268.704274,233.100855 266.155556,230.234188 266.155556,230.234188 L253.382906,228.164103 L240.82906,236.442735 Z"/>
    <path fill="#1A1A7C" fill-rule="nonzero" d="M216.623932,289.483761 C217.102564,288.051282 223.793162,260.842735 251.507692,267.158974 L251.507692,267.158974 L260.215385,262.989744 C260.215385,262.989744 271.615385,253.538462 272.446154,252.37094 C273.276923,251.203419 272.57265,241.540171 272.711111,240.264957 C272.849573,238.989744 272.711111,224.868376 272.711111,224.868376 L217.839316,223.593162 L218.582906,243.239316 L216.623932,273.179487 L216.623932,289.483761 Z"/>
    <path fill="#191E56" fill-rule="nonzero" d="M29.7059829,292.352137 L154.584615,292.352137 C155.772264,292.352137 156.735043,293.314916 156.735043,294.502564 C156.735043,295.690212 155.772264,296.652991 154.584615,296.652991 L29.7059829,296.652991 C28.5183347,296.652991 27.5555556,295.690212 27.5555556,294.502564 C27.5555556,293.314916 28.5183347,292.352137 29.7059829,292.352137 Z" transform="rotate(90 92.145 294.503)"/>
    <path fill="#191E56" fill-rule="nonzero" d="M241.239316,292.352137 L366.117949,292.352137 C367.305597,292.352137 368.268376,293.314916 368.268376,294.502564 C368.268376,295.690212 367.305597,296.652991 366.117949,296.652991 L241.239316,296.652991 C240.051668,296.652991 239.088889,295.690212 239.088889,294.502564 C239.088889,293.314916 240.051668,292.352137 241.239316,292.352137 Z" transform="rotate(90 303.679 294.503)"/>
    <path fill="#191E56" fill-rule="nonzero" d="M85.5440715,283.522413 L196.643217,283.522413 C197.830865,283.522413 198.793644,284.485192 198.793644,285.67284 C198.793644,286.860489 197.830865,287.823268 196.643217,287.823268 L85.5440715,287.823268 C84.3564233,287.823268 83.3936441,286.860489 83.3936441,285.67284 C83.3936441,284.485192 84.3564233,283.522413 85.5440715,283.522413 Z" transform="rotate(86.04 141.094 285.673)"/>
    <path fill="#191E56" fill-rule="nonzero" d="M290.251658,283.52258 L401.350803,283.52258 C402.538451,283.52258 403.501231,284.485359 403.501231,285.673007 C403.501231,286.860655 402.538451,287.823435 401.350803,287.823435 L290.251658,287.823435 C289.06401,287.823435 288.101231,286.860655 288.101231,285.673007 C288.101231,284.485359 289.06401,283.52258 290.251658,283.52258 Z" transform="rotate(86.04 345.801 285.673)"/>
    <rect width="270.463" height="8.602" x="81.393" y="225.612" fill="#0542BF" fill-rule="nonzero" rx="4.301"/>
    <rect width="55.829" height="6.769" x="276.311" y="205.303" fill="#FFAB00" fill-rule="nonzero"/>
    <rect width="55.829" height="6.769" x="277.79" y="212.072" fill="#00D967" fill-rule="nonzero"/>
    <rect width="55.829" height="6.769" x="275.082" y="218.843" fill="#DE4D30" fill-rule="nonzero"/>
    <path fill="#9BB4C9" fill-rule="nonzero" d="M143.393162,141.897436 L146.435897,146.039316 C147.820513,143.083761 150.738462,141.765812 152.577778,141.2 L148.379487,138.01024 C147.824511,138.008847 147.273051,138.098351 146.747009,138.275214 C145.615385,138.646154 144.182906,139.528205 143.48547,141.610256 C143.449003,141.707123 143.418234,141.802849 143.393162,141.897436 Z"/>
    <path fill="#4143C5" fill-rule="nonzero" d="M101.794868 177.078632C101.797013 178.98773 103.115738 180.643044 104.976068 181.071795 105.276282 181.142855 105.5838 181.178426 105.892308 181.177786 106.15921 181.177786 106.425466 181.15152 106.687179 181.099145 108.810406 180.682632 110.245177 178.688777 109.965606 176.54322 109.686035 174.397663 107.788239 172.838049 105.629175 172.979528 103.47011 173.121007 101.792066 174.91494 101.794868 177.078632L101.794868 177.078632zM138.606838 137.593162C138.606838 139.858946 140.443618 141.695726 142.709402 141.695726 142.970387 141.695563 143.230784 141.670954 143.487179 141.622222 144.191453 139.540171 145.617094 138.65812 146.748718 138.287179 146.787777 138.061362 146.807223 137.832589 146.806843 137.603419 146.806843 136.137714 146.024893 134.783346 144.755556 134.050494 143.486218 133.317641 141.922329 133.317641 140.652991 134.050494 139.383654 134.783346 138.601709 136.137714 138.601709 137.603419L138.606838 137.593162z"/>
    <path fill="#9BB4C9" fill-rule="nonzero" d="M108.328205,173.782906 C108.786191,174.121468 109.168667,174.55168 109.451282,175.046154 L127.05812,155.680342 L130.735043,151.635897 L136.160684,145.666667 L140.410256,140.989744 C139.941073,140.67145 139.542956,140.259364 139.241026,139.779487 L134.153846,145.376068 L130.564103,149.324786 L126.803419,153.468376 L108.328205,173.782906 Z"/>
    <path fill="#4143C5" fill-rule="nonzero" d="M99.6564103,222.208547 L99.6564103,222.124786 C113.264957,217.102564 124.774359,221.709402 125.705983,222.099145 C122.948718,222.832479 112.794872,225.059829 99.6564103,222.208547 Z"/>
    <path fill="#9BB4C9" fill-rule="nonzero" d="M104.976068,181.071795 L111.094017,216.136752 L111.907692,220.806838 L111.994872,221.297436 L113.647863,220.993162 L113.617094,220.808547 L112.781197,216.022222 L106.687179,181.097436 C106.425466,181.14981 106.15921,181.17615 105.892308,181.176068 C105.583822,181.178116 105.276206,181.143107 104.976068,181.071795 Z"/>
    <path fill="#4143C5" fill-rule="nonzero" d="M145.837607,148.133333 L149.989744,157.454701 L150.707692,159.068376 L156.986325,153.748718 L162.649573,148.500855 L166.044444,145.353846 L164.895726,144.353846 L164.895726,144.353846 L164.85641,144.338462 L164.822222,144.323077 L154.37094,139.878632 C153.820254,139.963099 153.276801,140.08939 152.745299,140.25641 C150.905983,140.815385 147.989744,142.136752 146.603419,145.094017 C146.443351,145.433492 146.308513,145.784299 146.2,146.14359 C146.002281,146.790499 145.880663,147.458255 145.837607,148.133333 L145.837607,148.133333 Z"/>
    <path fill="#859AD0" fill-rule="nonzero" d="M161.663248,155.670085 C165.813675,151.769231 167.635897,146.967521 165.733333,144.94359 C163.830769,142.919658 158.926496,144.442735 154.776068,148.34188 C150.625641,152.241026 148.805128,157.044444 150.707692,159.068376 C152.610256,161.092308 157.51453,159.569231 161.663248,155.670085 Z"/>
    <rect width="26.048" height="3.403" x="99.656" y="222.209" fill="#859AD0" fill-rule="nonzero"/>
    <path fill="#191E56" fill-rule="nonzero" d="M366.365812,307.852991 C366.365278,308.155188 366.307267,308.454525 366.194872,308.735043 C364.88547,312.073504 356.247863,314.649573 345.786325,314.649573 C335.201709,314.649573 326.482051,312.010256 325.336752,308.615385 L325.205128,307.852991 C325.205128,304.092308 334.420513,301.054701 345.786325,301.054701 C357.152137,301.054701 366.365812,304.099145 366.365812,307.852991 Z"/>
    <path fill="#0542BF" fill-rule="nonzero" d="M366.194872,308.735043 L359.097436,350.526496 C346.162393,357.890598 332.473504,350.526496 332.473504,350.526496 L325.335043,308.615385 C326.480342,312.010256 335.2,314.649573 345.784615,314.649573 C356.246154,314.649573 364.883761,312.073504 366.193162,308.735043 L366.194872,308.735043 Z"/>
    <path fill="#FFACA6" fill-rule="nonzero" d="M226.512821,143.023932 C226.512821,143.023932 228.252991,146.683761 226.811966,153.692308 C226.811966,153.692308 227.926496,157.111111 231.82906,157.035897 C235.731624,156.960684 237.723077,153.275214 237.723077,153.275214 C237.723077,153.275214 235.864957,150.287179 236.634188,143.94188 L236.687179,141.579487 L231.750427,138.234188 L226.512821,143.023932 Z"/>
    <path fill="#EA756C" fill-rule="nonzero" d="M226.287179,147.642735 C226.287179,147.642735 233.136752,146.288889 239.083761,150.960684 C239.083761,150.960684 239.483761,140.875214 239.752137,140.533333 C240.020513,140.191453 228.729915,135.145299 228.729915,135.145299 C228.729915,135.145299 224.748718,137.519658 224.642735,139.418803 C224.536752,141.317949 226.287179,147.642735 226.287179,147.642735 Z"/>
    <path fill="#1E2889" fill-rule="nonzero" d="M215.297436,123.777778 C215.297436,123.777778 205.160684,123.418803 210.841026,102.977778 C210.841026,102.977778 216.041026,106.894017 225.278632,107.422222 C234.516239,107.950427 244.817094,107.740171 246.092308,124.2 C246.622222,134.818803 236.641026,143.950427 236.641026,143.950427 L227.611966,138.217094 L215.297436,123.777778 Z"/>
    <path fill="#172272" fill-rule="nonzero" d="M207.94359,116.733333 C207.94359,116.733333 208.102564,117.919658 212.558974,116.733333 C217.015385,115.547009 222.673504,113.683761 230.080342,118.478632 C237.487179,123.273504 240.235897,133.22735 246.109402,132.032479 L241.707692,141.434188 L232.117949,147.646154 C232.117949,147.646154 216.834188,143.223932 216.242735,141.562393 C215.651282,139.900855 211.28547,129.623932 210.647863,128.042735 C210.010256,126.461538 209.109402,122.558974 209.109402,122.558974 L207.94359,116.733333 Z"/>
    <path fill="#FFACA6" fill-rule="nonzero" d="M214.871795,121.174359 C214.871795,121.174359 212.111111,144.324786 220.606838,145.65812 C229.102564,146.991453 234.729915,137.270085 234.729915,137.270085 C234.729915,137.270085 238.977778,136.738462 238.552137,132.225641 C238.126496,127.712821 234.791453,129.411966 234.791453,129.411966 C234.791453,129.411966 231.022222,127.765812 231.075214,123.782906 C231.075214,123.782906 226.509402,124.844444 224.437607,120.651282 C224.437607,120.651282 220.986325,123.044444 217.482051,119.376052 C217.473504,119.369231 216.57094,121.555556 214.871795,121.174359 Z"/>
    <path fill="#EA756C" fill-rule="nonzero" d="M213.280342,124.186325 C216.797747,124.503892 220.294072,125.022691 223.752137,125.740171 C228.888889,126.85641 231.596581,134.34188 237.052991,133.432479 C242.509402,132.523077 240.158974,129.552137 240.158974,129.552137 L235.061538,122.641026 L223.155556,118.779487 L215.947009,117.582906 L213.001709,119.976068 L213.280342,124.186325 Z"/>
    <path fill="#FFACA6" fill-rule="nonzero" d="M251.08547,201.613675 C251.08547,201.613675 242.367521,210.796581 235.735043,213.133333 C229.102564,215.470085 225.919658,213.107692 223.264957,218.482051 L222.733333,219.610256 C222.733333,219.610256 232.290598,222.687179 239.193162,219.292308 L260.218803,207.398291 L251.08547,201.613675 Z"/>
    <rect width="78.638" height="5.735" x="172.87" y="219.877" fill="#78C2FF" fill-rule="nonzero"/>
    <polygon fill="#B0D8FF" fill-rule="nonzero" points="230.621 225.612 162.128 225.612 152.221 177.614 220.713 177.614"/>
    <polygon fill="#78C2FF" fill-rule="nonzero" points="225.492 225.612 157 225.612 147.092 177.614 215.585 177.614"/>
    <rect width="34.135" height="15.092" x="351.029" y="200.366" fill="#DAEBFF" fill-rule="nonzero"/>
    <rect width="34.135" height="15.092" x="364.831" y="215.456" fill="#EBF5FF" fill-rule="nonzero"/>
    <ellipse cx="183.569" cy="197.602" fill="#FFF" fill-rule="nonzero" rx="6.446" ry="7.091" transform="rotate(-8.07 183.57 197.602)"/>
  </g>
</svg>
