<svg xmlns="http://www.w3.org/2000/svg" xmlns:xlink="http://www.w3.org/1999/xlink" viewBox="0 0 296.28 259.97"><defs><style>.cls-1{isolation:isolate;}.cls-2{opacity:0.48;fill:url(#linear-gradient);}.cls-3{fill:#83a5ea;}.cls-4{fill:url(#linear-gradient-2);}.cls-5{fill:url(#linear-gradient-3);}.cls-6{fill:url(#linear-gradient-4);}.cls-7{fill:url(#linear-gradient-5);}.cls-8{fill:#fff;}.cls-9{fill:#c69c6d;opacity:0.35;}.cls-10{fill:#29abe2;}.cls-11{fill:#0071bc;}.cls-12{fill:url(#linear-gradient-6);}.cls-13{fill:#d0e0f0;}.cls-14{fill:url(#linear-gradient-7);}.cls-15{fill:#0d3570;opacity:0.52;}.cls-16{fill:url(#linear-gradient-8);}.cls-17{fill:#f1f0fe;}.cls-18{fill:#212357;}.cls-19{fill:#4154a2;}.cls-20{fill:url(#New_Gradient_Swatch_4);}.cls-21{fill:url(#New_Gradient_Swatch_copy_6);}.cls-22{fill:url(#New_Gradient_Swatch_copy_6-2);}.cls-23{fill:url(#New_Gradient_Swatch_copy_6-3);}.cls-24{fill:url(#New_Gradient_Swatch_5);}.cls-25{fill:#ffb176;}.cls-26{fill:#0c0a33;}.cls-27{fill:#999;}.cls-28{fill:#848484;}.cls-29{fill:url(#New_Gradient_Swatch_4-2);}.cls-30{fill:#b7b7b7;}.cls-31{fill:#ad277a;}.cls-32{fill:#ff839e;}.cls-33{fill:#ff7294;}.cls-34{fill:#fe6796;}.cls-35{fill:#ea558e;}.cls-36{fill:#d03f88;}.cls-37{fill:#fbb03b;}.cls-38,.cls-39{mix-blend-mode:multiply;}.cls-38{fill:url(#radial-gradient);}.cls-39{fill:url(#radial-gradient-2);}.cls-40{fill:url(#New_Gradient_Swatch_copy_6-4);}.cls-41{fill:url(#New_Gradient_Swatch_copy_6-5);}.cls-42{stroke-miterlimit:10;stroke-width:0.5px;fill:url(#linear-gradient-9);stroke:url(#Sky_8);}.cls-43{fill:url(#linear-gradient-10);}.cls-44{fill:#4e2077;}.cls-45{fill:url(#New_Gradient_Swatch_copy_6-6);}.cls-46{fill:#2e3192;}.cls-47{fill:#b9e5fb;}.cls-48,.cls-49,.cls-50,.cls-51{mix-blend-mode:screen;opacity:0.71;}.cls-48{fill:url(#linear-gradient-11);}.cls-49{fill:url(#linear-gradient-12);}.cls-50{fill:url(#linear-gradient-13);}.cls-51{fill:url(#linear-gradient-14);}.cls-52{fill:url(#linear-gradient-15);}.cls-53{opacity:0.43;}.cls-54,.cls-59{fill:#fcee21;}.cls-55{fill:#f15a24;}.cls-55,.cls-57{opacity:0.37;}.cls-56{fill:#ff862c;}.cls-57{fill:#ce2c00;}.cls-58{fill:none;}.cls-59{opacity:0.74;}.cls-60{fill:#4d4d4d;}.cls-61{fill:url(#New_Gradient_Swatch_3);}.cls-62{fill:#ffd7b3;}.cls-63{fill:url(#New_Gradient_Swatch_5-2);}.cls-64{fill:#4154a3;}.cls-65{fill:url(#linear-gradient-16);}</style><linearGradient id="linear-gradient" x1="148.28" y1="23.25" x2="148.28" y2="217.74" gradientUnits="userSpaceOnUse"><stop offset="0.02" stop-color="#c7ddff"/><stop offset="0.17" stop-color="#c4d9fc"/><stop offset="0.31" stop-color="#bacef2"/><stop offset="0.45" stop-color="#aabbe1"/><stop offset="0.58" stop-color="#93a1ca"/><stop offset="0.71" stop-color="#757fac"/><stop offset="0.84" stop-color="#515588"/><stop offset="0.96" stop-color="#26255d"/><stop offset="1" stop-color="#1a1751"/></linearGradient><linearGradient id="linear-gradient-2" x1="144.67" y1="242.31" x2="148.6" y2="184.05" gradientUnits="userSpaceOnUse"><stop offset="0" stop-color="#c58ec9"/><stop offset="1" stop-color="#93529e"/></linearGradient><linearGradient id="linear-gradient-3" x1="107.28" y1="206.95" x2="263.27" y2="206.95" gradientUnits="userSpaceOnUse"><stop offset="0" stop-color="#734a79"/><stop offset="1" stop-color="#93529e"/></linearGradient><linearGradient id="linear-gradient-4" x1="224.79" y1="155.95" x2="224.79" y2="201.84" gradientUnits="userSpaceOnUse"><stop offset="0" stop-color="#2c2c7f"/><stop offset="0.21" stop-color="#3b439a"/><stop offset="0.56" stop-color="#44439a"/><stop offset="1" stop-color="#7065ac"/></linearGradient><linearGradient id="linear-gradient-5" x1="71" y1="155.95" x2="71" y2="201.84" xlink:href="#linear-gradient-4"/><linearGradient id="linear-gradient-6" x1="14.68" y1="208.1" x2="20.41" y2="208.1" gradientUnits="userSpaceOnUse"><stop offset="0" stop-color="#ffe8ab"/><stop offset="1" stop-color="#f9c2ab"/></linearGradient><linearGradient id="linear-gradient-7" x1="148.57" y1="182.54" x2="148.57" y2="176.51" gradientUnits="userSpaceOnUse"><stop offset="0" stop-color="#2e3389"/><stop offset="0.21" stop-color="#2f378e"/><stop offset="0.56" stop-color="#45469b"/><stop offset="1" stop-color="#5e58a4"/></linearGradient><linearGradient id="linear-gradient-8" x1="74.08" y1="133.71" x2="223.07" y2="133.71" xlink:href="#linear-gradient-7"/><linearGradient id="New_Gradient_Swatch_4" x1="-21884.43" y1="170.51" x2="-21883.76" y2="172.07" gradientTransform="matrix(-1, 0, 0, 1, -21814.51, 0)" gradientUnits="userSpaceOnUse"><stop offset="0" stop-color="#ffb176"/><stop offset="1" stop-color="#a67c52"/></linearGradient><linearGradient id="New_Gradient_Swatch_copy_6" x1="50.93" y1="168.62" x2="63.24" y2="168.62" gradientUnits="userSpaceOnUse"><stop offset="0" stop-color="#fec660"/><stop offset="0.22" stop-color="#fcb664"/><stop offset="0.64" stop-color="#f68d6e"/><stop offset="1" stop-color="#f16577"/></linearGradient><linearGradient id="New_Gradient_Swatch_copy_6-2" x1="49.34" y1="165.36" x2="54.4" y2="165.36" xlink:href="#New_Gradient_Swatch_copy_6"/><linearGradient id="New_Gradient_Swatch_copy_6-3" x1="61.18" y1="165.23" x2="66.72" y2="165.23" xlink:href="#New_Gradient_Swatch_copy_6"/><linearGradient id="New_Gradient_Swatch_5" x1="-21872" y1="157.93" x2="-21872.55" y2="155.92" gradientTransform="matrix(-1, 0, 0, 1, -21814.51, 0)" gradientUnits="userSpaceOnUse"><stop offset="0" stop-color="#ea9957"/><stop offset="0.97" stop-color="#a97c50"/></linearGradient><linearGradient id="New_Gradient_Swatch_4-2" x1="-21639.65" y1="1052.82" x2="-21638.46" y2="1055.6" gradientTransform="matrix(-1, 0.08, 0.08, 1, -21598.19, 795.28)" xlink:href="#New_Gradient_Swatch_4"/><radialGradient id="radial-gradient" cx="-8284.07" cy="28892.44" r="27.41" gradientTransform="matrix(0.16, -0.81, 0.35, 0.07, -8695.53, -8610.94)" gradientUnits="userSpaceOnUse"><stop offset="0" stop-color="#2e3192"/><stop offset="0.26" stop-color="#7274b6"/><stop offset="0.52" stop-color="#afb0d5"/><stop offset="0.73" stop-color="#dadbec"/><stop offset="0.9" stop-color="#f5f5fa"/><stop offset="1" stop-color="#fff"/></radialGradient><radialGradient id="radial-gradient-2" cx="-3534.16" cy="24171.81" r="27.41" gradientTransform="matrix(0.52, -0.65, 0.28, 0.22, -4789.99, -7562.67)" xlink:href="#radial-gradient"/><linearGradient id="New_Gradient_Swatch_copy_6-4" x1="118.35" y1="60.43" x2="135.75" y2="60.43" xlink:href="#New_Gradient_Swatch_copy_6"/><linearGradient id="New_Gradient_Swatch_copy_6-5" x1="161.55" y1="60.43" x2="178.95" y2="60.43" xlink:href="#New_Gradient_Swatch_copy_6"/><linearGradient id="linear-gradient-9" x1="148.65" y1="16.64" x2="148.65" y2="62.69" gradientUnits="userSpaceOnUse"><stop offset="0.02" stop-color="#662d91"/><stop offset="1" stop-color="#3d3d90"/></linearGradient><linearGradient id="Sky_8" x1="130.56" y1="37.41" x2="166.73" y2="37.41" gradientUnits="userSpaceOnUse"><stop offset="0" stop-color="#9ccde9"/><stop offset="0.39" stop-color="#fff"/><stop offset="0.48" stop-color="#f9fafc"/><stop offset="0.59" stop-color="#e8edf3"/><stop offset="0.73" stop-color="#cbd8e4"/><stop offset="0.87" stop-color="#a4bad0"/><stop offset="1" stop-color="#7a9abb"/></linearGradient><linearGradient id="linear-gradient-10" x1="147.68" y1="21.83" x2="149.93" y2="47.1" gradientUnits="userSpaceOnUse"><stop offset="0.02" stop-color="#7ed3f7"/><stop offset="1" stop-color="#0071bc"/></linearGradient><linearGradient id="New_Gradient_Swatch_copy_6-6" x1="137.32" y1="7.92" x2="159.98" y2="7.92" xlink:href="#New_Gradient_Swatch_copy_6"/><linearGradient id="linear-gradient-11" x1="146.42" y1="76.26" x2="141.85" y2="21.92" gradientUnits="userSpaceOnUse"><stop offset="0.02" stop-color="#b9e5fb"/><stop offset="1"/></linearGradient><linearGradient id="linear-gradient-12" x1="138.81" y1="19.27" x2="144.13" y2="7.7" xlink:href="#linear-gradient-11"/><linearGradient id="linear-gradient-13" x1="115.8" y1="80.13" x2="125.53" y2="58.99" xlink:href="#linear-gradient-11"/><linearGradient id="linear-gradient-14" x1="-18754.01" y1="80.13" x2="-18744.28" y2="58.99" gradientTransform="matrix(-1, 0, 0, 1, -18572.52, 0)" xlink:href="#linear-gradient-11"/><linearGradient id="linear-gradient-15" x1="148.84" y1="167.03" x2="148.84" y2="86.25" gradientUnits="userSpaceOnUse"><stop offset="0" stop-color="#fdc560"/><stop offset="0.22" stop-color="#fab364"/><stop offset="0.65" stop-color="#f48a6e"/><stop offset="1" stop-color="#f06677"/></linearGradient><linearGradient id="New_Gradient_Swatch_3" x1="-20019.02" y1="154.86" x2="-20017.43" y2="160.54" gradientTransform="matrix(-1, 0, 0, 1, -19928.97, 11.51)" gradientUnits="userSpaceOnUse"><stop offset="0" stop-color="#29abe2"/><stop offset="1" stop-color="#1b1464"/></linearGradient><linearGradient id="New_Gradient_Swatch_5-2" x1="-3631.46" y1="336.7" x2="-3631.63" y2="333.91" gradientTransform="translate(3844.87 218.65) rotate(6.6)" xlink:href="#New_Gradient_Swatch_5"/><linearGradient id="linear-gradient-16" x1="197.98" y1="163.28" x2="198.81" y2="150.25" gradientUnits="userSpaceOnUse"><stop offset="0" stop-color="#66499c"/><stop offset="0.45" stop-color="#8f4b9c"/><stop offset="0.8" stop-color="#af509d"/><stop offset="1" stop-color="#ba5399"/></linearGradient></defs><g class="cls-1"><g id="Layer_2" data-name="Layer 2"><g id="Layer_1-2" data-name="Layer 1"><path class="cls-2" d="M148.28,42.71a148,148,0,0,0-148,148h296A148,148,0,0,0,148.28,42.71Z"/><path class="cls-3" d="M276.84,117.6a17.75,17.75,0,0,0-1.82,1.12,16.8,16.8,0,0,0-6.93,11.57c-.38,3.15-.59,6.42.3,9.29a6.47,6.47,0,0,0-3.73-1.55,8.7,8.7,0,0,0-7.24,3.59c-2.15,2.82-3.2,6.17-.48,8.44-3.13-3-8.06-3.17-10.31.56a5.18,5.18,0,0,0-2.78-5.44,5.08,5.08,0,0,0-5.92,1.19c.43-4.19-3.17-8.12-7.32-8.84s-8.44,1.25-11.31,4.33a8.12,8.12,0,0,0-2.4,4.51,4.12,4.12,0,0,0,2.23,4.3c-.48,3-.86,5.36-1.33,8.33-1.23,7.72-2.46,15.62-1.06,23.31a34.49,34.49,0,0,0,2.68,8.39h76.71A147.34,147.34,0,0,0,276.84,117.6Z"/><path class="cls-3" d="M29,190.7a20.72,20.72,0,0,0,1.4-2.06c2.07-3.59,2.87-8.07,1.41-11.95a20.07,20.07,0,0,0,23.42-3.33c3.45-3.5,5.45-8.17,8.53-12a5.09,5.09,0,0,1,2.17-1.79c1.5-.52,3.11.29,4.5,1.07,5,2.81,10.41,5.6,16.1,5.07,7.29-.68,13.3-7.14,14.48-14.36s-1.94-14.73-7.16-19.86c-4.24-4.17-10.24-7-16.09-6s-10.87,6.94-9.62,12.75c-2.58-3.94-7.23-6.8-11.9-6.15s-8.63,5.58-7.3,10.1L44,144.44a6.22,6.22,0,0,0-7.83-4.86,23.1,23.1,0,0,0-11.54-22.73,22.66,22.66,0,0,0-3.8-1.65A147.39,147.39,0,0,0,.14,190.7Z"/><path class="cls-4" d="M1.3,198.16c1.23,1.73,3.32,2.19,5.22,2.41a49.74,49.74,0,0,1,8.64,1.49c2.65.77,5.9,1.72,7.81,4,2.15,2.51,1.08,5.61.38,8.48a9.27,9.27,0,0,0,.24,6.34,10,10,0,0,0,3.8,4c4,2.5,8.81,3.17,13.29,3.83,12.11,1.76,24.38,1.26,36.57,1s24.89,1.25,37.12,1.25c6.82,0,9.27,4.51,10.09,10.12.39,2.65,0,5.35.91,7.91a11.12,11.12,0,0,0,3,4.51c3,2.71,6.95,3.95,10.74,4.64,5.23.95,10.65.94,15.93,1,12.57.19,25.7,1.86,38.15,0,4.5-.67,9.25-3.64,12.62-7.29s3.42-9,5.1-13.45c3.95-10.49,16.38-11.12,25.43-11.81q9.6-.73,19.24-1c5.67-.18,11.82.41,17.28-1.52,4-1.43,7.93-5,8.39-9.72.24-2.5-.81-4.64-1.48-7-.94-3.21,0-5.89,2.89-7.32,3.73-1.85,8.21-1.25,11.54-4.13a6.19,6.19,0,0,0,1.9-5.17H.14C-.07,193-.27,196,1.3,198.16Z"/><path class="cls-5" d="M111.9,199.63h1c.72-.6,1.28-1.14,1.17-1.38-.39-.84.82-1.28,1.63-1.92a5.68,5.68,0,0,1,3.39-1.28q20.37-.6,40.76-1,12-.24,24-.43l39.44-.67a6.5,6.5,0,0,1,3.43-1h29.95a6.58,6.58,0,0,1,6.56,6.56h0q0,.32,0,.63c.35,2.59-2.4,5.25-5.27,5.86-3.26.7-6.67-.1-10,.33h-7a4.69,4.69,0,0,0-4.73,4.35,9.58,9.58,0,0,0-.28,3.75,7.54,7.54,0,0,1-.17,3.31,6.16,6.16,0,0,1-3,3,13.42,13.42,0,0,1-5.67,1.57,3,3,0,0,1-1.77.57H155.81a2.9,2.9,0,1,1,0-5.79h11.46c.13-.1.34-.12.45-.24a3.93,3.93,0,0,0,3.11-3.63c0-2.05-2.08-3.73-4.61-3.73H111.9a4.55,4.55,0,0,1-4.62-4.45h0A4.55,4.55,0,0,1,111.9,199.63Z"/><path class="cls-6" d="M292.45,195.34c.87-.19,1.75-.37,2.62-.57,1.42-4.31-1.46-9.48-5.36-10.58s-8.13,1.33-10.41,5.12c4-8.11,1.66-19.55-5.07-24.76s-16.84-3.41-21.88,3.9a8.82,8.82,0,0,0-5.24-7.46,7.19,7.19,0,0,0-8.06,2.5c.1-8-5.83-15.53-12.79-16.21-12.46,1.72-25.49,4.3-35.7,12.71-3.28,2.71-6.2,6-9.72,8.34-5,3.28-10.93,4.24-16.26,6.83s-10.47,7.8-10.44,14.44a12.13,12.13,0,0,0,1.45,5.74Z"/><path class="cls-7" d="M3.34,195.34c-.87-.19-1.75-.37-2.62-.57-1.42-4.31,1.46-9.48,5.36-10.58s8.13,1.33,10.41,5.12c-4-8.11-1.66-19.55,5.07-24.76s16.84-3.41,21.88,3.9A8.82,8.82,0,0,1,48.68,161a7.19,7.19,0,0,1,8.06,2.5c-.1-8,5.83-15.53,12.79-16.21C82,149,95,151.58,105.23,160c3.29,2.71,6.2,6,9.72,8.34,5,3.28,10.93,4.24,16.26,6.83s10.47,7.8,10.44,14.44a12.13,12.13,0,0,1-1.45,5.74Z"/><path class="cls-8" d="M186.18,225.33h15.61a2.49,2.49,0,1,1,0,5H186.18a2.49,2.49,0,0,1,0-5Z"/><path class="cls-9" d="M60.18,199.45h27.2a4.33,4.33,0,0,1,0,8.65H60.18a4.33,4.33,0,1,1,0-8.65Z"/><path class="cls-10" d="M127.76,40.19A2.85,2.85,0,0,0,124.91,43a2.86,2.86,0,0,0-2.85-2.85,2.85,2.85,0,0,0,2.85-2.85A2.84,2.84,0,0,0,127.76,40.19Z"/><path class="cls-11" d="M173.29,82.08a3,3,0,0,0-3,3,3,3,0,0,0-3.05-3,3.05,3.05,0,0,0,3.05-3A3,3,0,0,0,173.29,82.08Z"/><path class="cls-8" d="M287.54,206.55a4.34,4.34,0,0,0-4.34,4.35,4.35,4.35,0,0,0-4.35-4.35,4.34,4.34,0,0,0,4.35-4.34A4.34,4.34,0,0,0,287.54,206.55Z"/><path class="cls-8" d="M121.39,247.34a3.26,3.26,0,0,0-3.27,3.26,3.26,3.26,0,0,0-3.26-3.26,3.26,3.26,0,0,0,3.26-3.26A3.26,3.26,0,0,0,121.39,247.34Z"/><path class="cls-12" d="M20.41,208.1A2.87,2.87,0,0,0,17.55,211a2.88,2.88,0,0,0-2.87-2.87,2.87,2.87,0,0,0,2.87-2.86A2.86,2.86,0,0,0,20.41,208.1Z"/><path class="cls-8" d="M236.38,130.43a5.36,5.36,0,0,0-5.36,5.36,5.36,5.36,0,0,0-5.36-5.36,5.36,5.36,0,0,0,5.36-5.36A5.36,5.36,0,0,0,236.38,130.43Z"/><path class="cls-10" d="M15.44,172.92a3.82,3.82,0,0,0-3.82,3.82,3.82,3.82,0,0,0-3.82-3.82,3.82,3.82,0,0,0,3.82-3.82A3.82,3.82,0,0,0,15.44,172.92Z"/><path class="cls-13" d="M255.31,213a3.08,3.08,0,0,1-3.08,3.08h-6.1a3.08,3.08,0,1,1,0-6.16h6.1A3.09,3.09,0,0,1,255.31,213Z"/><rect class="cls-14" x="132.02" y="179.51" width="33.11" height="15.83"/><rect class="cls-15" x="119.94" y="195.34" width="57.27" height="3.88"/><rect class="cls-16" x="74.08" y="87.91" width="148.98" height="91.6" rx="6.33"/><rect class="cls-17" x="80.96" y="94.07" width="135.76" height="74.99"/><rect class="cls-15" x="80.96" y="169.1" width="135.76" height="4.55"/><path class="cls-8" d="M266.47,173.65a2.11,2.11,0,1,1,2.11,2.11A2.11,2.11,0,0,1,266.47,173.65Zm.71,0a1.4,1.4,0,1,0,1.4-1.4A1.4,1.4,0,0,0,267.18,173.65Z"/><path class="cls-8" d="M36.48,96.36a2.29,2.29,0,1,1,2.29,2.29A2.29,2.29,0,0,1,36.48,96.36Zm.76,0a1.53,1.53,0,1,0,1.53-1.52A1.53,1.53,0,0,0,37.24,96.36Z"/><path class="cls-8" d="M55.57,221.8a2.29,2.29,0,1,1,2.29,2.29A2.3,2.3,0,0,1,55.57,221.8Zm.76,0a1.53,1.53,0,1,0,1.53-1.52A1.53,1.53,0,0,0,56.33,221.8Z"/><path class="cls-11" d="M24.06,168.62a2.29,2.29,0,1,1,2.29,2.29A2.3,2.3,0,0,1,24.06,168.62Zm.77,0a1.52,1.52,0,1,0,1.52-1.52A1.52,1.52,0,0,0,24.83,168.62Z"/><path class="cls-18" d="M120.43,185H52c-4.7,0-8.55,3.28-8.55,7.29h0c0,4,3.85,7.29,8.55,7.29h68.42c4.7,0,8.55-3.28,8.55-7.29h0C129,188.24,125.13,185,120.43,185Z"/><path d="M73.31,197.15a17.69,17.69,0,0,0,2.81,3.11,6.2,6.2,0,0,0,3.82,1.52,2.11,2.11,0,0,1-2,1.83,5.34,5.34,0,0,1-2.81-.72,8.4,8.4,0,0,0-2.75-1,1.85,1.85,0,0,1-.41-.07,1.22,1.22,0,0,1-.61-.92,8.49,8.49,0,0,1-.19-3,3.39,3.39,0,0,0,1.94-.3C73.25,197.58,73.43,197.14,73.31,197.15Z"/><path class="cls-19" d="M57,178.42a9.76,9.76,0,0,0,1.38,3.29,5.55,5.55,0,0,0,2.77,2.17,8.2,8.2,0,0,0,2.42.3,46.35,46.35,0,0,0,4.71-.18,52.6,52.6,0,0,0,2.83,14.16,5.45,5.45,0,0,0,2.72-.77,88.57,88.57,0,0,1-.54-15.78c0-.65-.75-1.08-1.39-1.19a22.92,22.92,0,0,1-9.3-3.83A12.66,12.66,0,0,1,57,178.42Z"/><path d="M65.85,199.79a17.73,17.73,0,0,0,2.24,3.53,6.2,6.2,0,0,0,3.51,2.16,2.11,2.11,0,0,1-2.26,1.46,5.37,5.37,0,0,1-2.65-1.19,8.64,8.64,0,0,0-2.54-1.47,1.82,1.82,0,0,1-.39-.14,1.23,1.23,0,0,1-.44-1,8.25,8.25,0,0,1,.32-3,3.31,3.31,0,0,0,2,0C65.72,200.2,66,199.79,65.85,199.79Z"/><path class="cls-19" d="M52.92,178.55a9.82,9.82,0,0,0,.8,3.47,5.45,5.45,0,0,0,2.36,2.61,8.17,8.17,0,0,0,2.33.71,43.26,43.26,0,0,0,4.67.62,53,53,0,0,0,.39,14.44,5.52,5.52,0,0,0,2.81-.3,89.44,89.44,0,0,1,2.14-15.64c.16-.63-.55-1.2-1.16-1.41a22.7,22.7,0,0,1-8.51-5.36A12.54,12.54,0,0,1,52.92,178.55Z"/><path class="cls-20" d="M66.16,168a4.09,4.09,0,0,1,2.25.73,40.83,40.83,0,0,0,6.46,3.51,10.64,10.64,0,0,1-2.53.86,17.85,17.85,0,0,0-2.44-1.3c-1.19-.5-2.42-.87-3.6-1.37a3.16,3.16,0,0,1-1.54-1.11C65.09,168.76,65.52,168,66.16,168Z"/><path class="cls-21" d="M63.24,161.38A4.11,4.11,0,0,0,61,159a10.18,10.18,0,0,0-3.28-.75,7.6,7.6,0,0,0-3.36.25,3.64,3.64,0,0,0-1.83,1.25,6.79,6.79,0,0,0-.89,2.15,20.82,20.82,0,0,0-.68,5.83c0,.86.11,1.73.19,2.59A26.54,26.54,0,0,0,53,178.92a.83.83,0,0,0,.09.16,7.18,7.18,0,0,1,2-.32c2.73-.25,5.38-1.17,8.13-1.35A9.25,9.25,0,0,1,62,173.75c-.16-.86-.33-1.73-.48-2.59a12.46,12.46,0,0,1-.22-1.61,13.83,13.83,0,0,1,0-1.44c0-1.13.08-2.27.16-3.4a6.25,6.25,0,0,1,.63-2.77A1,1,0,0,1,63.24,161.38Z"/><path class="cls-22" d="M53.66,159a.87.87,0,0,1,.65.58,2.16,2.16,0,0,1,.08.91c-.21,3.36-1.94,6.62-1.38,9.94a5,5,0,0,1-3.12,1.41,15.65,15.65,0,0,1,.29-9.14,8.41,8.41,0,0,1,.61-1.37C51.44,160.15,52.36,158.77,53.66,159Z"/><path class="cls-23" d="M62.64,160.36a6.88,6.88,0,0,1,1.2,2.29,19.85,19.85,0,0,0,2.88,4.94l-1.89,2.51a5.13,5.13,0,0,1-.9-.62l-2-1.63a4.16,4.16,0,0,1-.74-.71c.09-1,.19-2,.32-3q.09-.78.21-1.56A3.35,3.35,0,0,1,62.64,160.36Z"/><path class="cls-24" d="M58.72,158.76a7.07,7.07,0,0,1,0-1.72c0,.18-1.34-.62-1.44-.77s-.1-.66-.43-.51c-.5.25-.68,2.41-.71,2.85A2.05,2.05,0,0,0,58.72,158.76Z"/><path class="cls-25" d="M62.48,155.05a5,5,0,0,1-2,2.73,3.09,3.09,0,0,1-3.37,0,3.85,3.85,0,0,1-1.22-2.39,8.13,8.13,0,0,1,.61-5.64,4.05,4.05,0,0,1,1-1.23,3.69,3.69,0,0,1,4.16-.13C64,149.87,63.21,152.93,62.48,155.05Z"/><path class="cls-26" d="M64.36,149.18a1.64,1.64,0,0,1-.57,1.35,3.38,3.38,0,0,1-1.35.68,6.79,6.79,0,0,1-3.74,0,.91.91,0,0,1-1.17.95,1,1,0,0,1-.85,1.22,2.13,2.13,0,0,0,.48-1.2c0-.44-.47-.88-.88-.71a.87.87,0,0,0-.35.36,1.77,1.77,0,0,0,.52,2.26c.06,0,.13.1.11.16s-.15,0-.08,0a1.89,1.89,0,0,1-.63,1.78s-.05,0-.08,0a.08.08,0,0,1-.05-.05,7.11,7.11,0,0,1-1-2.07,2.38,2.38,0,0,1,.43-2.15,4.91,4.91,0,0,1,.84-3.65,3.24,3.24,0,0,1,1-.92,4,4,0,0,1,2.52-.22,10.6,10.6,0,0,1,2.35.7,5.6,5.6,0,0,0,1.12.42,1.34,1.34,0,0,0,1.13-.26.46.46,0,0,1,.18-.13c.2,0,.32.24.31.45C64.62,148.74,64.83,148.79,64.36,149.18Z"/><path class="cls-27" d="M64.72,179.14l-4.92-1a.27.27,0,0,1,0-.53l12.48-1.5a.26.26,0,0,1,.19,0l2.16,1.57a.27.27,0,0,1-.13.49l-9.72.91A.22.22,0,0,1,64.72,179.14Z"/><path class="cls-28" d="M72.3,176.12l-12.48,1.5,0,0h0l4.92,1h.08l9.72-.91.08,0-2.11-1.54A.26.26,0,0,0,72.3,176.12Z"/><path class="cls-29" d="M52.91,170.6a3.49,3.49,0,0,1,1,.4,74.17,74.17,0,0,1,7,4.21c.35.24.86,0,1.28-.07a1.65,1.65,0,0,1,.54,0,1.17,1.17,0,0,1,.43.22l1,.69a1.72,1.72,0,0,1,.68.71.6.6,0,0,1-.35.81c-.6.11-.93.65-1.51.86a1.38,1.38,0,0,1-.72.1,1.28,1.28,0,0,1-.8-.68,3.88,3.88,0,0,0-.62-.88c-1.71-1.54-4-1.78-6.18-2.61a11.62,11.62,0,0,1-2.2-1,3.86,3.86,0,0,1-1.55-1.82A9.6,9.6,0,0,0,52.91,170.6Z"/><path class="cls-30" d="M77.55,169.9l-10,.73a.61.61,0,0,0-.53.4l-2.62,7.37a.6.6,0,0,0,.63.8l9.82-.91a.6.6,0,0,0,.51-.38l2.74-7.2A.59.59,0,0,0,77.55,169.9Z"/><path class="cls-13" d="M34.61,180.05h15a3.69,3.69,0,0,1,0,7.38h-15a3.69,3.69,0,0,1,0-7.38Z"/><path class="cls-8" d="M99.93,234.58h14.61a3.81,3.81,0,0,1,0,7.61H99.93a3.81,3.81,0,0,1,0-7.61Z"/><rect class="cls-31" x="176.82" y="179.54" width="33.11" height="26.95" transform="translate(386.74 386.04) rotate(180)"/><rect class="cls-32" x="191.45" y="179.54" width="25.87" height="5.39" transform="translate(408.77 364.48) rotate(180)"/><rect class="cls-33" x="195.71" y="184.93" width="26.14" height="5.39" transform="translate(417.55 375.26) rotate(180)"/><rect class="cls-34" x="200.13" y="190.32" width="26.14" height="5.39" transform="translate(426.39 386.04) rotate(180)"/><rect class="cls-35" x="204.34" y="195.71" width="26.14" height="5.39" transform="translate(434.83 396.82) rotate(180)"/><rect class="cls-36" x="208.64" y="201.1" width="26.14" height="5.39" transform="translate(443.43 407.6) rotate(180)"/><path class="cls-37" d="M164.64,199.18h15a3.69,3.69,0,0,1,0,7.37h-15a3.69,3.69,0,1,1,0-7.37Z"/><path class="cls-38" d="M135.42,115.71c-2.41,12.32,0,23.15,5.27,24.19s11.59-8.1,14-20.42.05-23.14-5.27-24.19S137.83,103.4,135.42,115.71Z"/><path class="cls-39" d="M129,130.57c-7.84,9.8-10.77,20.48-6.54,23.87s14-1.8,21.87-11.6,10.78-20.48,6.54-23.87S136.88,120.77,129,130.57Z"/><path class="cls-40" d="M131.41,46.27s-11.87,11-13,25.64c0,0-1,5.21,4.72,1.08s9.58-5.62,12.61-6.23C135.75,66.76,130.57,50.61,131.41,46.27Z"/><path class="cls-41" d="M165.88,46.27s11.87,11,13,25.64c0,0,1,5.21-4.73,1.08s-9.57-5.62-12.6-6.23C161.55,66.76,166.72,50.61,165.88,46.27Z"/><path class="cls-42" d="M148.65.2S116.71,23,138.31,74.58H159C180.59,23,148.65.2,148.65.2"/><ellipse class="cls-43" cx="148.65" cy="32.67" rx="11.13" ry="10.75"/><path class="cls-44" d="M157.82,78.16H139.48a1.8,1.8,0,0,1-1.8-1.79h0a1.8,1.8,0,0,1,1.8-1.79h18.34a1.79,1.79,0,0,1,1.79,1.79h0A1.79,1.79,0,0,1,157.82,78.16Z"/><path class="cls-45" d="M160,14.07C154.88,4.66,148.65.2,148.65.2s-6.24,4.46-11.33,13.87C137.35,14.09,148.8,17.59,160,14.07Z"/><path class="cls-46" d="M159,32.69a10.39,10.39,0,0,1-20.76,0,10.39,10.39,0,0,1,20.76,0Z"/><path class="cls-47" d="M156.42,32.69a7.78,7.78,0,1,1-7.77-7.51A7.64,7.64,0,0,1,156.42,32.69Z"/><path class="cls-48" d="M151.41,2.61c-.78-.76-1.44-1.34-1.91-1.74-4.92,4.1-29,27.2-9.49,73.71h3.83C126.25,32.59,144.15,9.68,151.41,2.61Z"/><path class="cls-49" d="M149.5.87a36.69,36.69,0,0,0-10.7,13.59l3.49.66S143.64,10.49,149.5.87Z"/><path class="cls-50" d="M131.94,52.42a19.91,19.91,0,0,1-.53-6.15s-11.87,11-13,25.64c0,0-.37,1.87.58,2.48.4-.54.32-1.86.47-2.48a18.84,18.84,0,0,1,1.23-3.39A54.19,54.19,0,0,1,131.94,52.42Z"/><path class="cls-51" d="M165.35,52.42a19.3,19.3,0,0,0,.53-6.15s11.87,11,13,25.64c0,0,.36,1.87-.58,2.48-.41-.54-.33-1.86-.47-2.48a18.87,18.87,0,0,0-1.24-3.39A53.83,53.83,0,0,0,165.35,52.42Z"/><path class="cls-52" d="M216.85,149.1v21.18H81V148.85l.09,0-.08,0c-.3-.13-.06-.56.23-.45a4.91,4.91,0,0,1,3,4.2h0C84.09,149,89,147.43,92,148.12s5.79,4.12,5.27,7.36a5.17,5.17,0,0,1,2.49-.9,5.87,5.87,0,0,1,3.33.75,9,9,0,0,1,2.21-9.1c2.67-2.55,8-3.38,10.94-.79a10.47,10.47,0,0,1,4.55-7.83c2.62-1.77,6.94-2.56,9.91-1a4.89,4.89,0,0,1,4.38-7.05c4.26-4.72,5.9-10.93,7.12-17.07a74.74,74.74,0,0,0,1.33-10.43c.16-2.82,0-5.62,0-8.44-2.33-.78-3-4.06-1.8-6a6.42,6.42,0,0,1-3.4-5c-.17-1.44.21-4.13,1.93-4.42a.12.12,0,0,1,.1-.19c5.6-.2,11.2-.21,16.8,0,.18,0,.21.19.13.31,1.39.59,1.7,3,1.55,4.3a6.44,6.44,0,0,1-3.4,5c1.14,2,.52,5.24-1.8,6,0,2.82-.13,5.62,0,8.44A76.27,76.27,0,0,0,155,112.49c1.22,6.14,2.86,12.35,7.12,17.07a4.89,4.89,0,0,1,4.38,7.05c3-1.56,7.29-.77,9.92,1a10.46,10.46,0,0,1,4.54,7.83c3-2.59,8.27-1.76,11,.79a9,9,0,0,1,2.2,9.1,5.9,5.9,0,0,1,3.34-.75,5.17,5.17,0,0,1,2.49.9c-.52-3.24,2.22-6.65,5.26-7.36,2.79-.66,7.42.76,7.68,4a5.3,5.3,0,0,1,3.71-3,.19.19,0,0,1,.15,0Z"/><g class="cls-53"><path class="cls-54" d="M157.41,138.46a.84.84,0,0,1-.14-.06A.35.35,0,0,0,157.41,138.46Z"/><path class="cls-54" d="M216.73,149.12a.19.19,0,0,0-.15,0,5.3,5.3,0,0,0-3.71,3c-.26-3.23-4.89-4.65-7.68-4-3,.71-5.78,4.12-5.26,7.36a5.17,5.17,0,0,0-2.49-.9,5.9,5.9,0,0,0-3.34.75,9,9,0,0,0-2.2-9.1c-2.68-2.55-8-3.38-11-.79a10.46,10.46,0,0,0-4.54-7.83c-2.63-1.77-6.95-2.56-9.92-1a4.89,4.89,0,0,0-4.38-7.05c-4.26-4.72-5.9-10.93-7.12-17.07a76.27,76.27,0,0,1-1.33-10.43c-.16-2.82,0-5.62,0-8.44,2.32-.78,2.94-4.06,1.8-6a6.44,6.44,0,0,0,3.4-5c.15-1.33-.16-3.71-1.55-4.3.08-.12.05-.3-.13-.31-1.52-.06-3.05-.09-4.58-.12a6.43,6.43,0,0,1,2,3.74,7.62,7.62,0,0,1-1,5,6,6,0,0,1-2.17,2.26,4,4,0,0,1-2.65.53,5.81,5.81,0,0,0,5.06-.41A6.44,6.44,0,0,1,147,94.36a6.62,6.62,0,0,0,3.78,1.24c-.45,9.51-.81,19.51,3.44,28a41.19,41.19,0,0,0,4.36,7.05,6.86,6.86,0,0,0-2.76,4.66c-.08,1.22.37,2.67,1.5,3.06-.27-.2-.18-.88-.18-1.27a4.08,4.08,0,0,1,1.26-2.74,3.12,3.12,0,0,1,2.49-1.09,2.94,2.94,0,0,1,2.06,1.48,4.79,4.79,0,0,1-1,6c.69.13,1.6-.55,2-1.09a5.31,5.31,0,0,0,.89-1.91,3.87,3.87,0,0,1-.22,3.71,6.76,6.76,0,0,1-4.29,3.27,5.82,5.82,0,0,0,4.25-1.33,9.27,9.27,0,0,0,2.63-3.69,7,7,0,0,1,7.6,1.66,11.57,11.57,0,0,1,3,7.41,2.91,2.91,0,0,1,2.68-.34,2.92,2.92,0,0,1,2.6-1.37,4.55,4.55,0,0,1,2.79,1.15,6.57,6.57,0,0,1,.95,8.7c-.11.14-.36.08-.5.2s.1.14.13.13c.75.84,1.71,1.14,2.45,2a4.78,4.78,0,0,1,5.19-.69,8.61,8.61,0,0,1,3.84,3.89c1.1-1.84,2.5-3.81,4.61-4.21a4,4,0,0,1,4.18,5.82,4,4,0,0,0,.39-5.33,7.84,7.84,0,0,1,4,9.19,8,8,0,0,0,.26-9.43,3.07,3.07,0,0,1,3.17,2,1.4,1.4,0,0,1,1.53-.89,1.37,1.37,0,0,1,.81.51v-11Z"/><path class="cls-54" d="M148.25,89.23c0,.07.08.11.15.13a2.59,2.59,0,0,0,.4.09,3.62,3.62,0,0,1-.45-.2C148.41,89.21,148.26,89.16,148.25,89.23Z"/></g><path class="cls-55" d="M81,158.54a2.16,2.16,0,0,1,.49-.16c1.19-.21,2.47.13,3.59-.31.55-.21,1-.6,1.58-.78,1.75-.58,3.44.93,4.66,2.31a9.23,9.23,0,0,0-3.94,8.22c2.06-3.76,5-7.94,9.23-8A8,8,0,0,0,92,167.43a12.12,12.12,0,0,1,17.81-5.77l-4.71-4.5a3.77,3.77,0,0,1-.84-1,3,3,0,0,1-.15-1.71c.45-3.28,3.72-6.34,6.87-5.34a2.55,2.55,0,0,1,1.21.73,4.17,4.17,0,0,1,.68,1.57,15.88,15.88,0,0,0,5.21,7.75,10.71,10.71,0,0,1,.5-14.32,6,6,0,0,0,.38,5.12,7.82,7.82,0,0,1,2.45-6.86,19.54,19.54,0,0,1,6.48-3.87,4.57,4.57,0,0,1,2.81-.49,8.47,8.47,0,0,1,1.79.93,5.68,5.68,0,0,0,5.37,0c-2.06.27-3.84-1.68-4.34-3.7a4.16,4.16,0,0,1,.18-2.85,8.05,8.05,0,0,1,2-2.08,9.8,9.8,0,0,0,3.18-7.18l-.09-.08a23.37,23.37,0,0,1-3.77,5.78,4.89,4.89,0,0,0-4.38,7.05c-3-1.56-7.29-.77-9.91,1a10.47,10.47,0,0,0-4.55,7.83c-3-2.59-8.27-1.76-10.94.79a9,9,0,0,0-2.21,9.1,5.87,5.87,0,0,0-3.33-.75,5.17,5.17,0,0,0-2.49.9c.52-3.24-2.23-6.65-5.27-7.36s-7.86.9-7.69,4.48h0a4.91,4.91,0,0,0-3-4.2c-.29-.11-.53.32-.23.45l.08,0-.09,0Z"/><path class="cls-56" d="M136.7,103.54a2.11,2.11,0,1,1,2.1,2.11A2.1,2.1,0,0,1,136.7,103.54Zm.7,0a1.41,1.41,0,1,0,1.4-1.4A1.4,1.4,0,0,0,137.4,103.54Z"/><path class="cls-56" d="M125.24,115.36a.88.88,0,1,1,.88.87A.87.87,0,0,1,125.24,115.36Zm.29,0a.59.59,0,0,0,1.17,0,.59.59,0,1,0-1.17,0Z"/><path class="cls-54" d="M167.61,146.4a.88.88,0,1,1,.88.88A.88.88,0,0,1,167.61,146.4Zm.3,0a.58.58,0,0,0,.58.59.59.59,0,1,0,0-1.17A.58.58,0,0,0,167.91,146.4Z"/><path class="cls-54" d="M141.67,155.87a1.25,1.25,0,1,1,1.25,1.25A1.25,1.25,0,0,1,141.67,155.87Zm.42,0a.83.83,0,1,0,.83-.83A.83.83,0,0,0,142.09,155.87Z"/><path class="cls-54" d="M123.64,138.4a1.27,1.27,0,1,1,1.27,1.27A1.27,1.27,0,0,1,123.64,138.4Zm.43,0a.84.84,0,1,0,.84-.84A.84.84,0,0,0,124.07,138.4Z"/><path class="cls-56" d="M176.48,128.57a.88.88,0,1,1,.87.88A.87.87,0,0,1,176.48,128.57Zm.29,0a.58.58,0,0,0,.58.58.59.59,0,0,0,.59-.58.6.6,0,0,0-.59-.59A.59.59,0,0,0,176.77,128.57Z"/><path class="cls-56" d="M95.77,143.93a2.71,2.71,0,0,1,2.71,2.71,2.71,2.71,0,0,1,2.72-2.71,2.72,2.72,0,0,1-2.72-2.72A2.71,2.71,0,0,1,95.77,143.93Z"/><path class="cls-56" d="M197.23,139.34a1.79,1.79,0,0,1,1.79,1.78,1.78,1.78,0,0,1,1.78-1.78,1.78,1.78,0,0,1-1.78-1.78A1.79,1.79,0,0,1,197.23,139.34Z"/><path class="cls-57" d="M143.69,165.94a7,7,0,0,0-7.35,4,5.44,5.44,0,0,0-9.34-.25,2,2,0,0,0-3-.68,5.76,5.76,0,0,0-11.49.15,4.26,4.26,0,0,0-7.61-1.28A7,7,0,0,0,91,166.83a3.2,3.2,0,0,0-4.78-1.62,5.23,5.23,0,0,0-4.31-9,2.19,2.19,0,0,0-1,.41v13.65H148.9A7,7,0,0,0,143.69,165.94Z"/><path class="cls-57" d="M216.77,161.49a6.61,6.61,0,0,0-5.05,2.1,9.61,9.61,0,0,0-2.39,5,3.65,3.65,0,0,0-3-4,3.11,3.11,0,0,0-3.31,3.47,6,6,0,0,0-5.41,1.16,4.65,4.65,0,0,0-3.92-3.61,4,4,0,0,0-4.2,3.06,4.29,4.29,0,0,0-3.89-4.92c-2.38-.08-4.81,1.91-4.5,4.27a1.66,1.66,0,0,0-2.4-.36,2.25,2.25,0,0,0-.12-2.65,2.23,2.23,0,0,0-2.59-.57,7.09,7.09,0,0,0-.26-1.78,3.44,3.44,0,0,0-4.16,3.57.28.28,0,0,1-.54.16c-.82-2.39-2.88-.54-2.8,1l.12,0c.25.05.15.43-.07.39,0,0-.1.06-.12,0s0,0,0,0a2.47,2.47,0,0,0-1.89-.12c-.08,0-.15,0-.16-.12-.09-1.45-.54-3.44-2.18-3.86-1.94-.49-4.45,1.81-4.17,3.77h0s0,0,0,0h0a.1.1,0,0,1-.08,0v.05a2.92,2.92,0,0,0-3.64,2.69,3.83,3.83,0,0,0-3.29-1.4,2.68,2.68,0,0,0-2,1.46h66.14V161.5Z"/><path class="cls-58" d="M181,145.44l.09-.07a4.42,4.42,0,0,0-.15-.48A5.14,5.14,0,0,1,181,145.44Z"/><path class="cls-59" d="M157.69,83.45a6.94,6.94,0,0,1-4.12,4.87l1.52.4a7.1,7.1,0,0,1-4.44,6.47,3.9,3.9,0,0,0,1.92,0c-.89,12,.58,24.67,7.15,34.77a2,2,0,0,0,.81.83,2.94,2.94,0,0,0,1.07.13,4,4,0,0,1,3.4,5.13c.71.64,1.42,1.28,2.14,1.91a11,11,0,0,1,13.75,6.91,10.5,10.5,0,0,0-4.48-7.28c-2.63-1.77-6.95-2.56-9.92-1a4.89,4.89,0,0,0-4.38-7.05c-4.26-4.72-5.9-10.93-7.12-17.07a76.27,76.27,0,0,1-1.33-10.43c-.16-2.82,0-5.62,0-8.44,2.32-.78,2.94-4.06,1.8-6a6.44,6.44,0,0,0,3.4-5c.15-1.33-.16-3.71-1.55-4.3.08-.12.05-.3-.13-.31l-.74,0c.31.71,1,1.59,1.12,2.07A6.76,6.76,0,0,1,157.69,83.45Z"/><path class="cls-54" d="M181.13,145.65c0-.13,0-.25,0-.38l-.13.1C181.07,145.46,181.11,145.56,181.13,145.65Z"/><path class="cls-54" d="M141.46,86.23c-2.86-1.53-2-6-.39-8,.22-.28-.25-.67-.48-.4a6.21,6.21,0,0,0-1.48,4.87c.19,1.36.85,3.27,2.26,3.75A.11.11,0,0,0,141.46,86.23Z"/><path class="cls-54" d="M142.75,87c-.3,0-.29.47,0,.45h.09a.17.17,0,0,0,.24-.14A.3.3,0,0,0,142.75,87Z"/><path class="cls-54" d="M146,110.67a.85.85,0,0,0-1.16-.51.21.21,0,0,0-.09.29.72.72,0,0,0-.58.91.91.91,0,0,0,1.25.45A.93.93,0,0,0,146,110.67Zm-.63.75a.62.62,0,0,1-.83-.09.45.45,0,0,1,.29-.61.12.12,0,0,0,.09-.13.28.28,0,0,0,.13,0c-.14,0,.1,0,.15,0a.47.47,0,0,1,.33.14C145.73,110.93,145.58,111.26,145.33,111.42Z"/><path class="cls-8" d="M194.7,84.78,195,85h85.21a3.25,3.25,0,0,0-1.82-3.42c-1.63-.7-3.54.07-5.26-.32a5.7,5.7,0,0,1-3.65-3.43,31.52,31.52,0,0,1-1.39-5c-1.07-4.18-2.84-8.95-6.68-10.91a15.22,15.22,0,0,0-14,.19c-3.39,1.86-5.92,4.93-8.82,7.49s-6.61,4.74-10.43,4.13c-4.43-.7-7.63-4.89-12-5.83a8.84,8.84,0,0,0-7.53,2c-2,1.73-3.06,4.25-4,6.7-.74,1.89-1.77,4.07-3.77,4.41-1.81.31-3.68-1.1-5.41-.49A2.6,2.6,0,0,0,194.7,84.78Z"/><path class="cls-8" d="M1.42,110.36a2.76,2.76,0,1,0,2.75-2.75A2.75,2.75,0,0,0,1.42,110.36Z"/><path class="cls-8" d="M13.44,112.87a3.44,3.44,0,0,1,.29-6.23c1-.4,2.13-.35,3-.94,1.25-.84,1.43-2.56,1.61-4.06.25-2.09.86-4.31,2.54-5.59.56-.43.87-1.28,1.53-1.55a9,9,0,0,1,4.45-.29,7.16,7.16,0,0,1,4.58,3.32,18.29,18.29,0,0,0,2.75,3.65,3.68,3.68,0,0,0,4.22.71,9.49,9.49,0,0,0,1.77-2,6.21,6.21,0,0,1,7-1.41,7.42,7.42,0,0,1,4.2,6,19.28,19.28,0,0,0,.3,3.4A2.62,2.62,0,0,0,54,110a8.87,8.87,0,0,0,1.79-.57,3.06,3.06,0,0,1,3.87,3.46Z"/><path class="cls-13" d="M44,240.23l.24.19h72.57a2.63,2.63,0,0,0-1.55-2.8c-1.38-.58-3,.06-4.48-.27a4.76,4.76,0,0,1-3.11-2.81,24.89,24.89,0,0,1-1.18-4.09c-.91-3.43-2.42-7.34-5.69-8.95a13.41,13.41,0,0,0-11.91.16c-2.9,1.52-5.05,4-7.52,6.14s-5.63,3.88-8.88,3.39c-3.78-.57-6.5-4-10.24-4.78a7.72,7.72,0,0,0-6.41,1.6,13.53,13.53,0,0,0-3.43,5.5c-.63,1.55-1.51,3.34-3.21,3.62-1.54.25-3.13-.91-4.61-.41A2.09,2.09,0,0,0,44,240.23Z"/><path class="cls-60" d="M187.54,150.1l-6.26-7.17a.27.27,0,0,1,.2-.45l6.59-.28a.25.25,0,0,1,.22.09l5.72,6.55a.27.27,0,0,1-.17.45l-6.05.9A.29.29,0,0,1,187.54,150.1Z"/><polygon class="cls-27" points="187.59 149.72 181.65 142.94 188.1 142.67 193.51 148.84 187.59 149.72"/><polygon class="cls-61" points="187.59 149.59 181.65 142.82 188.1 142.54 193.51 148.71 187.59 149.59"/><path class="cls-62" d="M186.67,146.22v0a6.39,6.39,0,0,1-1.84.55l-.05,0s0,.08,0,.11a.69.69,0,0,0,.51.12,4.59,4.59,0,0,0,1.25-.27.07.07,0,0,1-.09,0s0,0,0,0a6.38,6.38,0,0,1-1.55.5.28.28,0,0,0-.12,0,.09.09,0,0,0,0,.12l.06,0a2.57,2.57,0,0,0,1.82-.21s0,0,0,0,0,0,0,0a4.37,4.37,0,0,1-1.32.49.44.44,0,0,0-.25.11c-.07.06-.08.19,0,.23l.08,0a2.73,2.73,0,0,0,1.75-.33l-1.62.76a.12.12,0,0,0-.07.05s0,.09,0,.12a.76.76,0,0,0,.72.09,4.82,4.82,0,0,0,1.11-.43,2.64,2.64,0,0,0,2.5-.39c0-.21,0-.41-.07-.62a1.24,1.24,0,0,0-.14-.54,1.29,1.29,0,0,0-.25-.28s0,0-.05,0,0,0,0,0a9.74,9.74,0,0,1-1.61-.22A2.55,2.55,0,0,0,186.67,146.22Z"/><path class="cls-62" d="M192.9,164.18q-.06,6.54-.13,13.08a.56.56,0,0,1-.4.54c0,.27.32.41.59.45a2.25,2.25,0,0,0,1.67-.38q1.13-6.59,1.69-13.24a3.24,3.24,0,0,0-1.17-.76,1.58,1.58,0,0,0-1.49.18,1.81,1.81,0,0,1-.34.28C193.19,164.4,193,164.29,192.9,164.18Z"/><path class="cls-26" d="M194.66,177.9a1.61,1.61,0,0,1,.21,1.14c0,.53-.18,1.18-.63,1.33a1.3,1.3,0,0,1-.75-.1,6.86,6.86,0,0,0-2.78,0,3.4,3.4,0,0,1-2.67-.55c.07-.18-.06-.24,0-.43s.4-.48.69-.57a18.68,18.68,0,0,1,2.09-.5,2.37,2.37,0,0,0,1.17-.42,1.5,1.5,0,0,1,.24-.2c.38-.24.8.1,1.18.3A2.15,2.15,0,0,0,194.66,177.9Z"/><path class="cls-62" d="M198.44,164.45,201,177.28a.54.54,0,0,1-.28.61c.08.26.4.34.67.33a2.26,2.26,0,0,0,1.56-.72q-.22-6.66-1-13.3a3.31,3.31,0,0,0-1.3-.51,1.54,1.54,0,0,0-1.42.48,1.88,1.88,0,0,1-.28.34C198.77,164.61,198.56,164.54,198.44,164.45Z"/><path class="cls-26" d="M203.07,177.27a1.62,1.62,0,0,1,.35,1.12c0,.53,0,1.19-.45,1.39a1.23,1.23,0,0,1-.76,0,7.12,7.12,0,0,0-2.76.37,3.35,3.35,0,0,1-2.71-.21c0-.18-.1-.22-.09-.42s.34-.53.61-.65a18.81,18.81,0,0,1,2-.76,2.23,2.23,0,0,0,1.11-.57,2.29,2.29,0,0,1,.21-.23c.35-.28.81,0,1.22.15A2,2,0,0,0,203.07,177.27Z"/><path class="cls-63" d="M199.73,133.64a5.26,5.26,0,0,0,.24,1.58.94.94,0,0,1,.07.61.73.73,0,0,1-.22.3,2.29,2.29,0,0,1-1.84.55.48.48,0,0,1-.37-.2.47.47,0,0,1,0-.17l-.18-1.71C198.16,134.28,199,134,199.73,133.64Z"/><path class="cls-62" d="M194.51,128.28a.35.35,0,0,1,.05-.08c.06.22.29.18.51.18a4,4,0,0,0,2-.77,2.26,2.26,0,0,0,.64,1.33,1.5,1.5,0,0,0,1.36.4c.32-.09.66-.3,1-.17a.75.75,0,0,1,.37.6c0,.25.15,1,.13,1.23a6.41,6.41,0,0,1-.58,2.41,3.26,3.26,0,0,1-1.72,1.67,2,2,0,0,1-.33.09,1.47,1.47,0,0,1-1,0h0l0,0a1.63,1.63,0,0,1-.44-.28l0,0a4,4,0,0,1-.64-.58,3.8,3.8,0,0,1-.33-.37l0,0-.06-.08a7,7,0,0,1-.47-.73c-.13,0-.25,0-.24-.11s-.49-1.44-.5-1.47C193.71,130,194.38,129.79,194.51,128.28Z"/><path class="cls-64" d="M195.62,145.47a15,15,0,0,1,.33,2.91,20.77,20.77,0,0,1-.33,3.15h-.05s-.07.08,0,.09c2.82.55,6.29.48,8.57-1.51,0,.06.11,0,.1,0a.07.07,0,0,1,0-.05l.05,0s0-.07,0,0l0,0a15,15,0,0,0-1-2.54,7,7,0,0,1-.4-2.9c0-1,.12-2,.18-3a20.84,20.84,0,0,0-.06-5.41l0,0s.05,0,0,0l-.07-.1h0a1.9,1.9,0,0,0-1.57-.61,11.41,11.41,0,0,0-2.58.49,24.43,24.43,0,0,0-2.47.79,3.17,3.17,0,0,0-1.58.87c-.46.55-.3,1.46-.23,2.11C194.67,141.61,195.24,143.52,195.62,145.47Z"/><path class="cls-65" d="M192,163.82a2.43,2.43,0,0,1,.08-.47.5.5,0,0,1,0-.12v0l0-.12a29.56,29.56,0,0,1,2.6-9.1,8.89,8.89,0,0,0,.81-2.69.06.06,0,0,1,0-.1v0a0,0,0,1,1,.08,0v.06a8.18,8.18,0,0,0,4.65.22c1.33-.25,2.85-.49,3.82-1.51h0s0-.05,0,0l0,0s.06,0,0,0l0,0c1.12,3.49-.36,7.13-1.08,10.54a16.13,16.13,0,0,0-.4,3.24s.34-.15,0,.06a12.61,12.61,0,0,1-4.15,1.39,8.39,8.39,0,0,1-2.18-.05c-.73-.11-1.47-.24-2.2-.4a7.78,7.78,0,0,1-2.19-.8C191.91,163.89,192,163.78,192,163.82Z"/><path class="cls-64" d="M188.52,148.19c.07.23.13.48.21.71h0c-.05,0,0,.11.05.09a24.43,24.43,0,0,1,3.1-1,4.79,4.79,0,0,0,2.24-1.38,0,0,0,0,0,.06,0,8.19,8.19,0,0,0,1-2c.22-.66.41-1.34.59-2s.44-1.45.59-2.19a3.58,3.58,0,0,0-.11-1.92c-.08-.24-.32-1-.65-1-.27-.34-.82-.15-1.08.15a3.48,3.48,0,0,0-.53,1c-.15.38-.28.77-.4,1.16a21.79,21.79,0,0,0-.56,2.42,22.39,22.39,0,0,0-.35,2.44,0,0,0,0,0,0,.05c0,.31-.59.49-.83.6a4.62,4.62,0,0,1-.87.34c-.74.2-1.49.32-2.23.49a0,0,0,0,0,0,0,2.32,2.32,0,0,0-.4,1.3A2.67,2.67,0,0,0,188.52,148.19Z"/><path class="cls-26" d="M193.73,129.62a1.6,1.6,0,0,0,1.28.46,2.36,2.36,0,0,1,1.06,0,1.47,1.47,0,0,1,.61.52,1.54,1.54,0,0,1-.13,1.68,2.33,2.33,0,0,0-.43,1.5,2.29,2.29,0,0,0,.77,1.38,3.68,3.68,0,0,0,.7.46c.16.09.39.15.56.25a3.7,3.7,0,0,1-.63,2.76,12.17,12.17,0,0,0-1.87,3.33,5.81,5.81,0,0,0,.24,3.52,6.36,6.36,0,0,0,4,3.66,6.77,6.77,0,0,0,6.1.31,5,5,0,0,0,2.83-5.21,8.44,8.44,0,0,0-.56-1.6l-.05-.12a3.18,3.18,0,0,1,0-1.62,9.34,9.34,0,0,1,.67-1.39,6.33,6.33,0,0,0-3.47-8.44h0c-.31-.19-.64-.36-1-.52-.57-.28-1.16-.52-1.71-.86a4.71,4.71,0,0,1-1.22-1.13c-.13-.24-.24-.49-.35-.75a4,4,0,0,0-1.34-1.83,2.39,2.39,0,0,0-2-.15,7.56,7.56,0,0,1-.82.07,7.27,7.27,0,0,0-1.92.17,2.84,2.84,0,0,0-1.36.86A2,2,0,0,0,193.73,129.62Zm4.7,7a2.31,2.31,0,0,0,0-.37A.9.9,0,0,1,198.43,136.58Zm8-4.81a6.42,6.42,0,0,1,2.66,3.3,6,6,0,0,1,.22,3,14.5,14.5,0,0,1-1,2.58,3,3,0,0,0-.21,1.23,2.85,2.85,0,0,1,0-1.09c.24-1.2,1-2.22,1.1-3.46A6.46,6.46,0,0,0,206.39,131.77ZM199,125.91a2.61,2.61,0,0,1,.27.06,1.94,1.94,0,0,1,.85.54l0,0A2.92,2.92,0,0,0,199,125.91Zm-.79,11.78c0,.14-.08.27-.13.41a8.79,8.79,0,0,1-1,1.72,7.18,7.18,0,0,0-1.29,3.54,4.52,4.52,0,0,0,.21,1.79,5.31,5.31,0,0,0,.89,1.57,10.14,10.14,0,0,0,1.93,1.83,6.25,6.25,0,0,1-1.66-1.25,5.75,5.75,0,0,1-1.55-3.63,6.08,6.08,0,0,1,1.32-3.9A9.09,9.09,0,0,0,198.23,137.69Z"/></g></g></g></svg>